<mxfile host="65bd71144e">
    <diagram id="kyIIXBsKN7E_6H6CPdWR" name="Page-1">
        <mxGraphModel dx="1623" dy="873" grid="1" gridSize="10" guides="1" tooltips="1" connect="1" arrows="1" fold="1" page="1" pageScale="1" pageWidth="1654" pageHeight="1169" background="#FFFFFF" math="0" shadow="0">
            <root>
                <mxCell id="0"/>
                <mxCell id="1" parent="0"/>
                <mxCell id="2" value="" style="sketch=0;points=[[0,0,0],[0.25,0,0],[0.5,0,0],[0.75,0,0],[1,0,0],[0,1,0],[0.25,1,0],[0.5,1,0],[0.75,1,0],[1,1,0],[0,0.25,0],[0,0.5,0],[0,0.75,0],[1,0.25,0],[1,0.5,0],[1,0.75,0]];outlineConnect=0;fontColor=#232F3E;gradientColor=#4AB29A;gradientDirection=north;fillColor=#116D5B;strokeColor=#ffffff;dashed=0;verticalLabelPosition=bottom;verticalAlign=top;align=center;html=1;fontSize=12;fontStyle=0;aspect=fixed;shape=mxgraph.aws4.resourceIcon;resIcon=mxgraph.aws4.desktop_and_app_streaming;" parent="1" vertex="1">
                    <mxGeometry x="120" y="401" width="78" height="78" as="geometry"/>
                </mxCell>
                <mxCell id="3" value="&lt;span style=&quot;font-size: 15px;&quot;&gt;user&lt;/span&gt;" style="text;html=1;align=center;verticalAlign=middle;resizable=0;points=[];autosize=1;strokeColor=none;fillColor=none;" parent="1" vertex="1">
                    <mxGeometry x="134" y="479" width="50" height="30" as="geometry"/>
                </mxCell>
                <mxCell id="5" value="AWS Cloud" style="sketch=0;outlineConnect=0;gradientColor=none;html=1;whiteSpace=wrap;fontSize=12;fontStyle=0;shape=mxgraph.aws4.group;grIcon=mxgraph.aws4.group_aws_cloud;strokeColor=#AAB7B8;fillColor=none;verticalAlign=top;align=left;spacingLeft=30;fontColor=#AAB7B8;dashed=0;" parent="1" vertex="1">
                    <mxGeometry x="240" y="120" width="1120" height="800" as="geometry"/>
                </mxCell>
                <mxCell id="7" value="VPC" style="points=[[0,0],[0.25,0],[0.5,0],[0.75,0],[1,0],[1,0.25],[1,0.5],[1,0.75],[1,1],[0.75,1],[0.5,1],[0.25,1],[0,1],[0,0.75],[0,0.5],[0,0.25]];outlineConnect=0;gradientColor=none;html=1;whiteSpace=wrap;fontSize=12;fontStyle=0;container=1;pointerEvents=0;collapsible=0;recursiveResize=0;shape=mxgraph.aws4.group;grIcon=mxgraph.aws4.group_vpc;strokeColor=#248814;fillColor=none;verticalAlign=top;align=left;spacingLeft=30;fontColor=#AAB7B8;dashed=0;" vertex="1" parent="1">
                    <mxGeometry x="320" y="280" width="800" height="320" as="geometry"/>
                </mxCell>
                <mxCell id="9" value="Private subnet" style="points=[[0,0],[0.25,0],[0.5,0],[0.75,0],[1,0],[1,0.25],[1,0.5],[1,0.75],[1,1],[0.75,1],[0.5,1],[0.25,1],[0,1],[0,0.75],[0,0.5],[0,0.25]];outlineConnect=0;gradientColor=none;html=1;whiteSpace=wrap;fontSize=12;fontStyle=0;container=1;pointerEvents=0;collapsible=0;recursiveResize=0;shape=mxgraph.aws4.group;grIcon=mxgraph.aws4.group_security_group;grStroke=0;strokeColor=#147EBA;fillColor=#E6F2F8;verticalAlign=top;align=left;spacingLeft=30;fontColor=#147EBA;dashed=0;" vertex="1" parent="7">
                    <mxGeometry x="360" y="38" width="400" height="242" as="geometry"/>
                </mxCell>
                <mxCell id="23" value="VPC Endpoint" style="text;html=1;align=center;verticalAlign=middle;resizable=0;points=[];autosize=1;strokeColor=none;fillColor=none;fontSize=15;" vertex="1" parent="9">
                    <mxGeometry x="239" y="160" width="120" height="30" as="geometry"/>
                </mxCell>
                <mxCell id="25" value="Fargate" style="text;html=1;align=center;verticalAlign=middle;resizable=0;points=[];autosize=1;strokeColor=none;fillColor=none;fontSize=15;" vertex="1" parent="9">
                    <mxGeometry x="107" y="160" width="80" height="30" as="geometry"/>
                </mxCell>
                <mxCell id="36" style="edgeStyle=none;html=1;fontSize=15;" edge="1" parent="1" source="8" target="24">
                    <mxGeometry relative="1" as="geometry"/>
                </mxCell>
                <mxCell id="8" value="" style="sketch=0;outlineConnect=0;fontColor=#232F3E;gradientColor=none;fillColor=#4D27AA;strokeColor=none;dashed=0;verticalLabelPosition=bottom;verticalAlign=top;align=center;html=1;fontSize=12;fontStyle=0;aspect=fixed;pointerEvents=1;shape=mxgraph.aws4.endpoints;" vertex="1" parent="1">
                    <mxGeometry x="940" y="401" width="78" height="78" as="geometry"/>
                </mxCell>
                <mxCell id="10" value="Public subnet" style="points=[[0,0],[0.25,0],[0.5,0],[0.75,0],[1,0],[1,0.25],[1,0.5],[1,0.75],[1,1],[0.75,1],[0.5,1],[0.25,1],[0,1],[0,0.75],[0,0.5],[0,0.25]];outlineConnect=0;gradientColor=none;html=1;whiteSpace=wrap;fontSize=12;fontStyle=0;container=1;pointerEvents=0;collapsible=0;recursiveResize=0;shape=mxgraph.aws4.group;grIcon=mxgraph.aws4.group_security_group;grStroke=0;strokeColor=#248814;fillColor=#E9F3E6;verticalAlign=top;align=left;spacingLeft=30;fontColor=#248814;dashed=0;" vertex="1" parent="1">
                    <mxGeometry x="360" y="320" width="280" height="240" as="geometry"/>
                </mxCell>
                <mxCell id="12" value="" style="sketch=0;points=[[0,0,0],[0.25,0,0],[0.5,0,0],[0.75,0,0],[1,0,0],[0,1,0],[0.25,1,0],[0.5,1,0],[0.75,1,0],[1,1,0],[0,0.25,0],[0,0.5,0],[0,0.75,0],[1,0.25,0],[1,0.5,0],[1,0.75,0]];outlineConnect=0;fontColor=#232F3E;gradientColor=#945DF2;gradientDirection=north;fillColor=#5A30B5;strokeColor=#ffffff;dashed=0;verticalLabelPosition=bottom;verticalAlign=top;align=center;html=1;fontSize=12;fontStyle=0;aspect=fixed;shape=mxgraph.aws4.resourceIcon;resIcon=mxgraph.aws4.elastic_load_balancing;" vertex="1" parent="10">
                    <mxGeometry x="101" y="80" width="78" height="78" as="geometry"/>
                </mxCell>
                <mxCell id="22" value="ALB" style="text;html=1;align=center;verticalAlign=middle;resizable=0;points=[];autosize=1;strokeColor=none;fillColor=none;fontSize=15;" vertex="1" parent="10">
                    <mxGeometry x="115" y="159" width="50" height="30" as="geometry"/>
                </mxCell>
                <mxCell id="35" style="edgeStyle=none;html=1;fontSize=15;" edge="1" parent="1" source="11" target="8">
                    <mxGeometry relative="1" as="geometry"/>
                </mxCell>
                <mxCell id="11" value="" style="sketch=0;points=[[0,0,0],[0.25,0,0],[0.5,0,0],[0.75,0,0],[1,0,0],[0,1,0],[0.25,1,0],[0.5,1,0],[0.75,1,0],[1,1,0],[0,0.25,0],[0,0.5,0],[0,0.75,0],[1,0.25,0],[1,0.5,0],[1,0.75,0]];outlineConnect=0;fontColor=#232F3E;gradientColor=#F78E04;gradientDirection=north;fillColor=#D05C17;strokeColor=#ffffff;dashed=0;verticalLabelPosition=bottom;verticalAlign=top;align=center;html=1;fontSize=12;fontStyle=0;aspect=fixed;shape=mxgraph.aws4.resourceIcon;resIcon=mxgraph.aws4.fargate;" vertex="1" parent="1">
                    <mxGeometry x="788" y="401" width="78" height="78" as="geometry"/>
                </mxCell>
                <mxCell id="13" value="" style="outlineConnect=0;dashed=0;verticalLabelPosition=bottom;verticalAlign=top;align=center;html=1;shape=mxgraph.aws3.cloudwatch;fillColor=#759C3E;gradientColor=none;" vertex="1" parent="1">
                    <mxGeometry x="1200" y="160" width="82.5" height="93" as="geometry"/>
                </mxCell>
                <mxCell id="14" value="" style="sketch=0;points=[[0,0,0],[0.25,0,0],[0.5,0,0],[0.75,0,0],[1,0,0],[0,1,0],[0.25,1,0],[0.5,1,0],[0.75,1,0],[1,1,0],[0,0.25,0],[0,0.5,0],[0,0.75,0],[1,0.25,0],[1,0.5,0],[1,0.75,0]];outlineConnect=0;fontColor=#232F3E;gradientColor=#F78E04;gradientDirection=north;fillColor=#D05C17;strokeColor=#ffffff;dashed=0;verticalLabelPosition=bottom;verticalAlign=top;align=center;html=1;fontSize=12;fontStyle=0;aspect=fixed;shape=mxgraph.aws4.resourceIcon;resIcon=mxgraph.aws4.ecr;" vertex="1" parent="1">
                    <mxGeometry x="940" y="160" width="78" height="78" as="geometry"/>
                </mxCell>
                <mxCell id="15" value="" style="outlineConnect=0;dashed=0;verticalLabelPosition=bottom;verticalAlign=top;align=center;html=1;shape=mxgraph.aws3.iam;fillColor=#759C3E;gradientColor=none;" vertex="1" parent="1">
                    <mxGeometry x="1220.25" y="340" width="42" height="81" as="geometry"/>
                </mxCell>
                <mxCell id="38" style="edgeStyle=none;html=1;entryX=0.482;entryY=0.699;entryDx=0;entryDy=0;entryPerimeter=0;fontSize=15;" edge="1" parent="1" source="16" target="5">
                    <mxGeometry relative="1" as="geometry"/>
                </mxCell>
                <mxCell id="16" value="" style="sketch=0;points=[[0,0,0],[0.25,0,0],[0.5,0,0],[0.75,0,0],[1,0,0],[0,1,0],[0.25,1,0],[0.5,1,0],[0.75,1,0],[1,1,0],[0,0.25,0],[0,0.5,0],[0,0.75,0],[1,0.25,0],[1,0.5,0],[1,0.75,0]];outlineConnect=0;fontColor=#232F3E;gradientColor=#FF4F8B;gradientDirection=north;fillColor=#BC1356;strokeColor=#ffffff;dashed=0;verticalLabelPosition=bottom;verticalAlign=top;align=center;html=1;fontSize=12;fontStyle=0;aspect=fixed;shape=mxgraph.aws4.resourceIcon;resIcon=mxgraph.aws4.api_gateway;" vertex="1" parent="1">
                    <mxGeometry x="461" y="640" width="78" height="78" as="geometry"/>
                </mxCell>
                <mxCell id="39" style="edgeStyle=none;html=1;entryX=0;entryY=0.5;entryDx=0;entryDy=0;entryPerimeter=0;fontSize=15;" edge="1" parent="1" source="17" target="18">
                    <mxGeometry relative="1" as="geometry"/>
                </mxCell>
                <mxCell id="17" value="" style="sketch=0;points=[[0,0,0],[0.25,0,0],[0.5,0,0],[0.75,0,0],[1,0,0],[0,1,0],[0.25,1,0],[0.5,1,0],[0.75,1,0],[1,1,0],[0,0.25,0],[0,0.5,0],[0,0.75,0],[1,0.25,0],[1,0.5,0],[1,0.75,0]];outlineConnect=0;fontColor=#232F3E;gradientColor=#F78E04;gradientDirection=north;fillColor=#D05C17;strokeColor=#ffffff;dashed=0;verticalLabelPosition=bottom;verticalAlign=top;align=center;html=1;fontSize=12;fontStyle=0;aspect=fixed;shape=mxgraph.aws4.resourceIcon;resIcon=mxgraph.aws4.lambda;" vertex="1" parent="1">
                    <mxGeometry x="788" y="640" width="78" height="78" as="geometry"/>
                </mxCell>
                <mxCell id="18" value="" style="sketch=0;points=[[0,0,0],[0.25,0,0],[0.5,0,0],[0.75,0,0],[1,0,0],[0,1,0],[0.25,1,0],[0.5,1,0],[0.75,1,0],[1,1,0],[0,0.25,0],[0,0.5,0],[0,0.75,0],[1,0.25,0],[1,0.5,0],[1,0.75,0]];outlineConnect=0;fontColor=#232F3E;gradientColor=#4AB29A;gradientDirection=north;fillColor=#116D5B;strokeColor=#ffffff;dashed=0;verticalLabelPosition=bottom;verticalAlign=top;align=center;html=1;fontSize=12;fontStyle=0;aspect=fixed;shape=mxgraph.aws4.resourceIcon;resIcon=mxgraph.aws4.kendra;" vertex="1" parent="1">
                    <mxGeometry x="940" y="640" width="78" height="78" as="geometry"/>
                </mxCell>
                <mxCell id="20" value="" style="sketch=0;points=[[0,0,0],[0.25,0,0],[0.5,0,0],[0.75,0,0],[1,0,0],[0,1,0],[0.25,1,0],[0.5,1,0],[0.75,1,0],[1,1,0],[0,0.25,0],[0,0.5,0],[0,0.75,0],[1,0.25,0],[1,0.5,0],[1,0.75,0]];outlineConnect=0;fontColor=#232F3E;gradientColor=#60A337;gradientDirection=north;fillColor=#277116;strokeColor=#ffffff;dashed=0;verticalLabelPosition=bottom;verticalAlign=top;align=center;html=1;fontSize=12;fontStyle=0;aspect=fixed;shape=mxgraph.aws4.resourceIcon;resIcon=mxgraph.aws4.s3;" vertex="1" parent="1">
                    <mxGeometry x="940" y="780" width="78" height="78" as="geometry"/>
                </mxCell>
                <mxCell id="21" value="" style="shape=image;verticalLabelPosition=bottom;verticalAlign=top;imageAspect=0;aspect=fixed;image=data:image/png,iVBORw0KGgoAAAANSUhEUgAAAXgAAAF4CAYAAABeneKmAAAKqWlDQ1BJQ0MgUHJvZmlsZQAASImVlwdUU+kSgP9700NCS4h0Qm+CdAJICaGF3puohCRAKCEEgopdWVzBFUVFBBUBFwUUXJUia0UU26KgYHdBFgVlFQs2VN4FDmF333nvnTfnzJkvk/nnn/8/d+6ZCwBZniMSpcHyAKQLs8Wh3u706JhYOm4YYIAsoAAioHO4WSJmcLA/QGTW/l0+9AFoyt42m8r17///V1Hg8bO4AEDBCCfwsrjpCJ9E9AVXJM4GAHUA8esuyxZNcQfCVDFSIML3pjhphkenOGGa0WA6JjyUhTAVADyJwxEnAUCiI356DjcJyUNyQ9hCyBMIERYh7JKensFD+BjCRkgM4iNN5Wck/CVP0t9yJkhzcjhJUp45y7TgPQRZojTOiv/zOv63pKdJZvcwQJSULPYJRawicmf3UjP8pCxMCAyaZQFvOn6akyU+EbPMzWLFzjKP4+EnXZsW6D/LiQIvtjRPNjt8lvlZnmGzLM4Ile6VKGYxZ5kjnttXkhoh9Sfz2dL8ucnhUbOcI4gMnOWs1DC/uRiW1C+WhErr5wu93ef29ZKePT3rL+cVsKVrs5PDfaRn58zVzxcy53JmRUtr4/E9POdiIqTxomx36V6itGBpPD/NW+rPygmTrs1GHsi5tcHSO0zh+AbPMmCBDJCGqBjQgT/yywOAbP7y7KmDsDJEK8SCpORsOhPpMD6dLeSaz6dbWVjZADDVrzOPwzvadB9CtGtzPuGfyGNcifTIjjkfpxWAFg7SenVzPgNLAOS+A3DmNVcizpnxTfcSBnkHyAEqUAGaQBcYATNgBeyAE3ADnsAXBIFwEAOWAC5IBulI5cvAKrAe5INCsA3sAmWgAlSDw+AoOA5awGlwAVwG18Et0Asegn4wBF6CMfABTEAQhIPIEAVSgbQgfcgUsoIYkAvkCflDoVAMFA8lQUJIAq2CNkKFUDFUBlVCtdAv0CnoAnQV6obuQwPQCPQW+gKjYBJMhTVgA3gBzICZsB8cDi+Gk+BMOBfOg7fCpXAVfARuhi/A1+FeuB9+CY+jAEoGRUNpo8xQDBQLFYSKRSWixKg1qAJUCaoK1YBqQ3WibqP6UaOoz2gsmoKmo83QTmgfdASai85Er0FvQZehD6Ob0R3o2+gB9Bj6O4aMUceYYhwxbEw0JgmzDJOPKcHUYJowlzC9mCHMBywWS8MaYu2xPtgYbAp2JXYLdh+2EXse240dxI7jcDgVnCnOGReE4+Cycfm4PbgjuHO4HtwQ7hNeBq+Ft8J74WPxQvwGfAm+Dn8W34N/jp8gyBP0CY6EIAKPsIJQRDhIaCPcJAwRJogKREOiMzGcmEJcTywlNhAvER8R38nIyOjIOMiEyAhk1smUyhyTuSIzIPOZpEgyIbFIcSQJaSvpEOk86T7pHZlMNiC7kWPJ2eSt5FryRfIT8idZiqy5LFuWJ7tWtly2WbZH9pUcQU5fjim3RC5XrkTuhNxNuVF5gryBPEueI79Gvlz+lPxd+XEFioKlQpBCusIWhTqFqwrDijhFA0VPRZ5inmK14kXFQQqKokthUbiUjZSDlEuUISqWakhlU1OohdSj1C7qmJKiko1SpNJypXKlM0r9NBTNgMampdGKaMdpfbQv8zTmMefx522e1zCvZ95HZTVlN2W+coFyo3Kv8hcVuoqnSqrKdpUWlceqaFUT1RDVZar7VS+pjqpR1ZzUuGoFasfVHqjD6ibqoeor1avVb6iPa2hqeGuINPZoXNQY1aRpummmaO7UPKs5okXRctESaO3UOqf1gq5EZ9LT6KX0DvqYtrq2j7ZEu1K7S3tCx1AnQmeDTqPOY12iLkM3UXenbrvumJ6WXoDeKr16vQf6BH2GfrL+bv1O/Y8GhgZRBpsMWgyGDZUN2Ya5hvWGj4zIRq5GmUZVRneMscYM41Tjfca3TGATW5Nkk3KTm6awqZ2pwHSfafd8zHyH+cL5VfPvmpHMmGY5ZvVmA+Y0c3/zDeYt5q8W6C2IXbB9QeeC7xa2FmkWBy0eWipa+lpusGyzfGtlYsW1Kre6Y0229rJea91q/cbG1IZvs9/mni3FNsB2k2277Tc7ezuxXYPdiL2efbz9Xvu7DCojmLGFccUB4+DusNbhtMNnRzvHbMfjjq+dzJxSneqchhcaLuQvPLhw0FnHmeNc6dzvQneJdzng0u+q7cpxrXJ96qbrxnOrcXvONGamMI8wX7lbuIvdm9w/shxZq1nnPVAe3h4FHl2eip4RnmWeT7x0vJK86r3GvG29V3qf98H4+Pls97nL1mBz2bXsMV9739W+HX4kvzC/Mr+n/ib+Yv+2ADjAN2BHwKNA/UBhYEsQCGIH7Qh6HGwYnBn8awg2JDikPORZqGXoqtDOMErY0rC6sA/h7uFF4Q8jjCIkEe2RcpFxkbWRH6M8ooqj+qMXRK+Ovh6jGiOIaY3FxUbG1sSOL/JctGvRUJxtXH5c32LDxcsXX12iuiRtyZmlcks5S0/EY+Kj4uviv3KCOFWc8QR2wt6EMS6Lu5v7kufG28kb4Tvzi/nPE50TixOHk5yTdiSNJLsmlySPCliCMsGbFJ+UipSPqUGph1In06LSGtPx6fHpp4SKwlRhR4ZmxvKMbpGpKF/Un+mYuStzTOwnrsmCshZntWZTkcHohsRI8oNkIMclpzzn07LIZSeWKywXLr+xwmTF5hXPc71yf16JXsld2b5Ke9X6VQOrmasr10BrEta0r9Vdm7d2aJ33usPrietT1/+2wWJD8Yb3G6M2tuVp5K3LG/zB+4f6fNl8cf7dTU6bKn5E/yj4sWuz9eY9m78X8AquFVoUlhR+3cLdcu0ny59Kf5rcmri1q8iuaP827Dbhtr7trtsPFysU5xYP7gjY0byTvrNg5/tdS3ddLbEpqdhN3C3Z3V/qX9q6R2/Ptj1fy5LLesvdyxv3qu/dvPfjPt6+nv1u+xsqNCoKK74cEBy4V+ld2VxlUFVSja3OqX52MPJg58+Mn2trVGsKa74dEh7qPxx6uKPWvra2Tr2uqB6ul9SPHIk7cuuox9HWBrOGykZaY+ExcExy7MUv8b/0Hfc73n6CcaLhpP7JvU2UpoJmqHlF81hLckt/a0xr9ynfU+1tTm1Nv5r/eui09unyM0pnis4Sz+adnTyXe278vOj86IWkC4PtS9sfXoy+eKcjpKPrkt+lK5e9Ll/sZHaeu+J85fRVx6unrjGutVy3u958w/ZG02+2vzV12XU137S/2XrL4VZb98Lusz2uPRdue9y+fId953pvYG93X0Tfvbtxd/vv8e4N30+7/+ZBzoOJh+seYR4VPJZ/XPJE/UnV78a/N/bb9Z8Z8Bi48TTs6cNB7uDLP7L++DqU94z8rOS51vPaYavh0yNeI7deLHox9FL0cmI0/0+FP/e+Mnp18rXb6xtj0WNDb8RvJt9ueafy7tB7m/ft48HjTz6kf5j4WPBJ5dPhz4zPnV+ivjyfWPYV97X0m/G3tu9+3x9Npk9OijhizvQogEIUTkwE4O0hAMgxAFBuAUBcNDNPTws08w0wTeA/8czMPS12AFSfByB8HQCBiFa4ITMIYuUQOzUShbsB2NpaqrOz7/ScPiVY5IvlgMMU9dpQwT9lZob/S93/tGAqqw34p/0X4fgEEXNGq5IAAACKZVhJZk1NACoAAAAIAAQBGgAFAAAAAQAAAD4BGwAFAAAAAQAAAEYBKAADAAAAAQACAACHaQAEAAAAAQAAAE4AAAAAAAAAkAAAAAEAAACQAAAAAQADkoYABwAAABIAAAB4oAIABAAAAAEAAAF4oAMABAAAAAEAAAF4AAAAAEFTQ0lJAAAAU2NyZWVuc2hvdDEMw3cAAAAJcEhZcwAAFiUAABYlAUlSJPAAAAHWaVRYdFhNTDpjb20uYWRvYmUueG1wAAAAAAA8eDp4bXBtZXRhIHhtbG5zOng9ImFkb2JlOm5zOm1ldGEvIiB4OnhtcHRrPSJYTVAgQ29yZSA2LjAuMCI+CiAgIDxyZGY6UkRGIHhtbG5zOnJkZj0iaHR0cDovL3d3dy53My5vcmcvMTk5OS8wMi8yMi1yZGYtc3ludGF4LW5zIyI+CiAgICAgIDxyZGY6RGVzY3JpcHRpb24gcmRmOmFib3V0PSIiCiAgICAgICAgICAgIHhtbG5zOmV4aWY9Imh0dHA6Ly9ucy5hZG9iZS5jb20vZXhpZi8xLjAvIj4KICAgICAgICAgPGV4aWY6UGl4ZWxZRGltZW5zaW9uPjM3NjwvZXhpZjpQaXhlbFlEaW1lbnNpb24+CiAgICAgICAgIDxleGlmOlBpeGVsWERpbWVuc2lvbj4zNzY8L2V4aWY6UGl4ZWxYRGltZW5zaW9uPgogICAgICAgICA8ZXhpZjpVc2VyQ29tbWVudD5TY3JlZW5zaG90PC9leGlmOlVzZXJDb21tZW50PgogICAgICA8L3JkZjpEZXNjcmlwdGlvbj4KICAgPC9yZGY6UkRGPgo8L3g6eG1wbWV0YT4KWFmDFAAAABxpRE9UAAAAAgAAAAAAAAC8AAAAKAAAALwAAAC8AACoJ5XY6j0AAEAASURBVHgB7L0JuG1XVSa67k2fkNAlhC6ECCEIAkmQJgRCJyJQWOITRBHCe1aBpZb6tN6zLLBK5NMqtT6r6isfWAr2zXuCDX4qjWBAkS4NTWikiUBIQ5OEtJDmJveNvplzzLn2PefcS2gWZK0x/v8fzZx77XnWXWftfXYde+8H71327l2+Lrev02Hv79f6G9O6v2f4G/m/MQNrM7B32bV797LruBMfsnf3HY4E9c68LXcN6yIzqzGOnKYckrdvYnW0u0Axmq7V4Nv32LE7HIIPTwaUQRpEGmpyiP7a2KVxJYfm6WtjkMUo8lALAUIbiTZUDUocSHiz4Qw62jwYl4+brrp22XWP08/ce9cffMqya8+tg6QAU95d40kUHhN0LRhgRtYYbAb1Yd5ucG0lMJQ16OJ/xiMcNMLvmvEYAptHiSWxMXenwd6KzWbKAzrVLnwFptuuZTdIUutRT+FcCc1OJzyGoJk0xCmDx0ZjvDIkoR3lgl2uFwLAJI2HgBV4xMV11C3lYrjNZ4iNPMNd0layrM45vCahky4eEhBWagh0xi1JY4AZnitBydlMAyE5KnuRdMatyGNBZoQPMmpGdjZTA57zADnhSTN6H1gcG+bmJsBzxq0IJ9TVCU4OpWyQmNBKZk3wSlPAwOlQGMI9/JcXK5VI38ijLr/7VMTnN/O7Dzlkeff/9Qpe4I/935+87L31Nh+8RrTH2RsA89JmL70CCotvwlzPYDMkGxwy1AH9OdIEgJuR4NWm1wg8NpRd8DKAEtoYHvMo2v6CQ1lCPTJ5l/qyblxQ8EgabEZCLX465xKbUnjmUCSZXj0HhkggGk4bYljImaZvXFNI7sH5qyqJL0sYyIa5FqsGHp0ly10RZaBvO/OYLiPBq83UQwwOctZkQPrTekAOeBTSbE54jJ3OOMVygjKNgQNNw3NPMgTjEiok9JX4QgN8lgSvNiGJEIHPmWs+afrGkKaNooHffcjBy3t++tfDAo9X8EA0dTUuRo81nN0LxWhLbEbO4zBEuWOWGZrUgXq8zmtDGQleaZagppImRBOk2h0eCa6bM9mBWeS9Qbe0QW3FGbPMQE1yipO/0YA8R/R8g+QaTbC7ZWJMJfXGvGlmrwkVmrwPhLdcaMQt8AiTq/zAMdiMPoCoCU+1ZnzggukdZjD0LUTDpw5n80kVIHgQT3mIngiIYr5UBR7zJc3AMdiMLnL9HMdaKb7JIVyWlCAGSt9BHUwSRE3BRc3uQw8pFnhUQMeTWOlioqFgztDlMcCMXMtgM6hn88ygRonTXT/RjUZiU4pYPRBulkFUchMNdwBKF2u76bitRd5yD16TwHM/obRxmRnAIEpMcXLnPCjPET3fIF6jD5RcQhS85wJywJOmPlmQ4o3CZwlQNphvpog3Ew3dUlp3zDIDA5LDXoayBriOjkggg+k5MhgihWh47BA3mokBxwrQbGfOLfd259wShbHRALTN1vmqPccPGi7wONS1RX5NY/NYvCDGURLc0VbDCeUXJUMQm4H+PMo8yjMSvNr0GoHHprMLXgZQQhvDYx5F62+AYi45Pe+piFWKTNNXoWFIYtwxywyUJIdipnMu8hwVvNr0OoHP1YFoOGrGIoWcafrGNYXkXptzTl6WMHCgMb4bVTGuJC4WnczjvGQkeLVps0YTMNMEzidL6wE54HmUc577niawPkuVgWyYq40aYIa365DV0DA89qdKCqBxZyR4pVmCVNIZsRywlgzqGyMN3qI599//r+YWjYWDAYGWJOJqEznRCI/yLo8BZmSNwynaYDNSM+TU420CwM1I8EqzBLmetqAZg9QoMAiumzPZgVnkvUG3tEFtxRmzzEBNcoqTv9GAPEf0fIPkGk2wu2ViTCX1xrxpZq8JFdriOe4F0KLN+wZ34BhshgSHAKImPEb0wwoBtelNBZ5y4Y42IRo+sX1hpSUDBA/itcRkxiWWE5RpCHTGLcg+cAw2AztJTjGfm2hCDjED4jUyiImleiCCSYKoKbj1BZ6qTKfaJrvIzz0QwWynMcCMPKUGm0E5zTODGuV6sq/PsRAgZkAgMnilWQZRRZePNSik2XQxxba7bS3ylnvwugWe+wnVjcvMAAZRYtbfACDPEbmOklkjXgapaYbGvGcHTRFPSWC3Pt8YPkvAlYYKIpjtNAlwxywzfDTWdw8BEgLADJ6EBaQ2PUfgcykhGl4K8FwNONPUb1ClqfHhnFvuoUIGzkKTa3YDzMjz5DBEJOer6hzfbIHHIa69GDhxoMlTgaBsRhQa41DrjlsRTiirMxTFmLB4QZoAcDMSvNr0GoGnWrizDciGV4rhMY+61TmfzTclsF3fRurLusEA3goeCYPNSCjHoi7xjUa4LAlebWJWzh/4nBmIhuMAhev4pOkbV1qSFOevK0DDNco2DBxojMeE7pDlrlTLQN925jFdRoJXm6mHGBzkrMmA9Kf1gBzwKKTZnPAYO51xiuUEZRoDB5qG555kCMYlVEjoK/GFBvgsCZ6YAYEEwQtmzlwGUk8WEhrLC/wL8THJ2XPw06mW/iYa6oDbsGaotTg2Z9yKPAY4Y5YZyOPmQBgvUw2vrkcgErzSLEFNRUfLEaRCuK5uzmQHZpH3Bt2CFgaOwWZgu8kpTv5GA/Ic0fMNkms0we6WiTGV1Bvzppm9JlRoi+e4F0CLNu8b3IFjsBkSHAKImvAY0Q8rBNSmNxV4yoU72oRo+MT2hZWWDBA8iNcSkxmXWE5QpiHQGbcg+8Ax2AzsJDnFfG6iCTnEDIjXyCAmluqBCCYJoka4ZoF/Ej0Hr+LyCC9WkdelRE40M94Sm5FrGWwG1TXPDISTs/5iiLyJasbFrmvKIBJtokEhzZSLuUCz39Yib7kHr0nguZ9Q3LjMDGAQJWajOc8RuY6myxrxMkhNMzTmPTtoinhKArv1+ZbXTQPaI+UezDdqhTczxqe+3DHLjD6aqMQ3GuA6OiKBDCYkES+Dig55rI7bzpzjkodT5r31td05t0RhbDSAUM81CNY/u4IGzOBJnoCIGRDMyroMEsbQmEeRacBIC/xdX/ikZaFPsgIjObhSs19b5KnKdiebkljh1I45ZpCOvAwBnoH+Bck8yjMSvNr0GoHHhrILXgZQQhvDYx5F64vOZL4pge36NlJf1g0G8FbwSBhsRkI5FnWJbzTCZUnwahOzcv7A58xANBwHKDzmLU/fuKaQJGtzzg2UbRg40Bhv3VBtghOXefJWeJyXLAlebULamggoazKA7dDGMOwHPIpoNic8xk5nnGI5QZnGwIGm4bknar/p24RCAt1BDQBuRoInZkBoNjy5WWS4rgxMGnwO3p6iwQV+LyzwHAZ7z5QroAcjmtFMTjQUzBm6PAaYkWs5jI1Yb2aZoZQD/QuBGucpAtyMBK80S1BT0dEyBqkQrqubM9mBWeS9QbeghYFjsBnYbnKKk7/RgDxH9HyD5BpNsLtlYkwl9ca8aWavCRXa4jnuBdCizfsGd+AYbIYEhwCiJjxG9MMKAbXpTQWecuGONiEaPrF9YaUlAwQP4rXEZMYllhOUaQh0xi3IPnAMNgM7SU4xn5toQg4xA+I1MoiJpXoggkkC0eBXFXQLvCVYeTG2tchbQ4OXK/CxYbV9fk1IlHlm2Gg8NHEKB1DMgIAoeKVZBlFyl481KKSZcDHFtrttLfKWe7M5Nzk3F1pxxi2gx876GwBiUzhVC4iYAfGCGQyRZRDxuLNZKOJVtD7fIY8GxSPltkqRYVt4dLo2EuCOWWb00UQlvtEA19ERCWQwvcsMhkghGh6r47Yz5/hkzq3udufcEoWx0QBoHLxzDfr1chk0YAZP8gREzIBgVtZlkDCGxjyKDorPwesVPGfU1JCgSK6a1UUehTDyYQoimO00CXDHLcytnZhBAHkZimLWrPCYO0uCV5teI/BYLLvgZYD6cd2YJ019JlmO6XxbEW6gayMBhabgLWUyOgeB4k0QEooZEIygONrVpmsCj3p3wXKHUumO4TFveWZzTkkm5zglsUpa2o9MgT/QGE+JLI7gxGWevBUeS2ZJ8GoT0tZEQFmTAWyHNoZhP+BRtPqDgMKnCSgL58J9s1koG+aqzAAzvF2HQJ0ciu5PlUYDbkaCJ2ZAco1MhDxlYH8PHm/RxI3DYN8kjppNF5RhCiKY7TQGmJFbcThNhMFmaMcO9C8EapynCHAzErzSLEFNRUfLGKRCuK5uzmTrV5ZrCw6m4ga6NgwwI8+Bw5bDsyWodYoFPkVSSyk90rG6kFkTvGDmSCAajlJb9jFveWavCeWezLnwlkuL6zHwnYa4JCTHYDMGmglPtWZ84IIJYeJlUNEhnzqczSdlgORNfo2nI9ETAVHMl6rAY76kGTgGm9FFrp/jWCvFNzmEy5ISxEDpO6iD2f2StV3gLUHfESW3HfAhr8FmEDnQWOA6r/ksBAFzzCCZeWYkMWsSRxDsAihmQEoeI11TBqFkIw3rIIcnpNh2t61F3nJvNucm5+ZCK864BfTYKU7uJinEpnCqFhAxA+IFMxgiyyDicWezUMSraH2+Qx4NikfKbZUiw7bw6HRtJMAds8zoo4lKfKMBrqMjEshgepcZDJFCNDxWx41mYsCxAjSr647k0YB4tNzbnXNLFMZGAwjVXINg3XbQgBk8yRMQMQOCWVmXQcIY6vm8wJ+Nj0nmK3ipLKkhQZFcNTiqGc2dTDQUzBm6PAlwxy3Ibo4ZXBL3GeqA/gVpAsDNSPBq02sEvm8FyIZHDW4Mj3nS9I1TrO3WXhMqYpUsjAyGBSs0BY9ig81IqOQDXeIbjXBZErza9OqBz5mBaDhtiOExb3n6xjWF5J6c45TEKnmcWtbbQGM8JdIoHlLiMk/eCo9JsiR4tQlpayKgrMkAtkMbw7Af8Cii2ZzwGDudcYrlBGUaAweahueeqP2mbxMKCXQHZWDKi7SJsNztnLnOA5sF/onwFM1tTdNtPgj2TE6qBR3PaCYnGgrmDF0eA8zItRyGbtwxywxrVo3ihUCqCQA3I8ErzRKkms6I5YD1ZB30Z0HWrPCrP3ipNjfQtWGAGXkOHIae3DHLDBuN9V63HQLADJ7EBUTMgKQe2mDXgeWO9YMGw2PeNHXznIuSbPEc9wKcC/ap1YFjsBka7gBZ7oogA/2wAl+b3mHgMbm7YjkgtflAcF+40YBqEE9CoicCopgvVYHHfEkzcAw2o4tcX1cgNoXrYOjojWSNeBkMkU7sPjR82dhdz34CLPDyV0Jco6U8wdqLscLjiIanv9UdKAKvjRmEgDlmeN+J75yNXowiivLTLpR0UywHTO/QWMP1gHexxUdj/Z+yg/nkApJqoLHabJibYrOziYYiklDaiIMFvpcERMyAQJISpOTMjHnqaRJvHW7nHOcisB/Md+DNREO3NFh3zDIDA5LDXoayBriOjkggg+k5MhgihWh47BA3mokBxwrQbGfOLfd259wShbHRALTN1tloXfGsmiYgYgbEa2SQghnivS3wd8c/2Xf2E+WDTqgDAWsoKO4YHvOkhRdjEM6piJxohEdxlycB7rgVgxLKuTIUxViueEGaAHAzErza9BqBp1q4sw3IhleK4TGPuvU3wGS+KYHt+jZSX9YNBvBW8EgYbEZCORZ1iW80wmVJ8GoTs3L+wOfMQDQcByg85i1P37imkCRrc84NlG0YONAYb91QbYITl3nyVniclywJXm1C2poIKGsygO3QxjDsBzyKaDYnPMZOZ5xiOUGZxsCBpuG5J2q/6duEQgLdQRmY8iJtIix3O2eqo+fgfwa+LlgXeP+gk7SuSk9FFsOwH/Asmk61xE40lNsq5Q6srhm5FYchzh2zzNC0DvQTjRrnKQLcjASvNEtQU9HRMgapEK6rmzPZgVnkvUG3oIWBY7AZ2G5yipO/0YA8R/R8g+QaTTC7AjYc5sHNNAPeNLPXhGK3eI57AbRoS60MHIPN6KOJmvAY0Q8rBNQmRnGxwFMuRoe80hTWF1aajjSbTf5GAF1MBFxEcqVIdgKPQMo0cAw2o4ss5rPRQGwKRzoiQmZNCVokL/C/kRd4TzsONs3Ki4Gjyg1Rbd8BOVRY4EAReE1okDWYDJKZxoxCkzgKg10AxQxIyefMZRAl9zxjDecC3sUU2+62tchb7s3m3OTcXGjFGbeAHjtfkTeANZT68mHYLAx4GvbqewCrzBJQlrGCQjm+y5IAd8wyg2v4yGTkiW80wHV0RAIZTEgiXgYVHfLaG81VE6ucHtfP8cmcW+7Jq0IaFprcindGGBtwKSA5xTmeeYxtkJxQyKwpQWqSPuj0M8UCj6wnAcsdCtQdw2OedBss8lhgUEJqWyUtzccU5I5bIDPHDG4L9xnqgP692wSAm5Hg1abXCHzfCpANjxrcGB7zpOkbp1jbbfiaUC4LEiP1Zd24quBTngGvCfrWQ4CYAYGw4NWmawKfesIcDWf9kDHmLU/fuKaQ3JNznJJwA2UbBg40xls3VJvgxGU+lCU975oAcDMSvNqENDURUNZkwHpgGPYDHoWrPwgofJqAe7A9Zg2bhbJhrkoMMMPbdQjUyaHo/lTJmikv0iZCu0rl8Cma82yBfwE8RdM8JulJwHLHk1n7Y15HNAjnXERO3gDCo7jLY4AZWeNwijbYDG4lVugnuugA4nOK4JVmCVJxZ8RyQJtzXd2c6davcibzjVmoNjfQtWGAGXkOHNZE1JfBZlgh4slLnMIBBDN4IgiImAEBTfCCSfUoQxkkuTUaNE2sCcAgavaasGCcQnjMWZYJfKdJAe6YZQZG4uYAWe4yHXhSz/jABdNrZDBkFqLhpQHWzeaTKkDwIJ7yED0REMV8qQo85kuagWOwGV1kcSXfaCA2hSMdESGzpgdXF3hP2wdTTdkRu/JifON2TXyJxvMpjL+gDsQph5cbiAGnwm0t8pZ78IMg8FjP3ImziYbCkxAR3AIIZvCYjoiQWVOCIfOY5+pznjSr7wHsO3clzfOBqIlCeO4nRTYT4jXMMqOPDmlD0hAAZvBEE5DaBJ0Qgc/Va16b2JlzfDLn1td259wS6Yh5CA77XMjg+lMliWnqGiTnEDJrMhgW+MfsvSteweNz8LjlqOAC0XAcoPCY57yTibS6Ew3V5ga6NhLgjltxXAnlIWUoirV1OvquCQA3I8GrTa8ReMyfXfAyYC0wPOYpV38mWTwZwA/Ss45Iq9TERrfQpMTumGUG5kkOJe5bDxoxA5JzBCKYrslgqA5Ew1EzFjnmUUehfeOaQgWjEqyT+LINA9kwVyskwB2y3BV1Bvq2M49NZyR4tQl1aiKgrMmAjkaigRzwKKQzeMJj7PQsp1hOUKYxcKBpeO5JhmBcQons53sTTUgoZkAggXv4mGS4RfN4fw6+rxPCIIHnoEZ1x/CYJx2MahDOaYicaIRHcZfHADOyxuEUbbAZ3EqssMmLgcVyiuCVZglScWfEckCbc13dnOm2dSWPWag2N9C1YYAZeQ4c1kTUl8FmWCHiyUucwgEEM3giCIiYAQFNCVIsM2MeRaYRGQU2O6JmrwkLtJMmWotYpSmPZGpl4BhshqZ1gCx3RZCBfliBr03vMPCY3F2xHJDafCC4L9xoQDWIJyHREwFRzJeqwGO+pBk4BpvRRe7X2zXFAo9X8NJNagobU2bMm2btxVjhsYXhEm99DRSBp6atb/EK3vpORuds9GIUUQjxZrV1LhEWMHCiVmaq4QwQXMRrHtKszvlgPrmApBporDYb5qbY7GyioYgklDbiYIHvJQERMyCQpAQpOTNjnnqaxFuHq/ONXeSuNNYbmSgoNHXr4SmtO2aZgSHJYS9DWQNcR0ckkMH0HBkMkUI0PHaIG83EgGMFaLYz55Z7u3NuicLYaADaZusU64rnoCBwGyTnEDJrdtG3SZ73H+Qpmju/4PHLLr1Fo1nxmKOCC0TDUZiFjHlKu8GLgQUGJaQ2s50mAe64ZU1GA9viekloKPHkrfCYJEuCV5tauQ3s84R4a8iigRzw3PeEZMEsPE1OlykB7BSQtOyMWWZQI6LzQ3+6hAAxAwKBwSvNEqSCzoDljjdj2cc8iim0b9zzsGBUgnUSX7ZhIBvmaoUEuEOWu6LOQN925rHpjASvNqFOTQSUNRnQ0Ug0kAMehas/CCh8moB7sD1mDZuFsmGuSgwww9t1CNTJKRZ5TLimCbyYAYEF/pBlfYHv64SykC5mRK1sDI95ksFZNAjnLERONMKjuMtjgBlZ43CKNtgMbiVW6E/+ogOIzymCV5olSMWdEcsBbc51dXOmW7/Kmcw3ZqHa3EDXhgFm5DlwWBNRXwabYYWIJy9xCgcQzOCJICBiBgQ0JUixzIx5FJlGZBTY7IiavSYs0E6aaC1ilaY8kqmVgWOwGZrWAbLcFUEG+mEFvja9w8BjcnfFckBq84HgvnCjAdUgnoRETwREMV+qAo/5kmbgGGxGF7m+yENsCtfB0NEbUQ39kvU//CZ/0Amv4Be4gleSY8TLYEg75lFE7NqLscJjkuGSY30NFIHn8TQTVPDWdzI6Z6MXo4hCiDerHXsSMHC9fKxBLc1EEa95SLM654P55AKSaqCx2myYm2Kzs4mGIpJQ2uCzjB3ge0lAxAwIxJUg5WNmzKPIZiEnpXjdrf9QDXk0KB4pt1WKDNvCo9O1kQB3zDKjjyYq8Y0GuI6OSCCD6V1mMEQK0fBYHTeaiQHHCtCsnuOSRwPi0XJvd84tURgbDUCqOa/l+7YbDbgNEhMaiRpf4E87c+9dYIHfe6s8RZND3GsyuwuWO6D3jeExT0oY1SCcExE50QiP4i5PAtxxKwYllHNlKIqxXLHQNwHgZiR4tek1Ak+1cGcbkA2vFMNjHnXrb4DJfFMC2/VtpL6sGwzgreCRMNiMhHIs6hLfaITLkuBtyGsxjwTLHaXpyPCYtw77xj0PJVmbc6vkcWoxBd5AYzwGuEOWu5ItA33bmcd0GQlebaYeYnCQsyYD0p/WA3LAo5Bmc8Jj7HTGKZYTlGkMHGgannuSIRiXUCL7+d5EExKKiZ9kPU+v4O/y/A0W+L5OmF/IGmpQp7JjeMyTDEY1COcsRE40wqO4y2OAGVnjcIo22AxuJVbY5MXAYjlF8EqzBKm4M2I5oM25rm7OdAdmkfcG3YIWBo7BZmC7ySkW+EYD8hzR8w3iNfpAySVEwXsuIAe8aWavCcVu8Rz3AmjRlloZOAab0UcTNeExoh9WCKhNjOJigadcjA55pSmsL6w0HWk2m/yNALqYCLiI5EqR7AQegZRp4BhsRhdZzGejgdgUjnREgMQr+PPTAt98H3xOIF4GQ9oxb6XXXowVHvsfvhjW10AReGo6T0eYGxOGsQ3FrMkhhIWEZmZZ8EpTwMBJ4vAyjjWoXT25UbM654P55AK4h22gsd7ZMJdDKJJ3zrhFaUsNgnXbIRrM4EmegIgZEMzKugwSxtCYR5HNQhHPibHvCclJPI8GxSOFW6XIsC08Ol2lBLhjlhl9NFGJbzTAdXREAhlM7zKDIVKIhsfquNFMDDhWbHPOLfd259wS+dgcopFov3rsT5UUQBPeICkPPiYpC/xj9tIVvH4fPFYIkcF0IoNBDkTDYTrcGB7zLJpMpCWZaKiIVaKUtmNYXHfcAsocM0hPXoaimDUrPObOkuDVptcIPBbLLngZoH5cN+ZJ059JFk8G8IP0rCOSFZ0uAYWm4Kkn7WDAG534FGlzkiXBEzMgkCB4wcyZgWg464eMMW95ZnNOudfmnBso2zBwoDHeutGui3ElcfGDNfM4LxkJXm1C7ZoIKGsyQD3jjmHYD3jWzHmMnc445eYCvLfybBg40DQ89yQ5jEsokfVpkgKGrwldwb+EfsmqC3z9HHyTTrqCQyaCC0TDaRDBddcqgdjpVEvuiYaLUL6uDQPMyK06nAZosBnargP1sJzXhjISvNIsQU0lTYgmSLU7PBJcN2ey9SvLyXx7EcrXtWGAGduYc89BZbMr4wkgmMErecojDB8kog+UXGPec4GmiNcyRM1eExaMUwjv9TSzHAPfaYhTvTtmmTHQTHiqNeMDF0wIEy+Dig751OFsPikDJG/yazwdiZ4IiGK+VAUe8yVN4RSQtJOYYgFvsoM8RzA/WOBDcIgKJgjEyyAGCjPmWQN8EUsJZLe+4GCKQRKDB4rAa02DuEHtQmk6msaMJGZN4jQ8gGIGBETBK80yiOtpCc0R4o2iCkAMONWtz/lgPjGB5R5oAp/kE8dCJhqikhAR3AIIZvCYjoiQWVOCIfOY5+pznjQrCxK2OJhNHgOVmCiE5344xPbSXkhEpsFmIJwc9jKUNcB1dEQCGUzPkcEQKUTDY4e40UwMOFaAZjtzbrm3O+eWyMfmEI1E+9Vj33YKoAlvEHoO/ny9gr8T/JK1/KATVgiRwXQig0EORMNZw2SMeaYnE4kCyj3RCG9SSiq71Jc7bmn+PjqkDRlTZPFTN/PYe0aCV5veUODL7hpem2QY9gOecvVnkobzEfhJuL0mlCtHNnWtG1elxO6YZUaZfT7nEptSxJFsyGuzngcsd5SmI8Nj3kYxm3NKsjbnVinVD02AOdAwLHHukOVuxyPQt90EgJuR4NUmZpVaQ5OJIPMAjQZywKOWZnPCY+x0ximWE5RpDBxoGp57klEYl1Ai+/mea/gK/lX4HPxj9vYLfAgORYMJguAFM0SypuGQx43gumsWkGg61ZokduKxFG+7XmN9mZE1DkMSd8wyQ0s6UA/LeYoANyPBK80S1FTShGiCVLvDI8F1cyZbv8rZ7DWxepZZG8hManXgGGxGzkFe4hDBLYBgBo/piAiZNSUYMo95rw6anFRq84Go2WvCgnEK4b1eSq8vuoGplYFjsBka7gBZ7oogA/2wAl+bkEeIwGNyd2teGmBdX1hpOh6YRb7rmHsw2IwwNpA43DrFD1VMGQLAVM8X+NN4gV/gOXglMYw3QQIRTJD0fI4c86hbnWjUrLxY2MJwybFmB4rA577FK3hkathQCq7bDhoxAxIzhyLRLIO4Hu1xN9YwC3wuapFqrM/5YD65gKQZaKw2G+am2OxsoqGIJJQ24mCB7yUBETMgkKQEKTkzY556msRbh/XJojS1MJhN1lALE4Xw3I+nJUvaD4kyPOBRFNJyeI6UvgNV8MqmMoM5c41YDmgaqQDEgFPh+jmOKQZJDB4q0uSY3Ip3hldK4uTw2DqoAcBFpF/gw2OSOSR4tQnphAg8duMuWO4gZRvDY56E8AYYhHMeIica4VHc5UmAO27FoIRyrgxFMZYrfuo2AeBmJHi16TUCT7VwZxuQDa8Uw2MedetvgMl8UwLb9W2kvqwbDOCt4JEw2IyEcizqEt9ogOvoiAiZNcELZs4MRMNpQwyPecvTN64pJPfanFslj1PLehtojLduKJLgxGWevBUe5yVLglebkLYmAsqaDGA7tDEM+wGPIprNCY+x0xmnWE5QpjGw0BjHnVDT1JNYA57UiesiCTgIH5N8Cd6i0St4/bIxCO7jBQlEMCFh8IJJzWh9ni3zokEhs5ObEk2nWlqYaLgIlW1aDO074xaEDByDzdBROVAPy3ltKCPBK80S1FTShGiCVLvDI8F1cyY7MIu8N+iWNqitOGOWGahJTrHANxqQ54iebxCv0QdKLiEK3nMBOeBNM3tNKHaL57gXQIu21MrAMdiMPpqoCY8R/bBCQG1iFBcLPOVidMgrTWF9YaXpSLPZ5G8E0MVEwEUkV4pkJ/AIpEzmmDHgu8hiPrMGn4O/oFzgReclEcBNkEAEs+QpzJg+Xnk8rk40alZeLGxx+GJYswNF4LUvg7hBgROqs2LTw6JGk90+j/BZFrzSLIMot8vHGhTuzJwP5pMLUD/DV8UaZcPcFJudTTQUkYTShr5awvWSgJSaEqTkzIx5HsWc575Foy23R6AnMy7n4URB6blGVykB7phlBo8mtkZU4hsNcB0dkUAGE5KIl0FFh7z2tjPn+GTOra/tzrkl8rE55OPUgSGSeCQcwFs0F7zUruDPgi8b2xtCXeshOUHIFc1RYNBAxpzU6jI85kkIoxqEcx4iJxrhUdzlSYA7bsWghHKuDEUxlpu+ICxoewoJaxOzUqge2DFUXNCEeNXgkeExT5r+TIopIMlkvq2IVWpio1toGBKRO2aZYYViwvmcQ2wKp8iAiBkQUAQvmLk6EA2nTTE85i3PbM4pydqcWyUt7UemwB9ojLduKJbgxGWevBUeS2ZJ8GoT0tZEQFmTAWyHNoZhP+BRRLM54TF2OuMUywnKNAYWGuO4E2qaehJrwJM6cR5ZLPDhg06uK+ZEMobEwYTI4AWTmqG8AjZcKAkpBqSJplMtLUw0lJ5rdJUMMCOOKA0vOqY2w5pVYzCsJgDcjASvNEuQajojlgPWExoEr8z5+r+eJvPtRahu14YBZuQ5cFi7zXkGPJVNHIWlHFiolwREzIB4fAYpOUNlkBaXeqAp4lVE1Ow1YcE4hfCYrywT+E6TAtwxy4zULTlETXiqNeMDF0wIEy+Dig55akrZ2XySBpI3+TWejkRPBEQxX6pmvAWYkVtxWEdjrVXDwu+Db67g9dskUyYacIN4gUAEs+S1G9aJOgepBAYGxIBT0fqCgykGSQweKAJv9dTAY8GPYRNThurFCAnNbKIolhNUpqhzUCMfa1C4M3M+mE8uQP1IJbHDwXpnw9wUm51NNBSRhDmHvpadRIkgzxrxMohqiRzzrJnzpKlPFqR4gxSTGZdGJgpqgfuQbjSzDsILtVYKSA6PP0MQHQAwg9dmTmTWiZfBkKvmpQDogG9ildPjfl1XsAjV5ya6Vgwww9t1SJNoy3RsT5W8wP8A3KIJXxfczYIkTzW8dJKXmgyGSCAaTrtmeMzrqAbhnIbI/XSCYwUrbga3lTiCopg1OaTjMXeWBK82PUfgsVh2wcsASmhjeMyjaP0NMJlvSmC7vo3Ul3WDAbwVPBIGm5FQjkVd4hsNcB0dESGzJnjBzJmBaDhtiOExb3n6xjWF5F6bc6vkcWpZbwON8dYNRRKcuMyTt8LjvGRJ8GoT0tZEQFmTAWyHNoZhP+BRtPqDgMKnCSgL58J9s1Gox7sFuoFjsBmYMznp/OZbNK+Wp2i6Bb4Pxlw5XdAEIpi5gUxILgEbDjPjRvDs5CbR2snNmQYltAiK+vFZkBlZ43CKNtgMSp81HYeaBgQ3I8ErzRKk4s6I5QDxuiN4Zc4PzCLvDbrVTpEzZpmBI0pOegPoeJMG5DmiySFk1pQgpWdmzHt20IjM+3KLqNlrwoJxCuG9nucmK/CdhjjVu2OWGQPNhKdaMz5wwYQw8TKo6JBPHc7mkzJA8ia/xtOR6ImAKOZL1Yy3ADNyKw5Tp7EvHVa3wO/Fv+iUAjGsAcBtENcEIpglj5lxY52ocxALSAPEgFPR+oKDKQZJDB4oAm/11MBjwY9hE1OGfr5TpOVuoiiWE1SmqHNQIx9rULh6BYOaunmqQzvgixaYN2KgCTwGmDtxNtFQeBI2CYXrJLGDUlOCmFwixzxr5jxpVudbXjcUVxuVGMw36oU3M+aQ9hhyxywz+miiEt9ogOvoiAQymJBEvAwqOuSxOm47c45LHk6Z99bXYM4Dz/3kcB+ICSsIgpzXDHiqlAt8FKjdJZB8OW3watMbCTzWcBcsd7y8acY85dngDYAFBiWkNrOdJgHuuGVNRgPb4npJaCjx5K3wmCRLglebWrkN7POEeGvIooEc8Nz3hGTBLDxNTpcpAewUkLTsjFlmUCOi40N9qoQAMIPX1VAya4IXzFwdiIbTxhge85anbp7TUJLJOU5JrJKW9iNT4A80xlMiiyM4cZknb4XHklkSvNqEtDURUNZkANuhjWHYD3gUrf4goPBpAsrCuXDfbBTq8W6BbuAYbAbmTM6CH3S64KXhFg1ewevWn0M5GHM1iBcIRDBL3uqRIeocpBKu1zdmPKdYO7lRNdFQbW6ga8MAM/IcOEw1qJ9oJR5ZB+phOU+5wM1I8EqzBDUVHS1jkArhuro5k23rSh6zUG1uoGvDADPyHDisiagvg82wQsSTlziFAwhm8EQQEDEDApoSpFhmxjyKTCMyCmx2RM1eExZoJ020FrFKUx7J1MrAMdgMTesAWe6KIAP9sAJfm95h4DG5u2I5ILX5QHBfuNGAahBPQqInAqKYL1Uz3gLMyK04DK24g1fw7x0t8Nh0P2YP9kGRFXaiCdJgYlbWZpAwhsY8ilZ/mqKmb5zy2w5KDJd462ugCLzmMwgBc8wgmXlmJDFrEkcQ7AIoZkBKHiNdUwahZCMN6yCHJ6TYdrc+54P55AKSbqCx2myYm2Kzs4mGIpIw59AxdxIlgjxrxMsgqiVyzLNmzpNmO+e4NTKY78CbiYZuaVzumGUGBiSHvQxlDXAdHZFABtNzZDBECtHw2CFuNBMDjhWg2c6cW+7BnAee+9Gqcmz4pDEuoXSLJizwj1v4Cj6pKXseV8OLm9HglWYJci3aS6NBZjAYDMN+wJMWmp7RTE40FMwZujwJcMctazIa3Bbuk7AH8nz3PMbnFMGrTS8a+D4zkA2PGtwYHvOk6RunWNtt+JpQLgsSI/Vl3biq4FOeAU+axGnKAIIZPBEERMyAgCZ4waR6WgI1DacUw2Pe8szmnJJMznFKYpW0tB+ZAn+gMZ4SWRzBics8eSt8PzUhoDYhbU0ElDUZwHZoYxj2Ax5FNJsTnvueCIhivlQFnutRa7xLAe6YZQZHNlfwusB3aW+nV/LQ5+zkpmGsndw81jQvCOlGBLOdxgAz8nnhMGRzxywzUjFy6mE1AeBmJHilWYJcT1vQjEFqFBgE182ZbP0qZ7PXBBN2bRhgRtY4nKINNqPPXg8rBIAZPEwAW0DEDIjzGQyRZRDxuGMW9kW8ioiqm2cJC8YphPd6mlmOge80xKneHbPMGGgmPNWa8YELJoSJl0FFh3zqcDaflAGSN/k1no5ETwRETd4HwmOuLosBZmSNw/QHP4oreG01KLFQdvvSwHcSRQIRTM+RQWqAISEKHkWrP01R0zdO+W0HuYdTbXUHisBrPoMQMMcMkplnRhKzJnEEwS6AYgak5DHSNWUQSjbSsA5yeEKKbXfrcz6YTy4g6QYaq82GuSk2O7UmoVSzP1WCRsyAWJ9i2LxkzTBQpnHM8yjmPGn6xq0lMiDFYDZZRyUmCuGpVs5sYw6JyJSuh7zlMqEmDgCYwRNBQGoTdEIE3upRlpqXAjxXTaxyelw/x7GLQRKDB4rAYz1zrXhnuCaI+Qr+t+Q5+OfBFXz6oFOZulnoQ7Ygz2jwxAwIRAUvmCEdaxoOedwYhv2AZ9FgIonUJBMN5bZKGsXHVNcdtzQ/yhPKXoZ6zQqPSbIkeLXpNQJfdtfwqMGNYdgPeNKsLjqT+bYiVgkR31LdQlPwGGywGQml/HXbIQDM4FFMQoTMmuAFM1cHouEkucBj3vLUzXMayr0259xA2YaBA43x1g3VJThxmSdvhccJyJLg1SakrYmAsiYD2A5tDMN+wKOIZnPCY+x0ximWE5RpAs/1qDXepQB3zAIj3aI5BhZ4+pN9ptBkGejPoczzoDRWj6IJ0mCCqOdz5JhHHbF9Y5qCjpv8xJ2+HFyEc6XM4Eh7wXAItcZnx2AzkMfNgXpYzqs8I8ErzRLUVHS0HoJUCNfVzZlsfc6np7+0wA10bRhgRpg1aMHh5BhsBrabnOYiBnncggbM4DEdESGzpgRD5jHv1UGTk0ptPhA1e01YME4hvNdL6aW2N+AW6AaOwWZoTgfIclcEGeiHFfja9KYCj8ndFcsBqc0HgvvCjQZUg3gSEj0QGDx5H5CGhSbXDgwwI7WCXxdst2hsgcdg10uqDPRjzjzGN4gnDUQwS16KSy5R5yCVgAaIAaei9QUHUwySGDxQBN7qqYHHgh/DJqYM/XynSMvdRFEsJ6hMUeegRj7WoHBn5nwwn1yA+hm+KtY7G+am2OyYxozMS8FikQ8BYgZEwgJSakqQYpkZ89zlnCdNfbJIf3CAFJMZJ36qoBa4D+km5a4c05mBquSwl6GsAa6jIxLIYHqODIZIIRoeO8RtZ87xyYxa3cGrEnjuh9ryXcNHTbfAL/IcPMVYoObqgOZN0PDiZrQHSz52KeVdB5Y72hwdGR7zLBpMpGaiJBON8CjnehrYAs66FTUJ5VwZimIq0r93mwBwMxK82vQagcdi2QUvA9SP68Y8afrGLZ4M4AfpWUckKzpdAgpNwVNP2sGAJ03iigDge0lAxAwIJAleMKmelkBNwynF8Ji3PLM5pyRrc26VtLQfmQJ/oDHeuqFYghOXefJW+H5qQkBtQtqaCChrMoDt0MYw7Ac8img2Jzz3PREQxXypCjzXo9Z4lwLcOQifg/9Z+aATXsHrAm8JXCvZMtCfQ5nnQYVGyBRNkAYTFD2vGZgZ86gjtm9MU/BxwwVFKuVY9LgI4Z3GADN0RJzHYU2U8yQeKQfqYTmviTISvNIsQU1FR+shSIVwXd2cydb/9bS24GAqbqBrwwAzwqxZmPRS5PCwVtxcxEiKmB1iUzhJAiJmQLxGBkNkGaTFfRaKeBURNXtNWFD0LhmER68sE/hOkwLcMcsMqRUqEDXhqdaMD1wwfRQZbCsPBivwbD6pAiRv8usI6Uj0QGDw5H1AGhaaXAsYYMbSLPCPTX/ww2RmdJm45xUeB9xJFAlEMCGveBnkemGvMoLCbvWnKWjXFxzsomgA6xg8UARe2zKoiVd+DKfIjRaclIsKhBylKWDgtC+HxhquB7xI9i76h2Py/KzPedZrD3kIA401yoa53FxI5YxZZnRiLp34RiNcJ9HJCPKsGQZK5JjnlHOeNCsLEhYazCaGy+s5UVAL3Id0w3EWq66zZpnRiXn8iW80wHV0RAIZTEgiXgYVHfJYHTeaiSaWGd+vn+OSx0PcstyDOQ88BpmrGQxgg37J6lfwuMDrVxWYkpO4K6k6oFl4Gl7cjPZgyRcjcR1Y7ugw6cjwmGfRYCI1EyWZaIRHOdfTwBZw1q2oSehGc96/d3MOTJKR4NWmNxR4HFF2wcsASpZb99627IZ1/bBDDl0OPuggQPYue+CprJtu3bPcBtxBu3bTD9X1N8BkvrEQ1eYGujYSUGgK3lImo3Oa8xt53EJCMIPHdESEzJrgBTNnBqLhJLnAY97y9CeLprD5HJRgncSXGgPZMFcrJMAdstwVdQb6tjOPE5CR4NUm1KmJgLImAzqaDeccggfxlIjoiYAo5ktV4DFf0gQHvw/eb9F8Pyzw6TFJVzb5ZLDOU5HstmWpi06irQUimJ4jg1SfISEKnnqi3YCkLLCDs2iqIHKiEd7qad4EeAW3sHYpdjjxKeH6giPynCJ4pVmC1KQzYsnhtr17aXG/99F3Xh5y/L2WU4+/93LfO90VsL3LJdddvVz4ucuWj1/12eWy665Zrrnpy7TQH7ybF/s4+mRv+JrIEFNoNXneO0jNMcOhLqFriMqu1A0gmMEr+a6ERvSBwghR8J4LyAFvmn61lP7gQLFbPMe9gOVLrQwcg83QcAfIclcEGeiHFfjahDxCBB6Tu1vz0oBMl6sVj0eazZkEuOGMW9xQYa8Z1jS5NiAAX8H/Nj8Hf8fve+yy9za9gs9hlsCMJpO408mWlF0KbS8QwYQo8TJIFRka81wS+CKWEshu/aoSUwySGDxQBF5rGsQNahdK09E0ZiQxaxKn4QEUMyAgCl5plkFcT0tADrwJcxvsD4XF+oknPXB59oNPX067+4mmiMYl135xueCyTy/nf/Yzy4e/cNnymWu+SLGowXOmnDkgQnsxXRjCQGOBbJhLBWMqZ8wyoxNT4PQcl9iUgqO8aKkpwRA55lFks9AXtrrbOse5SKxkec2g2txA10YC3DHLDCtUpTUsnABkpnBSBaQ2QSVE4DHU3Zqn9KQD3sUKp+PanE95y22vbsrttVloclUBwAu8fNDpGLyC11s0Se0OWe5Kqg5ori4bHtwGgTyCBCKYzmPFTAQXiIZDOW4Mj3kWDSaSSE0y0VARq6RRfGRYMHfc0vwoSSh7Geo1KzwmyZLg1abXCLx2h7djcCbuf9fjlxc//LHLY098wHLIbrwts75dDlf1n776yuWcT398OffSTy1X3nj98uVbbkm3cSzLbJFHEfXGDTZtNgMuNCnAHbPMsEKxLbPdCAFgBk8kAREzIKAJXjAx2F2w3JG8fGB4zFue/ieU56Ekk3Ocklglj1OLKfAGGuMpkUaxOnGZJ2+FxyRZErzahLQ1EVDWZADboY1h2A94FNFsTniMnc44xXKCMk3guR61Rjt6TPJnYYE//rTH7MUFnj7opHzK5k6TT9TOI9CfQ5nnQWkhPYomSIOJWVmYQcIYGvMoIrZvjHPqfsMFpWiBM3ARsjuNAWboiEKsNaKGazxMOAfqYTlPAeBmJHilWYLLLbfduhwF99m/7Zu+efmRRz5xudtRx1iv+2LgD4kv3Xzzcv7ln17eCov9R6/43HLZ9Vcv18ptnIPwtcCBbfiaYO3QMbdigBmucShFDuCkweSrcw6JUi4MioiQWVOCIXLMe3bQ5KQUrzui6uZZwoJxCuG9nmaWY+A7DXGqd8csMwaaCU+1Znzggglh4mVQ0SGfOpzNJ2WA5E1+jacj0QOBwZMfA6RhockhMV3B/8etLPDYVcykXdKRd/2YQ4CYAZHInsianteSzIx51K3+NEVN37iW4COUGE61lB8qAq9JDULAHDNIZp4ZScyaxBEEuwCKGZCSx0jXeBDektkDi/vJcNX+Aw995PLMB5y67F6bK0y24Ya3cXCxv+Czl8htnKvgqn4v9wJ18HXxvkJSA9d5jDL5xDGNGZ0YgWKRDwFiBoRiUgelpgS5XtjngUhqONgs9IVNtK1zHLNQbqtkec0Q3qRGgJH6cscsM/poohLfaIDr6IgEMpjeVAZDpBANj9Vxo5kYcKwAzcp7Zcpb7sGcB5774ardAq9/8GO3dhXVhFkmHry7EtEBzZug4cFtEMgjSCCC6TxWzERwgWg4lOPG8Jhn0WAiidQkEw0VsUoaxUeGBXPHLc2PkoSyl6Fes8JjkiwJXmHiwn4r/G7mqEMPX779/g9aXvTws5a732FrV+04ok22y6+/ZrkYbuP83ac/tpx7yaeWq268YfnSnpuXvbDg69M4XR7qnQcQhsGyBBSagsdAg81IKOWu37chAMzgUUxChMya4AUzVwei4SS5wGPe8tTNcxrKPTnHKQk3ULZh4EBjvHVDdQlOXOZDWdLzrgkANyPBq01IUxMBZU0GrAeGYT/gUUizOeExdjrjFMsJyjSBx3r0HLxfwZ8J3wePb2fedmqR78+hpjVwGwQaECQQwSx5aVsi+3jl8Uhs31iUgGg61ZpEO82xXoTw3DtABpjhkMVSaBS7xsNE5EA9LOcpANyMBC+YuKDi0zAPgKv2Hzz9zOXb7vcgWmC1s/19xNs4N8BtnAsux9s4H1s+duXn4TbONXAb50vLwbsOon9BpCsf6p0HEIbBbRpQ8Mah1B23Etw6zUUM5sAtRIMZPKYjImTWlGDIPOa9OmhyUqnNB6LqEyYKxik4AWnLMoFHUdIMHIPN4FZiNFETnmrN+MAF0zvMYOhbiIZPHc7mkypA8CCe8hA9EBg8WZtIw8Jugcdfsso/ipeNF3jsygpTix3QjzkEiBkQSdITWdPzufqYR93qT1PU9I1rCT5CieFUW7MDReA1qUEImGMGycwzI4lZkziCYBdAMQOS+L1A4OKOjzPiov5DcNV+H3j08Su9fQZu47z38ovhNg4/jYO3dfAHEG74Uvnrtdmcp/EPHIPNoGpUM+76UyUEiBkQCQ1IqSlBimVmzKPIZkFkUjQdfM4S7A7EWh5H3aLcE4XwGNC1kQB3zDKjjyYq8Y0GuI6OSCCD6V1mMEQK0fBYHTeaiQHHCtD0J4tSdJzylnsw54HHWzTv0yv4Oz4XruDDY5L7vNBbYu21A+hNqGw3/SAvIlgeiGACF7xgYpC7YLnD+WTP8JinPCsvBuceTDYlsF3fRurLHbcg1hwzMKGWJdt3jSa7GpXkWbKLF0xYM08+9m7Li7/1rOUsfEKGPrjkYbcHS2/j0NM4l31yuerLcBvnlpvp8Uu+jcOXKHl8cQqccSvyOEpnzDIj8+QlDhHcAghm8JiOiJBZE7xg5sxANJwkF3jMW57ZeU65J+c4JeEGyjYMHGiMt26ofYITl/lQlvS8awLAzUjwahPS1ERAWZMB64Fh2A94FK7+IKDwaQLuwfaYNWwQygs8PAePT9HQAo8fdJKcusBjyMZX810/GejPocxj7QaB6oIEIpgljz3jxro+nlneE9s3FiWQaO3kRvlEw0Uop3Tj+Q0wQ0fMGoephgYabEbHND9Qe54QiNcUt8AP+CPxCZn7ffPyo4960nL8Fp+Q0UoH4oi/iL3h5hvhF7QXL2+Dp3E+diU+jQMfqroZb+McbLdxdIw6Zu6N0ZpDhTNuJbh11uccEqVcWCYiQmZNCYbIMe/ZQZOTUrzuiJq9D1gwTiG819PMcgx8pyFO9e6YZcZAM+Gp1owPXDAhTLwMKjrkU4ez+cQMKzwWG64q1tdQseBjku/7j7LAH/N9Z3bPwesiv/ECj6Ozwmmo6hRvgBAgZkAkrieypue1IDNjHnU0RTmhhttxv74YVtuMPI0Gm0F9mWcGwskp5rvRgJx+kXqrPCHzsEctz3zgqQf0XjsNZod2n7nmquW9n5XbOFdcvuBtndtggHQOw1jt7WDTxIa5zfTE+TSNGZ2YRtG/b0OAmAGRkQek1JQg1wv75uWX3NW4jTJjW+c4ZqEWbYYtrxnCm9QIMGR4DLljlhl9NFGJbzTAdXREAhlMbyqDIVKIhucxyJwPOO4QyAlPmv5k0vQhtp7z8QLP1S3RPi/0XdMZ6HvOPA66QaAXQQIRTOeb3rMLETkIadoYHvMsqidSUkjuiYaKWCULCw0Ixhp03IpOQlmToSjGNMVCz59GvRUW9jschk/IPHh58SPwCZk7kv5rYUe3cWDBPwefxrnsU8sX9TYOXPUflL4uwSfPLZy0OAvumGUG6pJTzHejAXmO6PkGyTWaYHfLxJhK6o150/RvUIqnHRWanOOUhLvhvYd6PImyq7IU5A5Z7oo6A33bmccJyEjwahPq1ERAWZMBHc2Gcw7Bg3hKRPREQBTzUUW3aP6TXMEfDVfw6YNOmFnUusAjtPHVfKyEgZqMbPBWeJR3EkUCEUyvkUGqyJAQBY8igvvGKN52wA/CWcJJxhrhUdzlMcCMrHE4RRtsBrcSK7TD4u+QWegJmX8Fn0bFBX4nn2vXDm4PRxzr9TffBL+c/TTcxvnE8nG4jXPxtVctN9xyE/wiGZ7G2Y2vKZ/ZaQoHzgBOrwmOu51znosQDWbwmI6IkFlTghTLzJhHkWlEJkXTgai6edaxIHaa4pmwSplDT+KVYKV4A8dgM/pooiY8RvTDCgG1iVFcLPCUi9EhrzSF9YWVpuO2/vVkfeW1aX2Bx9ISrIv8xgt8iKUR0M46YS+7gAVAzIBImp7Imp6XQMk+5lFHU5QTargd98eL4cnV8ibcAs4cMyjAPDMQTo6d3Ljg4RMyT4EnZF70iCfQl4NRkq+T3cVwVf+eyz61fPDzly0fwds41+GHqvS15zeJzZwZeT4NNiPzOpX9+zoEiBkQCQtIqSlBimVmzHOXc540fePSmxwgRV5OMs2n3kRBLXAf0o0nSIA7ZpmBIcnRsp6LrKABM3iiC0htep3AY7C7Yjkgufmwtq6s8VRr9ppYXZ/zsMCfsfdo/LIx+S6atIhTZu91nxd6K6w5MtD3nHmcwQaBRIIEIpjOY8lMBBeIhkM5bgyPeRb5RJLf7ijJRCM8hnG9kCAB7rgVgxLKuTJkYnykEG/MPODYu8PtmMems45kAABAAElEQVTfbp+QCTOxX0383vrPXn/t8omrPrf846WfXM67FL4bB27jfHkPfjcO/BCUrzimJtKcumOWGahOjv1gzYMJGjCDJ7KAiBmQXCMTIRcQDWc9wA80/N3LbbvgwQo0mg0vYuA7P5ddeCur4cwlYnKOo1De4GUOA9kwVwskwB2y3BV1BvZ9XQnxtYmD0c5GJmuCzAM0BMgBj1qazQmPsdMZp1hOgM/Bv49v0eACP/mgE1emXnWBRyf9IEhNuRPqUTzvnEd/318MiupSNVk7ngGdX1HnIJXwa9A3Zjwam1zJT18Oqs0NdG0YYAb3pB04jJ0o6pZDxOETMkcdchg9IfNvz3jyV8UTMjaoA2DobZx3XnrR8i5Y6D9+1eeXT33xiuVG+D77Q+E2zi64jeOb224BO3aKcxyzhQAwgyelAiJmQDw+gxTLkAfhDzP4mQWPwd5Gn0y+w6GHLXc89IjlmMOOWA4/+BArjhH4fUP4AbOr4QNl18ETSnvhfYDfDUQLfvueoBKTJUd4bEq6of5sF/hOkwLcMcsMzeYAWe6KIAPtUFKHQRpMyCNeBhUd8qnDvrDSdNxkXRnOuPUFr5kt8KfKAo+PSUqrafHW8hKsi3zSWGIUu2OWGZm31IlvNMJ1Eq0TiGB6HxmkkgwJUfDcARADjpJghZUXC+M3eTHKMgaakdsx2IwwNmyOL872yBMyLzj1DH5CBq7K9vf2hRuuWz75xS8sD77bPelrDvZ3vZ3Oj0/fvP0zn1jeeck/L+dd9ml8oZtF2ufcLDOwm+RQe/2pEjRiBkSGFJBSU4JcTzLgwn7brr3LMbCg3+/Oxy4n3fHY5cRj7rTc8w743zGAH27t4rmKP9Su+NL1cOvqi/Sd/p+Gr3f++NVfWC6/4Vq+qMO5kNxaqEEiK7knCkrGGVNezJIAd8wyoxNzaOIbDXAdHZFABtObymCIFKLhsTpuNBMDbhOeNP3JhDBvkhv/4Mf76QoeF3j4oBP+wQ/8FGNUdUuB8bh4sJM0gY/TR3DisEoG+p4zj/IG8RyBCKbzfbmQq0yMEaIZ8yyanLyWZKKhhrlr3lNW3iXAHbdAZo4ZFHsrXIndAd68T33Atywv+tbHL/c4ev8/IYOfgD3nk/+0/Mb5b18ugV9kHnfU0cuj7n2/5fEn3m95ECz2d4BFBq8Gv1o2/PDUGy764PLK8/8BrmZv4t5T++6YZQaOMjnNDwmdhaABM3giCIiYAck1hMC7Lvj6H3bQwcsJ8MdYvv2kBy2PuueJ8C+3o5ejcUHfh+1muEC44svXLxfBD+y//ucPLxdeeTn80vrGfEVPdSfnONaT1z33Lo0YyIa52mcC3CHL3TYZ+f3p1gSAm5Hg1SbkrYmAsiYD0p9E940Zj8baDwJsYTbj+Jjk+//T78AHncICj4l5kffO0gLOlXFvCzzaSeOhwLhDlrsYBlsG+jFnngfFkb4XTZAG02tkkMIZEqLgUURw3xjF2w74QThLOMlYIzyKuzwGmJE1DlM03m7YA/898Njjl3/98Mct337ytxyQJ2TwfvZrPnTu8ocfeA99x/tBcFsDe8F/5eD03e/Ox8NCf//l4fe8z3LyXY5fjoXF5qtl+4uPvnf51Xf9Hd2+wKdufHPbLWDHjq5znoKsEABm8EQXEDED4gUBxDnH/33TnY5dnnHSg5dn3P9b4AfrYU29rbl74Fbfez/3meXPP3Hhcu7ln6Y/yYi/sKeNGpq8D4RHbe6dwxl0xq02wBmzzJBcoQJREx4j+rd3CKhNbyrwlAt3tAnR8M4CMeBM0zemFB8pRZ1kuMBj5OqVPIok705fyVPq1HNyrG5Gg1eb3nDgwzCYbzjkcWMY9gOeRZOTmwSYaKKx3ANN4C2dGnDE1wzf3EfAPdXnPOQRy/NPfQx8X/v+X0Sx5t987P3Lb7/3nfALy8/DVxvQ3VocLHcnB7z/e+OePcsRBx0CXzt8N/rvjHt/03LGCfdb7nzEUWEktz8TF8xfO/etyx998Fz/YWmvB/brjllmZF5H1793Q4CYAUk1Qrlowuu/0GL+XQ94yPLdp5y6HHfE/nn9caH/x0v/efmDD5+7fByu7HEsdtbOznGbClPrdPDRBsyGuapKgDtkuSvqDPSazONENgjkCUhtuibw2IC7YLmDlG0Mj3kU0kwN4ikRhfcCfIrm/T/3O/0VvFZfXeRDzp1e5KcnP4+6mDNpKPQVTJoqHVsb7Dqw3DG5lOQcA57E2zm5rQgX6MokwB20+Eu39i6nwBMyP/TIJyxn3feUA/IdMp+H+7K/Cwv7n33kArqFcfjBBzfTJ32GA/5AwD/GfSusRnc98qjlbkcevTwSFvqz8DbOcXAbB37xd3u8jYMfnHr+636HvvPGZt8Me/H4NKA97AY8qRNXBADfSwIiJh7wlgx+l9SJcNX+w6c9bnkk3I7BZ/z393YJ3Kd/1YXvWt568cepFH2WgvoaLODakLzBw2iUCYNmttMkwB2y3JV8Gdj3dSXE1ybUqYmAsiYDNl6C+8aMR2Mri/zqAo+J98ftGhunGVgJtwz0Y848yhvEcwQimCWPlXFjnahzEAtU0zdmPBnAD8JZR+REIzyKuzwGmAFfAopPyBy6PAW+r52ekDkAn0bFmu+4+BPLK95zzvKRL3yWPhkab114d261g0EGF3tc6O02zl3uBgs93Ma5x4nL/cHGe/i3lw17fdk//PXy+k98CP5EYbwtoR36WN0CbuwUtwYwVwgAM3hSKCBi3nzbnuWhx957eemZT13uc8xdRHdgDjfDD+vfhkX+//2n90JBfi256S2e49g2jcvH6ZZyKMLNGbPMYEWnmfCUccYHLpjeRwb77hreOwRiwJlmdd3BFJ4kLfBHwS9Zd9NTNJrOj6tX8iiVvDt9JU+pvWcvhARuwiWJgoFvzFFgiISMOSmmoI3hMc+iONUS2B5mPwis9iAP8HjVdgu8ZqfD1doPwdcMnAnf/Lh2DrQtbMXHX7r9wfvesfw/73kr/MvhVrlStIbTvDkqlgNW2iH4Nkv4Pki8jYP/EjgZFnj8C1Jn3Ouk281tnD+G3zH813e9mX556X3DUAaOwWbgsJND89C/bkEjZkBSDvzX2+Pvc//lR04/a7nX0XeifAd6hz/8/uLjH1he8b630y937emy2TmOTdKgxuc4j4NHnsevsayIcyoplZBjju41mce+GiQXDGQwXZPBkAuIhtNGGR7zqKOZGsRTHgpnQVrg7/Dcxyx7b92bf1mqleG4usiHoju9yE9PfuyRBhWaJVMaCn0Fk4M0JBNh/oFouBwy5rmFwYmbkkw0VJsbiG3oExL4HTJPg1+gvgj+NuqBeEJG28aP/f/0m/50OedTH1mOPPhQgUOHtQk6IQKPwdmF+QAA/zIBLvS4cNzl8CPpSv7R9z5pedx9TpancQ7/itzGeS3civrP73gjLfBd72kg7phlRhc5+MEcAsAMHiaAbRf96+30409YXgJX7vc4AP9y47rj/R/AD8BXw9X8Xngskz4iRU1PznEaBo+sHx8NUYoNNCnIHbLcTTnEKea8CQA3I8GrzdhwCg5y1mRAW+J6/YJnPBo0m4N4EgKHmrzAfy8s8PDPbqTSEzEUwbudu13j3ZllhhbMQD/mzEPb+P9mEyQQwQRtz2sCZsY86ojtG9MUfAResmRcPU4y1giPcjRxwdsDv6z8ZrjX/q/gqv2pJz/Ef+mnOffzERf4l77lz5e3/PNHbKHjkmGkpVmCFOqMWA7IbZzb4A3J5+b94ar+sfe5HzyNA7dx4Mmc4466w34esad/zUfOX/4LLfDw4SDYQptDZxMN5UpCSp8rAB8l+IGk+xx9l+W/PPFfLifBvffby/ZL73nL8lcXXQi3seR3ANT05H0gPPYfx2fjCXynSQHumGWGZnOALHdFkIH+7R342oQ8QgQ+913z3iHwTaxyerR/ISnQHiH+IHwOXn/Jegdc4PUWDZCjDyivXsljIWlup6/kKXUaeHKsbkaDV5vecODDMJhvOORxYxj2A540/VlCsWk3+0EAuemXaLC4HwFXzPiEzAtOgydk9vPfRk39BYcW+DfzAn8o3ErBLQ8/eKUpYOA0vUNguaM0HW/Dp3HgNtERUPt+cBvnAfDIJV7d09M4cLW/P7fXfFgWeBm3NplaHTgGm4GdJoda70+XoFETzoXD4Q388sf9i+XR9/qm/Tnkfc599U1fXl72jtfD45SX5IuP2TmOVWhsgx8EOm6ZL3O1uwS4Q5a7os5Ar8k8lmwQbZbzBTKYrslgyAVEw0mDAo951NFMDeKRx8ckP/Bzv8tP0aQFnqLXruRJhLv+ij8U3elFfnryS0uhPPVnsxiIYIImeMGUdJ6j4YTY6MXAfw8OwjkNkbXGn5C5x/LDj37iAXtCRsfXHtMCDx+kwYHlsQWvNiGlEIHHOtkFLwPWCl6A0G0c+AWf3sbB5+ofDffrHwf3o/lDVTt/G2e0wHe9p77dMcuMLrK4ddBoIBb/EPr3P/hblx99+BOQvN1tH7nys8u/e+tfwDd23uyLPI25PsdtAPIGT9OjpIFsmNvxCDhLlruizsC+ryshvjZTD6GdYEpgiJfm6EBw31iUQC5QDeLxFs1kgcc8a4u8Z+5u6wilCzxmM42HUQ3kcDPYDMYDw7oVvh6zBIXYYHr1DHK9sPcmCbQdha28GFtZ5G+Gf4bjd8g89eQHLz/2mKcsx3+FrtptoGB0CzySMAF56oJXmiVIZZwRywHidUewzDku8vicvS4f+Avax8JCfzp8qAqv8I89cmdu49gCLz/YuBduMLU5cAYwpEnMdJHfA+fEKfA5gl964rNut98phJ9o/q0PvnP5XbgnT39CMb9ozWiV1GngucgzIhoCnXFLYzWXM2aZMdBMeIzo394hoDYxiosFnnIxOuSVni3gpukbI2q+wFv0N27X4FT46wOWOzpLdGR4zLNIl6AUmh15wfCPcZx2z/suL37k45fHnnQylB0UztH73SsXeKwq7eUug1eaZRCNweVguZPGx3DP24eq4ENf9KEqWOQfda/7Lo+Br0240xFbv42TFvgwZm7KuvEeU9/umGVGl4xytO9dWDdhodm1vPysZyxPOPEUr3M7tL4AX2/wU+f8xfLJa670x0q1TxhDGrrieiRyoLFANsxNsb0jKZWQY47uNZnHphsE8gSkNl0z4wMXm2QY9gMetTRTDb/ZAk/Ra1fyXAL3dpWODm6hqF7NJ03go5jgxDXJMPUKj7U7iSKBCGZuOBMayZqGw+5wYxj2A55FgxMXSHr0Ea7Q8Fv+ngGfRnzxo56w3P0r9Ogb9VrsfIH/8HIofCo1bd3Qw0TUJoQLEXjMmV3wMmBlGe55xPHKHr88Cx8fwKdx7n3MnZff/s4XLIfhNyhuYesWeMxhfZnhUOKzY2ozMk9e4vibHk++892W//5t3wMfEtuZf5Vgnf21/Y/z37r8KXzK2b7OQAvRuMbvA5LJG7yZAs5gIBvmpvy9Q7q5eAvrSkhYm9BITTgqlgPaPB0J7he8RgOqEL8PCzzmWVvkPXNawDmUGtnnBT7EUgLaeR2iswtQA4DbIK4JRDBLHmvhxjpR5yAWqGblxcCzqA23J2SOu8fyr7/1rOVppzyUrtYs8e3EyAs8/pK1GQm4GQleaZYgjdYZsRxIs0Hwypzj1w3gl2+96fn/J32dQ0qwoVMu8BhrfbFhbuKys4mGIoIQz5HnPegRyw/Dl8d9NWz/fPUVy0+e8+fLNfCL1+7JDxpX/z6wcQlPc2BgMALfacKchRenfZnaZOQ3aUWTEs5/CARpMCGPeBlUdMhLA6CDwCZWOT3GOU4L/JHPOWPZhV9kMdsg+TeerolzPJ5wfh3GPE1zWOTxjYuLz3Phj16fffqZX7EnZGYvv3L9Ao8Mj1g16mY0eKUpYOA0n0NguaM0HRke83h2Hwmf+H39835sGwv8ecsvvuNNy+HwWnVtJMC68R4LHkmDzUiox8MPqKPhsw+veOr3wWORdw341kx83PajV3xuueBzF8NXAV9HvxA9Ab5x9MQ73mV59D2/Cb51cme+oOxn3/43y99f8onx5xbC+6AcCc3L4AeBzRkb5mqiBLhDlruizkCvyTy+cA0CeQJSm66Z8YHToeCRYdgPeNYw3y3w8Kv5/qdszE7Ra1fyXAL3a1fynSY17Q5Z7mIYbBnoL94yj/IG8RyBCKbzfbmQq0yMEaIZ8yziD6s8AJ7t/tHHPHl5wkkPPCDfIfNleLrhCFjstrLVCzxmyrOHbkaCV5ueI/B9ZiAbHjW4MVzztMDDrZnX/8CPb3OBfyMs8MVz8N6AdZKgiWPDMaMT01NDD7vbvZZXfsf3Ibmt7bLrrln+EL4oDL9DBr8G+cY9Ny+3wIKPH1zDL6t70LH3WL73gafDp4jvC0/BdO/kfar9xk9+ePmFd/8t/YWsMpDGPFjANUDe4Gl6jMtGp0mAO2S5K0kysO/rSoivTagjROCxuLs1Lw2yrm9MaTribKbHJPEKHhd43OJlPgFxR7XXFnlvtTs1hPrG7RqeVPxa31PvccLy8qc8a8EP8OzvDf+l8NcffT/9taJ/e8a3bamcLvB/e9GH6SsFchJ/7QkHNyPBK80S1FRSSjRBGnsguHgD7MgC/6Hz+JOs9Bz8YFGyvtgwF5scOAM4BeCjkS982KOXF8OXiW1nu/Dzly6//O43LxfBH/HAEdBTLjhf8H/6omGYKDxPDj3ooOXFDztzec43P9wfddxC4Yvhj6f84Ov/EL6GAl+BwUYTMJhPDBHezDZN4DsNcRrgjllmDDQTnmrN+MAFE8LEy6CiQ947hMAmVjk9HnToIcsHXva7/Bx8XOBRMF3kSbCN2zWhsX1e6EMsD6QDmvtjDS9uRoNXmzgjZTmXg+UOa2XPcM/jB3bue6fjll9/1guWE3bgn9ypaOFcdNUXlled+7bldf/0/uU74LHLX336cwvVOhQXeLyt1K+lzUSIm9HglWYZRM25HCx3UuMMZ35HF3gYN9e2Sql+7qvQMCQx7phlBkrYwccj/+dTv3d5BHwR21a3i+GPsPzEm/90ufT6q+k2U84jReWATyLhLdmfeuSTlu88GX4flAeVQyce/tm/n3nbXy4fuOKy9W+4hJMpDb3NS+RAY4FsmKs5EuAOWe6KOgO9JvPYdINAnoCUZgnGKM4RZDoUPDIM+wGPt2gufNnv1Qs8JejfuTE/JF67kvc21q7kUZk0qWl3yHJX+slA33bmcUIaBPIIEohgOo8VMxFcIBoO5bgxnPk98EVdv/wdz1me+c2nsWg/7fGDUm/42AeW/wl/sAL/zih+jezT4a88Ye2tbO0Cjzn2fc7DRNUmZuX2Ak+1GJU9kA2vNMPO7/gCb81YJS3NR+vLjNyqw6B3xywz+Okq/Oj/73/n2csJW/y2SFyw8Tvt/+DD58HtueoWUygoJv5QOQ6+zvnXn/rc5e5HHZPHt6GH3zb5q+eds/wl/JEQ/N1FcbJ4Jqo7WMBVJSdb6FaZMI3MdpoEuEOWu5IvA1+Zc1x6yK3YeAnuGyN+dYFH1fRKnrPnhdlKw0kpvEJpAafkzOzzVXyI1dzhlSWoH3MzQ+A2CMQJEohglrzWZ10frzweiZXG8J/b94e/uPQ7z/7B5S5H7L/H3S6Ffx6/+rx/WP7sg+cvN8MPFPxnNy74+CVl+3eBtxH7FMAEyAwJFrzSLEGKdUYsB7weWATLnO+/BR5LDhYl64sNczkE97I54xZQ4uDifOIxx8IV/LNpwdWofTni99mf/Ve/v3wZ7rdTt5I71dOCAcRF/odOfezy/G951L6US9pXf+Ady29+4J10f59S929Q17NAO3FcLeHRDW0qqy+6+UkzcAw2Q8MdIMtdEWSgH1bgaxPyCBF4TO5uzUsDoAPexQrTl41Nr+BVOV3kUQTJt/x0TWhsnxf6EMu9dkBzsdDw4mY0eLXJA5Zxc922OgSG2F6za/kSvMl+5IwnLz9x5rdv6/5mzB3t2+CJKLzX/qrz/p6+r/1IuWJDDX4l79PgS8q2u8C/+aIPdc/BT09wLC7zkqcneKVZBmE2TcdWiCVSdgzvoguOI7f7S1a9B49XonGjIlopEmCnvgpNwWMGg8G4BT709mj4oygvP+tf0Gckmgobua/72Pvg3vtb6J67BViRUI9IIeCA9+MfAJ8MfvXTnmdh+2r85Sc+sPzCO99ETzFhLGXvT5acFvjQXuY8Sa2xQDbM1SwJcIcsd0WdgV6TeWyoQSBPQMQMSMlj8U6TAZTQxjDsA7/RFbwl2ODF6K7QJXj1C8qkKV3gMSzlCk3HERCcOIzMQN925lHeIJ4jEMF0vi8XcpWJMYI019988/ILT/3u5ftPhV9u7/D2efjbqL8FfyT6tR88D56QgKdl7IuxuBBeDT4NPkS1Mws8LnTN7GS341GeJcGrTc8ReBxNdsHLAEpoQxjPL/xBt62naEYLPFah2txA14YBZuRWHdZEmNE0+Ac9nnzfBy4vfezT6KsriNzH3avhu9p/+8J3ywVFKChmQEJlWOBh5vCPdf/Jv/zBLV+MvPXijy3/99tel3qnev0b1EfFApsDJ4Il8bl34Q1kw1wNT4A7ZLnbJiO/b7sJADcjwatNyCtE4LGYuzVPDakuNLZPCzwVCsGa1I5Ue+2ePDeYFm9NIL3rIp80wrHUHbPMaJKJ27fdBIDbIBApSCCCWfK5eh+vPB6vv+nG5ZXPOps+zBTx7dj4BMTbLvoo3Gt/y/Khz19GfxtVH3GLve/8Ao9de4V+vjNPYwS5RzR8INx0qwkMrmiClGrJDmF8NHT/LvA8lrIFA9kwl0Oky+yoBu9jPwkeof3ZbSzw/+Pcc5bX/NMFYZHW7FBTzIAYiAv8cfCp2d96+g8sd4JPWG9lOwcW+J9uFnjMQ/XqE4bLsEDb60sLb7laReA7DXEa4I5ZZgw0E55qzfjABRPCxMugokPeO4RAiU0L/BHPfvSyCx+TnE02pl/hMfk3btfYHPML0rxY+GJcRwv8C5ann/IwdLe9XQb32n/jPfiEzHuXG2/ZQ/faKanV9n/u0gKPt2ieto1fsv7tny1vhsck9euCeQBWjEtnF7AGEDejwSvNMigPFeuEWO6Nf1GJt2je8Pyf2Ppz8HAF/4v/CM/BN/8q0hreCDfQtZGAQlPwmBN/Z/Og4+6+/Ncn/2/wO5ut/YFyXNxxkae/m2oNh4K1CbdoluWkO951+b1nvsCi9tX4//7p/OW/nffWct6p7Oq64udvWZuTVC97OBd4gGGYnCoB7pDlrpTNQK/JfH0qiiZIgwl1glebrAmcNEcHhvk5eLsHjws8fdAJJSuTvb7Ib3Ylj6XSlTrVxh3/c5qtRpMG5Q5Z7kpoBvphZX4nXwxswLOD5Q71tlMLPF61v+UTH15e8e5zlg/DVTt+5wc+15w2qs0N4H4nFviXwAL/lm6Bx6p5oPs+5yG+Nr1G4IvKbSswU/BJ1h1Z4N9A32XTlMcWfCOSFZ3OADPyrDkM+djB1+w+8D06vwZPs9xti3+n9kNXXL686PV/VHyiNBQUMyCwLOxdvgsuRP7dI5/s49tHC3/J+ir4JevhMP/VRvX6k8WlLMjz5CxbEh97N4mBbJirggS4Q5a7os5A33bmsemMBK82oY4Qgcfi7ta8NEi63fAcfLfAW5K+a42l43SRp9qbLfLNUsQ1pPev5ds1O7HAX37t1csff+Ddy+9f8I7lS7feQlfto3898ZnBE7sXFovv2OYVPC7w9EEnex48nh7yAgJUn0bO88kUT1xEAl+aJaip6Gg5gnRHF3h53C+kl7q5PPZRagxkw1wMLxz8Redd4cr9N5/xvC3/ab4b4PcxP/mW1y7vhw864dNUeQtFxcQDfu3voTDWX4V/OTwUPkW7lQ17f+V7/375ww+dvxwGz2aPNipbnzAcwoI8PTGZ8AiRGTkDnXGrDXDGLDM0qQNkuSuCDPTDCnxtelOBx+TuiuWA1ObDQfgc/M//Pj8Hr1fwqqCYviul6Thd5FEBSUYLzqa/eMU0+7zQdwPugGbhaXhxMxq82uQBY8OBzy4Qwm13gf8C/CL1x//qj5ZzL/0Ufy+KvlZwbMpjC7wJwY9JPmT5lW3cotEFnj7ohNm7ohnQ9qSTPkDkTVQpd00ZRDFJI86OL/BYaTbfxNtuZYq4Se8bc2OsbrsWvA+PX1PwrfCnCre6vfdzn1l++pzXLdffciN/gjUlCgXBxH8d3gq3bZ8Hf1jkxaed1X8jZIodO9fC7ch/D/ffL/xC+KBTKBUjCe5PlijZeM7LEgayYa5WSIA7ZLkr6gz0mszj65mR4NUm1KmJgLImA9Qf3YP/+d+rF3hUUMzKZK8v8ptdyWO97mpemtYFvtOkQbnDfaM6bs4j2g8r8/2LQVGcMEiDiVmZD1IFnAEL/r/dBf6iKz+//MCf/AblSfdUqdB8kd/pBd6G64OUYWdg3+c8xNcm1BEi8NaPdEEa4PfLAk/FJvNtzXCDTZvWfjB0RNx9CMBbJf/m9MctZz9s609e4dX0q9/3j/A9NOctN8EPDLylF0pATfZQh7eFTr/7CcvLHvuMbf3BlEuvu3r5P+CrCvBrm/k9DjVyUR6r7InqTxbXsGCWAvJzgbKMgQON8VjSHbLcjd1ab33bTQC4GQlebXoPgceC7orlAPWzusBbkr5rSqC76SJPRTdb5LsF3hrYwlV8iNU+45QQ3UxIy+MMdhJFAhFMSCteBqkFhniPH99+JXxFwVZ/yfpJ+NqBF7721cuVX7q++aWZtjBedPg5+Ifu2BU8zSWNUGurkxh9z0WyD4DpyVMXvNIsQarhDFv4r8YduwffPQc/nm8f0EBjjbJhbp4++oDa4084efmlJz+rmcN9d18Lv4x/zUcuWD517ZV0/uympRd/BC70R93vdNiR8KcPT17+zWlnwq2h7X0QDx+RfOnb/9q+bMxGmQaax0DUbN1hgU9tDpeTyCq1bOKRTK0MHIPN0LQOkOWuCDLQDyvwtekdBh6TuyuWA/xBp9kVvHTHSfqulKbjdJFHBRRurxU0wdfj7ZrrbrqJF/gHbu0pmukCrxMLr1l4vRXlX7LCc/C/8rTvNWxfDPyqgpf87Z/SPfjDmj/4QfW6ohnoT6XMa9MZDV5pChg4HZNC+C9BfA5++0/RwC9Z2wUeiw3mW/vgcXE32lPm1Cs0AOH9cPwjH7/7zLO3/CSNVsDjxddctZx72aeWc+G2zeU3XEPtHQWPkT7suHstD7/Hicupx59Q/EI2ZtjM/oV3vnF54yc/ki5E0gjZ6ZIR3J8sWbfhnJclDGTDXK2QAHfIclfUGeg1mcfJzkjwahPq1ERAWSNAvoL/HniKBh7FGm0UszLZ64v8Zlfy2EN3NS9Nf63cruFbNGcvT9+vCzzOZL/I61M0v/L0nVjgiw86cVnch605DbMLugYANyPBq03PEXhsQF2+RXPo8oYXbPcxycECT8X6+UbYNmqGO9K+MoeeM24xjP6PPeIJy3Pgj37s1Ib/msSvL8C6B8MTWHeGP2m4MoqNS1/55RuWF73xj5cvFP/S5LHBPg0ypyZqtu6wYJYC8nOBsoyBA43x2Jc7ZLkrTWegb3sf+CANpveQwbYzarVf4Ok5eOm1OFDOvuuknC7ynKBfvCUDX8lz590CjxoZlC7ySSMcp3LHLDOkmCYTtx9WEwBug3hDgQhmyWt1/aDTdhb4s1/zquUKeAMd3DevZaTp/HbdkQX+TXIFb8+D+8jNMkPbcaBu2XmKADcjwSvNEtRUcg9+ewv8n8Afkf7P8Bx8eQVvw8zzrbA1Ikbo1iUGsmEuKsC5ac+e5TS4L46PSx5mc+/htzfrDz/0nuU33/9O+pqINBZp1EZZkVFTnzCsoNi1ObdK/RRJvBKplYFjsBl9NFETHl/Pjo5IIIMJhcTLoKLG4/fBX4i3aO526hl7j/we+CIh+j74Oji1P5tsTL/C40/UtDhrcjh+vdyuwScL/hd8knW7Czzdg+9+URYmVE2Ycz0fdmSBx1s08Pw9LXSa2CpwUYKNs0bUoGN/qjQB4mY0eKVZBlE9ugf/gq3/yT5c4H/x7W8YPs9tgwvzbVg0qEXuMwyBFQnIGvxU6SHwiOOvPOm74Y+InxQz3u7sa+HP9P3k3/358hF4/v4Qeqy0bjGNMI3d9QT3J4sL0NpwzssSBrJhrlZIgDtkuSvqDPSazOPbJiPBq00crHY2MuEePDwH/3J5iuZwWODpk6wUBsEh3jOxRdTKZE8XeU6wssh7A90PA6H0Sh67ShoPBcYdstzlwQQegX5YTQC4DeI1AhFM56kA7pZlRxd4PLH7xrmQ7qkhXuR3fIHHGjZgM6iylNUu5NhoshuTsR74LAlebXqOwOMtmqPwg047sMDT46Grc+4/VHkgzZ564wZDmywywAybA3xc8gn3PWX5ucc9Yzlqh/6sXtPZjrh/A19Gh18wdvBunQcYiw8n1WB4zKOYNLM5Z8GoBNeTeK6XWgi9MdtpEuAOWe5K0gz0be8DH6TB1BkJfcsQpQO6RfNyeQ4eF3j7JCsJIFXOJmEhSd911sx4yr12Jc8NpMVbK0hvusgnTerbHbPMaJKJ27fdBIDbIBApSCCC2fE7vcBT69B4rikD0gOR8K2K8kGn7d6DfxNcwdP3e2P+VNgds8xIzZDTz3eXkPLnFMErzR7UxyTfuEMLPHVZN6+DhL4nr4m1ONAEvp0RfMTxJWd+x/KsB+7fvyXgA9k3C/8k4E+d82cL/jUnfxRTBmTjyjkZhv2AtzmYzTnFDubTE1DhsozEa2dJM3AMNqOPJmrC45g7OiKBDCYUEi+DhJYLfG6tDk6a2WRj+RUe3wBpcdbkcPxavl1zLfxia8du0cQ5Brt5rcOMsrkH/pn/DPgk604s8HQlGytYcTOIJS9DgGcgDoNTZl7lGQ1eaQoIh/2xwGOfm5zjoTUeWtwTyYpOlwDX4IeQ8JOt/+0pz17uD1/le3vaboHvj//ld715+euLPpj+vrAPBSx3Uus+QoBnmv5kSXmmP1hRSbkH7xWrm7rx/MZbIuIkpescNazXpGTUV0aCV5uQuyZwgf9QewWvnXgIWO4obUeiViZ7+gbgBCuLvDfQ/TAQSq/ksbGk8VBg3CHLXRlPBvphZR7TNYjXCEQwjd9vCzxW6BuX8fEBb9E8/RR8Dn57T9HgFbz+sjGN0RwzqDB5GcJuU29965nv5zzwtWk18IIB78Hv5BW8Nr8255suOJgvDIPTG2AGafA74s884X7Lzz/hmcvRhx6urXzFj3/60QuWX4Ovq8YP1LWvZxqBO6lnhmE/4FFMVJs8ZmHBLAUk4QJlGQMHGuOtG6pOcOIyT952+BAbTEgrXgBxgf8gLfAPO2Pv4c/WX7JSn7RzLVjuuEAsomaTDbrpG4AT5IU5VPlafLqGbtF89w79krWae8BGLxkt8Pgc/Db+Jis+B7++wOOL6F2YZYa+yA5UQ4k5KALkHpFrRMI1bNEVPHwB0xufv/1fsuoPNh0BdVE375LJa+J9D143Gwwb6t6455bluQ9+xPIT8HdT8ZevX+ntHZdctPzc2/9mueGWW/irDbTR0FgaQcGj1DQD3jSzOafYwXx6ArR8+smTncQrlFoZOAab0UcTNeGxmY6OSCCDCYXEk0Ne4PUpmhxB3TGUg7VtPRI7m2wsv8LjT9R09a3J4fi1druGF/gXbu8pmj951XLll4tPsuq8wXwWLyd90Onp213g4THJN8Ev0Xih8ypu4QtujahBR4KNUyoD/amSec2d0eAVJv4rj67gz94/CzyOZJNzPLSmg/cjkazodAlwDX4A6rtOOXX58Uc9yf5F5QkPnPWOSy+iWzP4zDved+dNmk69h1MDX8iG044ZFnKm6U8WTSEt1O8DE1HugcbqsmGuBifAHbLcFXUG+rYz309N4GsT6jiBj0nKFfyj9x6OH3SixySThhrzELDckab9QFTftQvAmr4BOMHKIu8N6ClkBYT6arhdszML/G/CVxXcsOyGpxSGG7weLbsjV/BvfC0s8HCLxp7F9ipu4QuunZlBAHkZimLWrPCY+/9n70uALquqczc03U0zCBIGEZkVmYRmlIga4/B8iQKKSTmDGk2VicnLG0wqeVV50VJRk1SiKWMFy6rEiAyJJlERURDEAXFgnpoZGUTABkHmRt6ah7P3Pvf+/71/Axanus9Za31r2vucu+7+993nnKwSuAbJc/AryumzFvhv4eOCR56KOOEzgAOZkJ52kB8JZI1KzwRGwOjnMXqt3mv3XF3ec8hL0luT3OnSUmfduKb8HTxr/vYH7i0rN4x9E/IMJGbjLFDOpERZ3MfNz1ifk5NJfW6RUnxiGAKyo2O4ZeNmCVsYTtoj9rHPshpzgwKPUzT4EZAtWwRfAAwwNcEjQWOdjTpjODuYqshXBd4SwB/UOMmkk/J2xigj0BFuWVCnnXFUH0jcRwCQnF+BhxG8jZYw53ob9vfjU+AxL+8Eo4zQvF1Q93f2QRag7hYDPABIzq/An0bPg6f4nd2wzys1aFxIL8MGdHQCjobaNrwJ6gj4y+xd8PyYHTZ/eva5RBz+oPrlqy8pn4A59/vWPWTTRJYixRUuCwPSx1GJUdg37MmJ6rQvGFYh205/oobgRrKV7wNe6aS8nDHKCHXnAqKcFYUgADJwTbz2ihKYDcE5+A/AMslt9z/ssVU6RUPa4rL2LMH6OLtG/w1j8s27aT4AqTgH21+F6Rp8VME/HT3rFM2nyp3w5/Ay6mvo77EuDwVlrgVen8lisY3I6ZjYCDqjxGURyLOgvpQyrupZGrhA8hTN/2q+WShcYl0Sb3T6wLdOK6uo3eA4+B4aTXONj5iLb9ao9JLAdbDg7rLFVuUt+z2/vGr355VlE778hzkvhL8Ynit/IjyV8rs3X0c/qNpTTUNugQTXwmWhShkfYJoPi9v2Sae+WBTmY/gcZEA4CtH5IrDcUjbuxnAUOUOUszGQ2dZpDwyAzZLAtUkp8J/lAp9vdAoJBuMgBRKAAWbZMgr4iALqjOFkOmlO3v1XXwYC6Ugec0s6bqrZogo3KWEmJZy4CXi7a8RIDjiCP35OBR4/WOwW9uLfko2E6C1tgacesqgpHWOMID3isgjkWVBfKhmv+zzgQuIIHm90Ov3Y2Qs8rv8nt3Vi1nYkRq9xVhi0NJmnCzK0iJVMYAT5whuh8IUeL99t7/JGeJb7bltu03jBxyDOAlicYz/zhivL56C43wbvJcBYXNw9D21UkECEwAUSQzsLlDMpKxb3cfMzdk7IiX5ekntnxL6ZhgmZMFatk8AZopwVbRdMwtGgbpbbxz5TKY/gQ4GvbnRqJh37H1ypN9UNR4LqrIIGJj3RQS7MwfrJvLpm3gUeu2Xa/p5Hgf8LmIPHNzql1SR2Ko3Il4eLNVs6myY2gsRZp8JQZyAENksCByRP0SwvX5tTgecMqqAoTtvoNY6a8BkImSZbBzo6ZsiEsvo8983gTteX7rJneTm8sPvAZ+w0U6G/6Z615awbripfhSdDXnv3nfRDqg8uNG3NANvFsiDpCUmR9ZpG7MisQSc7NRwJgqaoK10X7IB8NnUCbvFIW4PXjPkxorKUvNVWj8EAyMCJQpAMyGaBr92KVTDOOn0c9Qgd62zUmYDjByCNvjUBOD5Zp2twHfw8R/DaJXw2YC+nReXxiB/+395z8evg74PHBf/56byKxu5kjQEsthE5nQ3wNh3EGriLxKMLiBJ2IPXoFY4QC6nAwzLJrx0znxG8BmXvsJfYKo/Haa7xEXPxbZGi60HcrINtvh+eFLk5FPq/hdfuHbrI59fgI6L/FJ4rc+4t18H01gqf+pGkc+6Ba5OQVdNQpYwH29hgFrftVY/QKepKJwS7YSchJ/UORzNkwlhVSQJniHJWtLOgTjvjGDtLAhdILPCXfUBH8K+DH1nD44KDnrcmC0MQAAaYthOPBNVZR5XxIs8OJhR5T6D6MhDoiTRdQyP4181nDt7mPqVHubmw9y5JfY0F/oAddinvOPBwWjKZwAkMFqoHHnm4nADvgr34tpvL8g2X1WFSXGeQehSuse02e1rZb/tnwZ/1G9KoOoYk7ZFrBZ+cecWdt9GzzLPn4AUAx1DOHBV4eADTPEfwGpUijORNWUzAR0fy1gxuS26fNTES1geo+zDMzX/wN48qr9h1L/S04O2uB+8v7/7qifDogbX0qj/tU3IEAap8okTArBO4QKI/Z4FyJuXM4j5ufsb6nJx0/jLSaGLfTMOETBhrtkpYNiQgvRHlSTh5G7HXPqsL/OBxwe7DKTXW1B0ByhmF7UjQWGeD5ugohx1MVeSrAo9ZSG5a5JNOytsZo4zQ5mRB3ayMY+yBBFbRPFSOn7XAnww/snbWwVO8OjFtAC2rWwd3tPZewoKK+tdR6yOwHJ9gScszuWXD9nmDHUHqfvhyeMWz9y4fe/WbpFBYSlMTf/Pt0+EL5nvpBRJVD0Mwj4yu4Rk8sMcXftAIHo6L2U65FH5k/fZp/gye4IT6KQcNKJOj1ziqwDnrujCgoxNwcsUhaY/Tch+CAo/TNYvZ7oYC/56vnVyug6mZZfDFzJsFpM4OXBNHYdYRLgvJlkV93H2BTsOenGi8kc8B23b604KkbNQ1HwnyBJzS4KruiFFGoE5iNC01lmPQATJwTXxQ4A/tLpN0R0K5wBJgUR9HRULHOht1JuD4AdDLy4ILoQVJm17phbwXXOiDLYerBJha2BKjKdlJ8RH86mAzPXn92tvLsVjgR9bBcwawH6QSo0zubzQfc6DeOlpmysT9cIfjK3bfCwr8G2EOd3F3Xv41rEPHvyCWVev/LRgnJaxKucCvhAIPNzrNUOA/CKtoeuvgORbsNah2TzhO7vNOX6oP8m2RVMrHFNd18C+nD710xgJ/OhT4n8cCjyFDQCGDpIkPrFwnGwbPAAww9IEbiwUc08kfTjaOe8A75qxFYEfHDJkwVv0ngTNEOSvaWVCnnXFMOkucowL/QZuimabAYw7iwP1QYs4C5Ywk7QeC6qxdAajRDwA7mFDkPYFekdcCj4GTjptiJgjTJmGVjVKT1c1ye3WiklkL/HVS4PmdrNACdWzZMMFi2Hdwzqtz4aovsh3RERzVqzBJsAGM4B8pL4cC//E5FHj6gS/5b2QAuKpwgV8x8wj+g9/6Cvy4DH8BqGPtJzmSuL4YktboNU7NGOlvwm1Xp2F5GQGzr7MX+D+EAn89juCrpZceB5MJnLQ5SIQMEtAJXCC9hUINMHEu1gB2cPMzdk7IdlKfc4BmGBN2dAy3bDzdhDlu1AhOOh28MYLHV/YF7SbZFGKcYAk6QY3AsJt4caOvKU5GKszB/5Nhdc3cCzy2v9PnJB7rT7KddHFzgE4Iic1opWOC9VHgGx0B8TEFn6L53zOO4KXAN0KhCDfqTWs3y4b70WucnIycE/Pd0Qk4usIR/HEzjuCxwOMUjT+GILbIAlJnB06UgkTIIAGdppBsGenjqGQ6okaGgx1BY58DVtBMBtYaxCKN4gimVDqMiY2oLNlPwgc6gFUwSDoFHo1xCyZNUoQBYzu17OPmfayzMYMJOM6JjBd5i1Trhbx1NJ98BVxbZN4SZlIkbMupDwyAxRudeA5+cVM0OII/BqZocATPNzphaHA8CKUJsbiPk3VOWk3zEXQ6IULsjg4Y8gh+7xlH8KfBFM330xx8nfogS2F5Dn7xBf5kmIP/EI3g9XZ8cDwIpR3G4j4+VZ+P9Tc5sF2dRsjr0V8+NrcCr3Pwo30usUMKkGjg2qTrBNxbKNQAQyluLBZwTKdOnB3ofso+b4YwIRPGmm8l8OgoUc6KUhbUaWcc3UUJF/gT+Eanla87NLzRKQePVtGBucvCoD6IKGnrgczqrBWm42iRZwd18RYPcSSPolTAUSB5a4GvdARHuSkrlbCMEzcBp2WS8CPrq+D5IYvZYoHPa5EhcBWbI7C4j5PWLBc3OqAgFokD6x7E+CPry3fHAv+mGebgscCfR6tw1DUe60uJ81AdvB42pR9ZZyvwH4ACz3eyUlR2n0NpSOmODihao9c4heh8YWoUcs8xqkgiWD8FnpLVrOhaqPKJF6eAWSdwgcyeARhgGpTFfdz81BeLurBruBOC9cS+qWNCJozVCCYwwpvjItF2AVHOVjgKYrOqAp9vdCJ1cYKWLbIpJEVHgHLGnQg18eIGvVEd8j1pJM8JVAUec5DctMgnnZS3M0YZIY1RZ8LGzmaRG9AUze/Mr8Cjf/YuMTyUZBMyqBNLOniVdMyjk74OGbOHoR9ckz2/Ao/ePUK7WY7TFA2sg//6MbMXeLuTlXpEYnio1J/Umx1MFUevcVQaOyfmu3PeAOcpmtfMtIpGp2h0BC9paRPC0RKi0xM40QkSIYMEdJpCsmWkj6OS6YgaGQ52BLUvGNZkBc1kYA2s4Ag0wwS80kkGzhhlRGUZwyIoWzAAUrlc4I+GH1lhnk43VWI+cE1ShAHLfvo46hE61tmoMwHHD0AqzpoAHJ+Iq2t0Dv5Ve81nBK/N9VMAlDMK05HFfRyVJvY3K/VChNi56NgI/oh5jOC1gXqk5uGlMNhYoHPwXz92PgWeuiBFgjhVbFZgcR8nX3XiyTs2rOM+BLFIyRaXSR730lkL/EmyTLJe/VSnHjIVMkggt8C1SdcJODbKWaCcQcg2Fgs4plMnbj6ImLLPmyFMyISxGiEJnCHKWdHOgjrtjGO/LKMbnXSKBgt8WAef1QPXJiEJAQKOmTkLlDOStB8IqrN2BfQ1hrODCUXeE6i+DATSkTwGTjpuipkgTBtRzkap0Ji3kYbPpcCfxHPww8cFezignElJsLiPo/Jof5MC7zohJLZFQmWfoplrgec8KIDsWn2+FAU+R5ae6HQIievEYtpT9PniijyN4F82rwKPn4zcyHazgg6QgdOz5G0XMOsELpBo5CxQzrg/0+nj5qedPPsi35P6nBNopmHCho5hlgnFNLERnEpsKEEjOFrg44Iv/8CwwCMihtk+cE2yKURv6o6poEZg2E0sKOhhipORCnPwH+fkmzqSmxb5pJPydsYoIzRgFgzT1hudZhrBdwo8ZsDRJYeciibIOsPEDBUC8I45KxA4oiM4KiM5txH8RTAHP7IOvtUsPK/4I+tMI/hL8GmSXykbD54H730klAu4n2RPPdXBVHH0GkelsXNivvM5mX+Bp0Q0ZTq2+lyvRFZInNhawgYGCegIl4XqbhRHJTaDfcOenKhOO3lWIdvcn2pLR8GRboYJeKWTDJwxyojKkmMlPOvgFM3lH7ICf8gUNzplB7E1HkcoF6ARbSyCfQNLOmOdDYrTfABScVbncHyiTNfwCP7tZbYCfzytosFb/mkb9Kuz/T5nnT7Ofkcubo6MJ6V/Wi0RfswBzcHPMIL/KNxodAIUeFo9ZL4tESU0deN5BL9itgKPd7KeAwUeHxc8iJ1Z4LLA8mBxH0fFaa7xjnuOQ6BF4jn4WUfwX5UpmrQOvs6i/vgGHSGDBFvLOeO+TToQ8KwOwABDHDcWCzimUyfODnQ/do1boM7nwOKmbNSzJim8KXPuzlY4he3gVOA/mAp8ex18tg9cm4SYAgScEpH0CB9gBqn1hM4e/QCQ70lz8p5A9WUgkI7kMbek46aaLaos6GQsSYG3JCgd2nmqQDnjCkCxuI+j8mh/kwLvOiGsc/RO1o/PocDb6qEqaBbopeQFHh42tnwFJrzg7eRLvy8FXh51kEOFLhZggGtAEmtiKhwcJ/d5p5ioHw5CHN7odNyMBf4PoMDTjU44oEjtSgx+1ze2IAQycKIbJEIGCegELpBo7CxQzohfPrC4j5ufdvLByaQ+t0gpPjGWW0PHMMukZRJ8ugFRzooO1D8cwdcFPgfQDsv2gWuSTWFIWPCgFjJnvbGOFuXRDwD5nq7Ip+KtiUhuWuSTTsrbGaOMGDizvPmNTse/bl4jeAwoQavYivRxTIvQSX0OeMO9tMqc9HXAWNfB/8M8C7w1wFPRVhMkSa+PAp9TkcCdTqPe7GDaktFrXBrXdWHABjSC//A8C3xuKHAWjFJvX0pBB8jAkU2SCJh1mkKOF/YNxwEFH9mpxOYDQe3ko0LfBTsI8ZJ7ic0JVGkkgTNGGYE+E8NcFkGBX94r8AMHwTCQOUgAnBTKBeg4pAbAACMF2RE01tnoawKOw4lUnEOAx3O6hm50+p3ZCzy94Dj1gXTooF+dBcqZ0Bsq7uOkDLE65u5rRIeXSe5TcASPT6JczKZTNPEpmpRTldhAAOwmMHL/Oj4PfoYR/Pu/eao8bEz8D8Jgm1wElDOpuSzu4+QnndtkbszoZ0Bir4Mbnf765a+daZkkjuD1YWPWJCMoW8tJiTr9YCBkkIBZ4Nqk6wQc4zkLlDMI2cZiAcd06sTNBxEj1zjjuO98VixuyobM3FZZU+YmOSsKWRDT5hH85+RGp6NxDt6XSbJ1MBYySEAlcG3SdQKOvp0FyhmE0kZQzDqhzEy+wCcVeU+g+jIQSEfyGDHpuCkgzhDlLCcacJyi+dRSFniMOIjvLFDOSG58YHEfJ60ZLm4q8PA0yY+/+s0zFnh8mmQ6E9ykql1ZsMmK2Qr8f1x+fvmbc78+eJqkxMih6i4e4N7xUAi61zj+3QGGXVvxMuGc4DLJv3rxq8qLdtrDwy6AwqdJxgKPppaSEUlK3tvNCgZABo5skkTArBO4QOboAAwwcS7iPm5+2smzG/LdKeAWiBNopiH2pqoEHpOBM0YZoUYuIErYVOBXvPaQskFYB6+mKZoYurtBNgFw0qmcuHoWPKh5bKb6F79rjuqQ7+mKfC4Z4l9y0yKfdFLezhhlhObKgnkWePyxMYcRLgspARb1cVQidOziRp0JuDgZ5CWraLDAHzGPAo+ZSlsi5SKQ4sYCLJWb4gj+bYsfwd9y713l6jtvpxU8HkYoF1DUhexmMA1h+l7wFSt7bb192XqTzYL+9CQX+BNhBP8ze1xwitZn8I/oxhaEQAZOdINEyCABnaaQbBnp46hkOqJGhoMdQe3kWZMVNJOBNbCCI9AMM4YnA2eMMqL2ThDsqgKvI/i6TcFbm8xNaOqIMGA5NQAGGOK6EVQnpjAdJxedSUUe3XASqYi7mOIsuNBX7doAngc/+wj+rSfBKpr7fpGWC+ZQwmVh6GYABhg10Hqhj5MenI+OuboB/1nHl0lCgYd3eS5m++g5uIoGRvC2TDJnQVwWQRh9HvyKcsYMBX4x+f4q2HiB18cFewcbZQS2ODHUBfXHN+gIGSTZRwAC6TpZGKIDMMAoGbMUcEynTlxd8HFwjWdQA+XPgelYXCaMVYUkcIYoZ0U7C/BGp8s/JFM0OILXAo/adZuCsZBBghYSpEs6EFTRyFmgnEEobQTViWWdMZwd5CmWYB3XyaO4V+S1wFc6KXdnJKxFWgd/Kd0LL/z459e/s/zWnvubfCHEjXfdWbDA3/zztfRscv1y86joLXCBzAgAA0zzYHEfJ70FXNyPwZuk7oVXFf7WHvvRHPxinwdvBR7PteVuBKeVG0kyPG84B/9UgafuWNCuLvC5g633jcg4cQnT8EEIZOBEIUiEDBLQCVwgKZ6GQJ0BphCL+7j5maKudEJwKLFv6pDQEafAtMOY2IjcIuRwBH/F9AUeTYI3IYOkiWerphGqiOc+TkqoN9bRojSqQyEmjeQ5j6rAo39JUYt80hGM03BGKfwz+eFHHy3bbrZ5+fWdn1P+5EWvLLtstY1kvbADjoT/HR64deoVF5eLf3JTWQe+8XV22HaNl/LIQoJYJEADRyUST+jz0f4GH9judVDcV8KIff9n7Fh+93mHlFcv8iFrmFO7wCPijTDKCH1c8MqnCjx21QI3KvCn4RRNfB68d65T4LjPNAaOmEgwsXhbuQAAJ9tJREFUADJwkmWQCBkkbp+FZMuippH41nig07BXJYLGPges0HchOPprhhnDk4EzRhmRvQ8K/MH5RidpWd2m4K1N5iY0dUQYsJwaAANM0qEDQXViUWXyFwHYp+IcrOe9ugZ/4MIGPX3jVeWofQ8sR+x9QNnvmTuBZKSRIZ8xEh8XfPa1V5ZToNhfetstUEjhNXzQNvScvQuXhUEHgAGmcVncx0lPYqoNHrGwQ12HH1M3LPtDe99ywK+X5z9rt7L5ylVRbcH0R2SKxh+TDC4sdyPIL3Ei0mWSZ7wNn0WzuHXwC072V8QgFfiRdfDW+0ZgBySGeqT++AYdIYMk+whAIF0nC0N0AAYYJWOWAo7p1ImrCz42PgdJgXx3PvkWlwlj1UESOEOUs6IN9S2P4LHAD250UtWGscbUDssqgWuSTSG5dAQoZyycEgRN6OzRkSU7mFDkPYHqy0AgHcljXkkHcJyKwRdcb7fZFuXwXZ9T3nrQ4WWf7Z616LlnbXvruPaB+8qZV19WTrjg3HItPCseR/grYRmi94G3ZdivjgDlTArD4j5OynJxY5sfgZc8b7ZiZdlrmx3Km1Y/vxy+87PLFhtvknwultECr19k5sdyN4LTwj2Inirw1lMLJqoCL33qjrzPjTKiUl7akXwdLlzWkFTKa9iCPm5ux+oO+e4UcA0l9s00xN5UlbDgKnBro4xgHVwHH6ZotMBXnqY6GQ0rzSR1qOcglAtMn0V9XBW9eKmkPo7qUIhJI3nOIxVvDSMpapFXHZxrxrfYbwNTMS/cdY/y5gNfUA6Gkev62NbCO1q/ePmPymlrLi0X/uTHMIL2qRs7EZJ3zIdFAjRw1CXxyMUdp2IO2H7n8t/22Le8bp+D4DeCxb3gOuYX6ckF3rIlM20O/mXGc/BPjeBjf05DL6rA59MAnJ4Jjti+lIIOkIGTNINEyCDxGFlItixqGolvjQc6DXtVIqidPKuwQt/FlDg6q9JIAmeMMkLn4E/kdfArXgMFPi2TDJrSsrpNQadN5hRFJ6g6noWhYQAMMEmHDgTViUWVMIpNYmfAXouzC5layHTNo1BMMdktYSrmNfseVI7EqZgddh5LfxhubjxO3XwTpm5OhjcfXXbbzQWnibCb0uTNoF+dJcVmLqyTcZuKWQZTMc/YuRxz4K+XQ3bcrTxtxqmYZgIg5AJ/bloH77mDgjFGmCsq8G9/qsBbh0xJYIF/t87BwxRN6tkOY2IjMFhiKHr98Q06QgZJ9hGAQLpOFoboAAwwSsYsBRzTqRNXF3wEvGNuOBJNHRMyYSxbDowcJUrYDZcvgxF8LPA4ReO6zdB1m4KBkEGSfQTASady7JgK6AQ1baMeCaoTU5iO8xrJo7PhlwHOe/8S/m+3+ZYwYoepmANfWPZ9xrPKRotcBpgSn5HBEf2Z11xWPnfB98o1a39aHoCpmxUbbuRfeoN+dRYoZ1IWLN6g/BImPXQqZu9tn1netP9h5fBdnjO3qZgUNDDv/eop5dQ1F5cV1L+epFOgbIwR5OGpAh86cgHkHfffW17/hU+VB9atg67lPk0922FMbAQGTcxUMwTZYuBDwKwTuEBmSwAGGOK4sbiPm85Y3SEn2lvkNu8EN18ZlSQ4k0rHxQA5YxQQqcAvhxH8BjQHn/SHzFQno0omJNAmJS3LDj3wxqI+bnpjHa2+xnQoxKSRPOehBZ6mYmBVDE7FvGg3nIo5vBwMI9cn4nYXFPr/uuxH5atXXQqrbn5Mq1o2wpGYrSX3rCf1OY7Yfwm3vi+HJyoesMNO5ZXP2bccve/B8Ajd+U7FeEZO4fz+2z//6XLezdfLI3vl2gAVp9oM/n2FNzqd8dQI3jt0SgofMvaGL3y6LKPrJV0h7KHT+R0x2CRkqrqSLTBskAgZJI5nIRqKZdOI8KTTsFclgqaoK10X7CC2RF3zUXDPJ8DJqTNKbbgijOCxwOs6+OBTvKmJO6/bFHTaJBgLsAAcI7o6UM54MkIRVCeW9EZH8qgJ9lrAkyEwOl2DxQ3zeDr8aIirYo6Eeeb9odCNfFcPXT1u/FqZujkJVt1c/lNYdQNtwT4Zdpt3M1DC6FQM/mWyevsdyzEHvKAcutPuSzYV0+qkH8OdlL//n/8C6//vgne6wpmyRI1wETowsd/odOZTBb7VtaOyf7nw3PLJ888JN5d551oXu0h8OWKUEZUy2Qyvw3ACjUwu/AQbXnsWi2wYLAEYYNIAEbftk06duMJ8xM9YlmRO7Js6JmTCWPWQBM4swyma42SKJhZ4tCM111WJuqRj3aZgIGSQZB8BcNKpYW84ApQzKR9kCKoTS3qjRZ4dNIt8moqBqYhjDn5R2QemYhZ7R2ZKaj0zOKLHqZsTLoSpG7j1/gF4VypOecS+0W7G77NHHoNVMctXlr2341UxL9xljyWfiml1yRcu/WH5yzP/E0aSkCsqaJKk7IxTroM/huMUzVMFnjpr6t0vHn6ovOvLn6VHBdMD3qxzjeidBu/8SLlZlFI+7Y9uMAAycGSTJAJmncAFEo2dBcoZ8csHFvdx89NOPjgZKfIUxCKl+MQE3OKpFpsJ5wxO0VzpBf6gtA7e1Iyo3FajPo4QDIQMElAJXJNsGpFrRvo4x4cIYx0tSqM6FMJH8rTsL07FwHLHQ3bcXcM9qY93wfLK/7oUVt1cdRlN3TwK0y96wxSO2PFNQCtwKuaZu5T//tz1NxXT6tTrfnZH+eMvn1huuPt2GL2HxxzIJRGvLROhI2FwimYT+JJ6qsC3ercv+/QF3y6fhhH8Y/RDvXSmdTATxqKbDtMRDw2mqivJF6UeJEIGicfIwmDZNCIcd4zCvmGvSgSN1R5W6LuYEvd8NLIlKAJOkubgc4Gv18FLzJ4nktdt4gAMuqlLnYqtDVIwEi4LVcr4APNIYl0nFlUmfhFgYccvgi1wVczzYFUMTMWshht2Rr8cUoQnD4NTN3jDFK26uf1m+PFU7jzdfqdyLCzzPBS+0J4G/fB4bfhIhj//2ufL92+5oazCtym1NrsejAjXC0+x8Qj+/zx1o1Or/xqyM667vLwPXlH4EPy4SlNiUce7GaTMNERi4YhRRqBKYsim/vgGHSGDJPsIQCBdJwtDdAAGGCVjlgKO6dSJqws+At4xNxyJpo4JmTCWLZMRrYM/Tp5Fs/w1OILHAo9bNiMuiRLDFpUoCIQMkhwjAE46NUgnsKAT1CiRsCNoQme3ijWOWvENOM/YAlfF7FHeejCuitnxSTkVE7pjKhKnbs6AG6a+DtM3R+y9urx41z3pC24q4yVQWgf3E/wAflD922+fXi6B3wz4Xah80qtTnwTOKEUjeHhc8Jlvf6rATzpVP/3FPeWLay4sn7n0vPLQo+vgCZL8F5P2pdmbwIj8kXQxmDhjlBHoMTFLO5Kvw4XokEdOBbVpY3EfRyXSGas7rNALoQ5CPCJ9J/YqILbB0J2sNILf77DHlr82FnjUdjOjjMg4cQlDCW5BKGSQNPFs1TRCFfHcx0kJ9cY6WpRUB1fFPEJTMU+DVTHPLW/BqZidnpirYrR9v6pHOBXlgltvLF+84vzypSsvLvgc+RU6LUOnnc+9XAHeDSYwwq5CnqKBAv+OxRf4n9xzd7nmLnhcsHn10ER52AFQs67qVK2lEtTBFoxso25GQXKKGg9CMb8a7oT++rVXlOvuuoMGNb7SqjPyNNdMGIteO0xHPDRY2iKfksBkNV0BGnjS6eCmM1Z7wLbTm2guiYxoUGxOoEpDBDxFcxLc6IQFXkfwSTsxfK6SKDGcVyUKAiGDRFtCtvFiaOpkYVAHYICxw+B2rLNBDW9S2nLjjcvR+x/KUzGP86qY22EEdRdMmzx32+0hu5HGxYb+CtD419MFt95QTrnkB+XsG64quI5/E1h+qV/C1kTrks6HIOBmAwRN0cxQ4E++5PvlOHjp9sqNhtNEFpBOV+AgauDaZNYJCQd1cJO4oCUkwh0dsvRdbSumj8Bf8ffBvRKroM/bUzKcA++DmyRo6DRwtDaxEUlqAepmBQMhgyR6DkES6TrZ0HNCaoBpQiwWcEynTlxdiO/O9ataYt8MYUImjBVbWiZ5HBT4baDAr9ACj2DSTAxDSZQYcl23KegIGSQ5YACcdCrnFlMFnaBGiYQdQXVipIGj9p223Kr85SuPLi/bY5/8A17wsT7I2++9p5x25YXlX390brn7wfvgy2Z1ecPqF5Tdtt4WfvzsLeBcH5ktbYx1cA6uvOMn5TMXfKecfd2V0PYHy7JlG8CDyuCmrF5oPqmEVjpJ4MysBf7Ei79X3n/2l2WqSBND/x5DE8qSwFUkjszDuQ04+mI26Axwiqd6nWvcdKbA46sQ1c6OFJsTqNIwgRG5V1ys2ZJbExuB4sR0vreCDpCBI79JImDWCVwgc3QABpg4F3EfNz9jfU6+R4q84OZLg+sx4EMdGsF/WEbwG0GBtxudhpqhheRvBCfIlJDTLQiFDBJQClyTbBqRc0b6uGXQ6Gh8INiOW2xVPnzE62FaZk9VXe/H2+75eTkL5r1PuvA8eoYMLgPEDxrOQW+9atPyu6v5L4u94I7RX6WNp2JugGmYC8tX1lxS7oIvNbzT1ooMndZFfgDkktBrC0sk3ug0yxQN3j/w/rNPhR9phyN4PCsW0MggaeLZSrSzEaoEz30d1gO8YU9OZFf9NRRBcjKpv0mpHcZiM2Esm4RIjjgFcJ9Z2iKf4nKaLBKggXuTAOzgptOoPRwF9mQ+0UE/BJmyffRSFXj9kdWUjLA0Y06DRiVl0qvbFHSEDBJuqUYIQCBdJwtD4wEYYOoSjwRJYvQgLrhZ5m+OehPcsAQ3ej0O253wRqbPX3Re+Y9LflSuuONWurN0pa0S4Ybgc2QeeuSR8iz4K+Mluz+X7pjFH32fzBtPxdxYsGCeA1Mx+OycVRut8MI+bBycs+5pNaCjI7iug//GDFM0WuD5x164niy2JjwQAJslgWuT4EiAgKP3zAKXBZqAiPs4+aoTN3sixvqbHNiuTiPlxUxDJPEcMcoIjyHKdKhTDwZCBgnYBK5Nuk7AMZizQDmDkG0sFnBMp07cfLDvzvWrWmLfDGFCJnAfCvzzH8MRPExEqytvixkilBjNyWyGOFlkk+xDsKwSuCbZFFIOjgDlTMiPSYKgsx6GpV+H7LhrOeGtf1g2gUfbrs/t9nt/Xr5yxUXls+d/t1wPb2daBz9u4bwuneKUuzM4lYTFHh+NgA8ye+MBh5XdttoObvoJf96vz0YsIha24Ur4IvvM+TgVswamYh6AKbEN4Lk9I1MxGIdPWv+0Cm6qMTfpQry6cR380hb4RgYQX1KQrALXJJtCsnVEKBeIbz6QeKyggNpMI3kMw0EoYJWGCYzIfeBidZT9dHBUajcrGAAZOPKbJAJmncAFkuKJB/IxwBRiMew7uPlpJ89uyHakyAtuvjS4HgOOIrqTladoRgo8aqaknTHKiEp5qpPRsEIRb8G3k0K5QLUl1T6uitjPeIfmu1/w0vJnLztSxUt+xKmYb8AyxJPgnaIX3noj3ZGJ0zHhtp2J/Y03I+FDvrbeBKZu9ju0HLXPgWXPbXdY8txnCfAwfIFdeOuP4THGF8NUzMVl7XAqBpxPLjiYwSI/AHC+ucCvgAL/3kWvg+cRPM7B+3N32p/ZcHE2L8ca59bhHremUURGddgD+AhhyHiwm9znk/rbIg08A2uxmTCWTYK+I05F+8pgqrqSfFG0IBEySDxgFgbLphHhuGMU9g17VSKofcGwCplPdNAPwQHIF47g11iBPwpG8DAfbVGGVIqZGA6WRIkhT3Wbgo6QQQI2gWuTrhNwDOYsUM4gZBt+2DeGW/M/cgRMz8BNTEu9/ewX95Z/v+j7BW+1v+J2mIqBDokrMXD6ALc0Fk+5O0MU7HCt/gOPwtQN/IbwEljW+WZ5iuVSt2Uh/rGwn33dFfDGqR9QgV/7wP1QXJcvbipGA0PfeW+oUI4G1DpU4GEd/HwKPM7BWzAKPnqNowaoDyzIjo2bJBshlA0HbOXYnLFZHyfXdeJmT8RYf5MD2w3yAnnK27Iht7Rr4O6tbe/G4D7ZJ0uLnVUC1yY9aMCzZwAGmObEYgHHdOrE1YX4rq9fVwBK7JshRIjr4K9sF3h05aZGGZFx40Zw0km4WSFh4bJK4JpkUxjdseOgRiDscP59s5Ury4nH/FF5Hjw4a6m2n9JUzIXlhB99F9YV81TMCpiKsXXUkpsWeMxjIUUe9fE9rzh1s+2mTytH0Kqbw8ruvwZTN4/jqpv7HnmIHn1w/HnnlPNvvaH8Al4yjs+64aV30OjGOcG20DZlQem6IIDRqGMj+N+bxwhef2T1CO3PrOPctmHTA94km0J1xf2lnRlUBXC9dnKmNtNIHr1QbE6gSsMERmjGHN/F6ojkJjYCxYnROkf6vgs6QAZOVIJEyCDJMTIQfAEwwDQ+i/s46pHO2DlhhV4IdUAhOZ5GlyMI6wKPd7KathEuQlsXJ8bERlTKU52MhhWKeAu+nRTKBaotqbZxLPCbr9y4nHzsH5W94YFh895ugxtiaCoGVsXgum6ahhlOxWhQSVGL/NQFHu1Du3Et/yMwqt961Wbld/c/+HGZusE59u/eeFX5PDzf5hvXXk5fPsuh3bGAUMpjFzc2awLO7R4Z5XAQ6mHtoqUu8HQ6NBhF1l0QChkkoBS4Jtk0Iueu3tdBReopVybb4W5yn0/qb4s0dB2ayEmkVDpMRwy+EzJVXckWnKclKWDWaQrJhJE+7t5BR9QsViAm97ect2CTSPLdPye4Dv7KD5+MNzrBHDxO0dijCsCNJWZESxQVKbbEDHm4vQrrz27QETJIcowABNJ1stBzRipgS1Xg77wPp2LOK1+4+IflcpiKweV+OGL3jZNIRRzBmJswSSfgUZnEAwyXfj60Tlbd0NTNC+hRC57D/CmaioG7H3Eq5rwfX8M3y8APmvW55ticMuxT7oO8wHgMJu0xHTNmP3Mr8GfBHHy1TNKCaVrDxmQe1AcWjgcgkIALl4UqFXsAB7g6ZnEfR73JRWfCOaEgFklD85HFImvoNHBUNrERSSr+MHcjhQgCIYMEdALXJl0n4OjcWaCcQcg2Fgs4plMnbj7Y96Q+T5HMFufgr/zIxAKP+p6dUUZk3LgxPGFogVsQChkkTTxbBe1AVjqCzbvA01TM5Rfwqpi1d8IjD9ZRYbepGEiEnyfvyaUCHhLVkTyKko6bAuIMUc6iGWywSghG0/imqa03xVU3q8sbVx9Wdt16u7neMIVTMRfBj6fHn3d2Of+WGws+WnblRvCjsU0PQWJVbpoh59nDSWusgIs5BuiEkNiO4o1O35h1igYLPH5pu1tuUBC0P7MDA2CzJHBNsinkbpIMzGNQNQgIEreTM7X1U+Q9Qac0QU3FEaOMQJ3ENAr8QAfUs0WNDyQ5xsDY2aZjdCXx+rjpjJ0TCjTdNe454RSNFPhtYAS/fDiCt8iJyB0UvQXExEZkH8QlDCW4BaGQQdLEs1XTCFW8o4WZV4HHZ5OcBatiToRX4p1/yw30mj5ctihPK6fYcReLfCreqiRN0CKfdFJnOGOUEdkZTd1Asd9m003L7+x3CEzdHASrbma7YQofQHXujVfDj8Y/KmfAo4ZxVQ8+Fz8WB05Hkqpy4xxJPHZxoxrgHfPopK/DQUh3HgX+fVDgV+lfZSmxxExVcKh53ArZBx9NUoQBU3MX9XU4HuCurObpGM9jApQZOyfmu3PeAo7ujB1hptEh86SIEtyCEMjAMRwlAmadpjB47uMeHXSyU4nNh8n9jeZjDjhS1EgFfqOjDqR18FHBMjChER7KRaCeGOaSKDHkvv5sBx0hgyTHCEAgXScLQ3b4dp/Z5+Cvh+eT/4//+NfyQ3jaIb7KDJ+bbhs0LBVnA3QkjwJOsNILeS+40AdbDukCnbrZccunl3cc+uLyzkN/M2Q1PfkA3HT18e98rfzzD86hh1OtglGxXXwejhw6C5QzKRiL+zg7sgjJNjETig5P0awsZ804gscCbzc6YQJVu7Jg9BoX+4GFNysAgfSgWThIBcABro5Z3McprTpxNefjWH+TA9vVaaS8LBv338DdG1AdXB3UqQcDIYMkOwxAIF0nC0MqAAwwy4cIAcd06sTVhfie8DkQewzRLPDorYqfBM4YZURtTdAYnjC0xy0IhQySJp6tgnYgow7eIr85PFxslh9ZL7r1xvKGz3yi3A8PZ+o9mKkq3pgEbHEkj3ylJ3lrga90UrucIcpZNIMtCx6E+flX7bV/+cRrj2V4gft7H3qw/M8vfa6cee1l8CCwFWIdYgQSQWeBciZFZXEfJ2W4eDvm7IvAvg72OY7gz/q9P51pHXxV4DF6lZgL2p9Zx7ltQxcBb5JNobqio3kMqgK4Xjs5U5s8suz3dwjipHnWz4AKMEm92sVnytsZo4xAH4mZ6q+nbDHwIWDWCVwgsyUAAwxx3Fjcx01n7JyQk5E+Fxx94Y1ONAePUzQbHQkjeFoHb2mgjm8sBt6IQCVxYkzbCHSZmKlORsMKRbwFd04K5QLVpuhU4HEVzdsWv4rmkp/cVN56wifL3bC2u3k3KcWeNJLnBKsCj9lK7nrZJ53ULmeMMkKb7QJ89eARe60uf3fkmxVc0PEXUOD/9Csnl9OvvhTuJQh/tWjCHsr8skiABo6KJB67uElp5OJ2J5oJSmyjETysg5+9wH8p3+ikEVK7EvO4XOOcluSR09GMoZ8A6GCqNFORN99KwFmAfzhtiBsPdJjGRFAL49EReRYIQiaEMYXKRg2Zqfo8mZOrIBEySDxGFgbLphHhuGMU9g17VZrc32g+5oAj4Qh+Df7IagV+sEyy6cKERngoF1lTLGmOqWyFE5zsBwaCZZXAtUmPE3D0DAvhZZnkH5e9t1/cMslL4MfFN3/2H8s9UPCaBZ4CwQ6u0lScVY5pWF5MVHqG4+eioRPweNWQOGEYlAVY4F+95+ry90fNXuD1uTk5lHBZ6NcJUgNMu4TFfZxaMelLgJWqEFhGaAT/zllH8Fjg8YstN4K4LKp1JuB11wSDNukxAg7COrsBjjq4sRj2HZx0JvU54D1zelk7XL0bwUPk8C9dfLfvPts8s2wFd2JvtXIVHaXeUz7X/fxnBV84cs3aO8o9Dz9AS38fhd94NoQf7mPxs3hGeGvIkezq1IOBkEECVoFrk64TcAznLFDOIGQbi/s4KpJOnbj5EIVeCNLbcMVGjQLv3kmpyjEJnDHKCHNEfowbwxOmZkEoZJCAUuCaZFNINzo9jdbBz1rgP1l+/uD99OOqZlwdKYVJRd7z7BV5LfDoP+m4KSDOSNhBOvCEynkV+KsutbtxPSqGC1wgMwLAANNEWdzHSW+koDDO0WKIuRR4WAL7vrO1wHMMigc7i2VEhUweVYrL7CJwTbIppOCOCOUCTc71xgoKaMXimoyVGZwTfpfxurIlPA11F7jb+oXw2scDt98Fnt76dHrGP75XFwv+0C/+YI/3U+BU4vV331m+fdO15cLbbi433buWnl20HP5q1KeNWnOMwGQSM7nPQT1bDHwImHUCF8hsCcAAQxw3Fvdx0xk7J+Sk/8VKI/iPnjIYwVN4zcDSUCkfWaxKJDMRch3GxEZUylOdjIYVingLvp0UygVU4PFGp1OOnU+BxxH88ELVlOhIsacr8ql4qxPJXYt80gntip1vYiPY2ToYLs1lBL8GCnxYD57DCJeF3hV6kTRwVCLx2MVNSv2L2wO5zlwKPDz98n3fgAJv7c4NMM4Iaw2lJGkb7UQwEDJIQC1wTbJpRO5dva+DitRTrky2w93oNU5O0AG+rB1eoAOj80OftWv5jZ2eXV6w47PLZjM80A+L/Vk3roH/V5Xzb7uJ7ozeEBY2xGXIsYtSf0FG7UspNBbIwEmzg0TIIEGvrJeFJGNRH0cluzIb9uwY8x4B2Yn7USM58hRNr8CLMetaKtmFxTZCm2xtV/toSNpuAlBiSLVuV9ARMkiyjwAE0nVAqMsk51ngMfHJJ2RSkScvuMujdBcTtuBCHzqCR/AHzD5FgwW+sVwwhIJchctClTI+wKiBZglgB0e9if3NSuRirgW+andOkrgsshZhSriNXuOkMGx6cNgm0Sta2oGZIQs6wV513KyPk06duLnAUTsul33+DruWY/Y7rKye82Ot8ZEcF0CB/8wlsCwZRvX42GkczVtzjPDWWHJA1KkHAyGDBC3cvE26TsDRyFmgnHF/ptPHzU+duPsh36EPBJlc4N07mVQ5JoEzRhlhjrKfDk7aCSMz2AWhkEHSxMmXmgd7XSY57wJP8aY4GWkEbvnpnLy3qtITSAs8miYdNwXEGaKE9Smat4TI05P2Iyu8oGOlPlXRQ4Wo6LMLBAR0glrMhMV9nHTjBzwaK01O2NOsc/An4gs/cARfFXgMxjES5SLJxgXty8RxMgA2SwLXJJtCdZVzCKoCuF47OVMbfrHilye+nGb7Tbcov3/Qi8ordttr0SuVLMgIgSvXTr3mkvKpC78DL4l5EF4SE8byqV2JaRR4DBJ0gAycZBAkQgZJZS9GdHA9oJyJKiLu46hMpmPnhBVSiOkKvHunpKocTWBECtJjTNsIC0RxiEuYioNQyCABpcA1SRYuZYHn3ENwTV2PBE0aybN9Kt7JfhE/ulJi8EG0Ofh5FPjwY2NociAhqnBZSK1hUR+XlMFFw5g8yA7wUQ0CN5j5R1Ys8DhFYzc6WYKJoKQsHyMaOgkjM9gFoZBB0sSz56YROXc/fR32Bbgrk+1wF4s8zpvvDT+c/smhLy0HPXPnoeqS8d+66epyPLzmcc3Pbqcib4FS7onpXEpBB8jAicsgETJIQKcpJFtG+jgq2dWbnZK97mJ/qywdwdb8AJAK/LIjD+jf6IReLHB0EdwHXKUNUXREaqRjiihKDOtUoiAQMkiyjwAEEhfR0CqaU942vzl4SjbsJp+QSUUenXHWVaEPjdHRfNIJuPpQb1TgYZnk3x81rwKvnvEIW4gdSAeyMKgDMMDIn1n2cdKbUORpigaWSZ79zj9b9OhSC7yO4FO6xhjBaeE+iypB/f01MAA2SwLXJj1GwOtUABzgqIMbi/s4K+FrJX9ZXrn73uU9h7ykPHPzLUm8Pne33Ht3+dgPzqL5+RX4YDsNbgQKEkMao30u6tkqcG3S4wQ8RwdggFEyZtnHzU+duLoQ31yjc4E/Agq8rIPvxDdjC+RuB0m7B6OMyNYmNiLjxCVMgwahkEECSoFrkOujwHPuIbimrkeCJhV5t08FnJyzIy3wyCUdNwXEGZzHfPWMBf69uA4epmi00HEmEsNDhaio0QUCAjpBjf1G732cIoxc/PMp8N/jH1llaiql2mFMbIS2ygXttB0nC2CzJHBNsilUV5KE6ARVzQ6PJG4nR2o4cv+NnZ9b/vLFv12eDqtlHq/tDnjl4/u/9ZXyvVuvh5H8dEW+3azQEUAGTpoWJEIGCegELpBo7CxQzohfPrC4j5ufdvLByQZ0o9Oaj8iPrMuswLOLTnxJzNJgh7o3IyNyO0xsBFkaZwTnoG6JS5giQShkkIBS4AYk/8i6qsw+gv9HWCb5wOg6+NGRPOU1XZFPxXvQBVrkk05oc+yLuRT4U/FGJyjw6UYnOlOcWYgdSD8nWUg2LBKggZv3sYublNp/ZVKBhztZz37XLCP4XOAtJ2oB7CxvIwgxzojKcqqpg4YV+c9BQhqaUIrLJi4SygXuEyjqzQaGI/d94ZlGH3350WW7zbZINo8HgyP5vzjri2XN2tvyA/VS7omZqs+zBbYsSIQMEsezkLqERU0jwnFnV2/DXpVGawo7oefBX5UKvD4umBxbGPXpRwvc0Qm4GjVEAJmU1IhLosSwTiUKAiGDJMeIAAzhaZkkTdEs7oUfdKPTv36CCzysHBjbJp+QSUUevXMDUhF3MYWfptDrFM3HZpiieS8WePyRVZYLxq7VPCmhAATS2jK4BAIL2tmA3OGOxX2cFOFLYGg+lwIPr1p831nhR9YQJcUzxghOyxtAPO8GOpkFlYEA2CwJXJt0HwHH2JkFLgtQhTYWO443Hj3n155R3v+SI+G4rao97sfL7/hJ+b/f/FK5FYo9rbHXjFK7EsPtq0RBIGSQgE3g2qTrBByDOQuUMwjZxuI+joqkMzLYwSmaqz76b7wOnkbwWuDduhdfvVNCVY5J4IxRRlig7KeDk3bCyAx2QShkkDRxHMHjjU48gp+twPOLo6HsjnQ2556z0uzpSNCkIu/2vSKvBR59Jh03hR9ZYR08TNHMpcDjahLwHdxLs0QSgECCTuACicbOAuWM+OUDi/s4aQ2K/NwKfGcdfEq1w5jYCG2WC9qXkePctmHXBLxJNoXqSpIQnaCq2eGRxJAcPoIaX2CDI/cX77xHVHlC0Gdcf0X5f+ecWn4J6/FxbY01xwhrjeU7sc/BNpmTZZAIGSSgEbhAevSmkeekMQa2pgAEQe3k6UfWCQUeXYUOip4ZItzIiFtSRnhzXWT2amqQEbX3dnuCgZBBkuMAoOvg/20OI3gs8BNvdJIGjo7kKeHpinwq3oPO0yKfdEJnzL3AyykKIbS1fAxAIAETLgvJhkV9HJUIbV8M5IN0Aj7XAi9fbBzIG+CUJkhZsJrsTceIhk7C1DwIhQwSUApck2wakXNX7+twlhvQo6FfAT+q4ujd7oPQFJ8AR3z5zF+c/cXyrR9fDaP4MB/PDQgZeqsJyqzoBSGQgWvi5EcQPohFbSi++jj7GsdJJ1zjMfT4CF41yf+kIp9SUUs+WsOM8E5yEegmhrkkSgz5rtsVdIQMkhRDl0nOs8BjUhSvTozy1d1okScnk4o8KZG7VMRdTFiv0PsUzVtJb6E7XAf/3lNPgimacKNTiN3r83iKmzpZGNQBGGCaM4v7OOnB+UC9uRf40GbOx5N0ChBjjCB14rIoKrPOBBx9Z5XAtUmPEXAMllngsoDywYHR1ptuVv7pVW8pO235ayR7Iu6uXvvT8oenn0x3vOrnzZpjBGaeGGpK/fENOkIGSfYRgEC6ThaG6AAMMErGLPs46pHpIPHpCrxb9+Krd9SsdVLSzDREZButTceI2vugPZUPTSa5ECGN4OFxwfMu8JZlOznJEVo6hlPCk4q8t6pX5LXAY9Cosw7+eOUpmlkLfLjRSVsGaXlmQYhkAAI5BgSTpmMKwL76OCuxFt7oNNOPrDgHH290QufsOhIuSnhmGmaoAJshnVk/x1U9SwLXJJtCdUVHyyGoIoA3M73jgMPLe2C9+xN9+9vzzignX/ZDuLMW79XgzZpjBMoTM7nPQT1bDHwImHUCF0i3bBohTBujsB/YKo5HgkJdWWCBZxdd/+yd4lU6JjDC83SRpkg+OJqQYzoJU9MgFDJIQAle+CE/sv7b23Ed/Oxz8MOnSY4WcG1WOBmauR0p4emKfCze2b59MxSN4OEVfh87ah4FHj88uXeRHUhcJwCBbOLaFtYT7WykKhxvrD9RE/BZC/znLjq3/NWZgxudyLemkhM0ribUQHI3FghTZiGwA0nWCaCTTg2NGRE8qNUZZB2c0958xcbl00ceU3bf6onzw2rMO9LX3HV7+YPTTqLXSOrnMTW3zyxtkU9xOWMWCdDAUcvmUTo46YTPgBb4/w8AAP//raG3mwAAQABJREFU7L0HoCVVkTd+hkkMUUByEJGcs4IoElTMgGBaE7q65rxr1g3/3e/bdTFhWD/DKkklCYrksOQ4ZBCGOOSc0+R/VZ1T6YTu+95982ZYp2G6q+pX6Zzurnfuuaf7Tlh165cvWOrN24Ywf0GYEDo2Aie0dcS4oWNwjlIRASRSUiPOiRwTdQqRESTSSMKCBSEsP3XpcPRBnwmbr7kupzOi47X33hn+5rAfh8effy5MXGqpwpbiTbBRC5UwoQcHhVB6jn4WiOtIFHqCh8BnFnXmLpgf3rzZtuEH+76vTGgAydOzng9//+ffhVNvujZMnTQpWZhgKEmslxquTrYM2V3EjS2G4i2KYd/A4ZSHZaZMDed85Mth2uQpbDai4zHXXRb+/dxTwpSJk8owLq4ySkEoYYSg+MQ5EWbrBHgpZFsmANZLPMfGXloYkZrTSYFnz5sb9t1su/D5XV4bJpbJsPsRHdHnnHnz4PoMYSnwOWXixDBpqYkj8tFSngW+/+8Fp4Y/3Xw1XKeTQU1bJZQQ6MUx5LZsptFJpJF4HwYwpOp4oYkOQIZRMmLZxlGPTCHxpSZPDDP+4+gwQQr8vPmANoqzi9ChE72TdpGjCITw7VAxp+n9NHBUKk8EScmedsmWXSyACr/81GlQ4D8LBX4d1RsBRQX+UCjws+oFHl1RvHpyEqmzyEcHPUWeWwU3iXhNRIK4wKN0/lgU+BN/F06ZcW1YWgo8etY8kEM2k6iOAQypeLLHA2+qB5QyDNMxius4FXgo7Od89CujLvDPz50Tnpk9C663RgIumxcuU2sd9t+y8AdyKvxxG3Z74JmnwmX33B7Ov+vWcN0Dd4dnoF9XmbZs2HHNl4Td1n1Z2GaNdWkANmycM+/4S/ja2SfAAGxiumS0ZUIJgdEcM1Bd8RaZjwR6naqQmhqRNq7eQSepkWG2Q2ipKZMqBZ489BVwUmr7p8AxepGDCIRQPyqCAI5RzokdM9DJiJnDiJYKPI7gscAPMYLHAo8j+IlFacVQtA1SDDp1qJl9I/nYF9UsUjdxkR+LAv8lGMGfcuO1UCjzm92fEzxxmQT6JEkMYMgqHnuSLUt7xvFIaKUAj0WBt3GW0KPrgcvvnRkOufSscOX9d4XJ8MmXi+8COGfz5s+jM7jH+huHz+y8R1hvxVVGFyRZ3fH4I+Fzpx0V7nv2yTBpAt4deqUp5cQ5M1Bdcb4otpEk0kg0hhcay6oR4biTCl2xZ6WJcG/O+E4+gmcUOrvDlu+ito4YV/wIFlOVkAXhceEa9mLucLGKMGNjUOCvwSkaKPBPPP8sXaTtzuDu4uCcqT92FnlqRl+RJyVyWhR6E3outP0tQ0zR4Aj2aycfFU64/sowCUZzk/BaMf7tTUTJJMyp2M4ygCHBtGrI0oh7AwqHuyiGvcGXFHjpnkVGnHrr9eHfYdrkcbhncJor3/geeGbO7LDJyquFf93zbWHjVdbI1Qbm586fHz558m/DFQ/cmcXTC0MoIdC9Yyiev8YznaTurQxXJavCGIv2KYZREzEQUQz7Fg5TNLc0Czz5rhTnIkKHDgWWNKylSUqzU0qyTzaKCCUEqjgmKzbJhdUBdRzBr0Bz8KMfwfsCn0YHPhUOTkeCyqvE63Th0UE5DZM8xDl5TaBV5Ict8Nh3Mx66L/z04rPCJTNvC/c//QTNm05aSmPn5wS736Ix5SQxgCFBxXCGRFtlgVImuk37KFZ8SYF33TPuzE0P3x++ePox4d6nnqC59mYCcA/gucP5+e3XWC8c/LoD6V5t6vcA3z7nxHDyLdeFyTC/768VvXCEEgKdOmaguuItMh8J9DpVIbUoIm1cvYNOUiPDtJvQW+DJQ18Bj2Eq/mMYAiJa6IhACM1TReDHMco5sWN6T8YC+FoHv2Q9ZogpGi7wOBqZRF+yphx8KrEf0p5HKE6YMZ065LtvJB8TKAo8xgEIv2R9C3xZNtovWW26591+U/gTjOTPuOWG8MSsZ8Nk+Bis+WcdAWwmiQmlvNiv10mcF5JqFLVxcZv+aC4p8NzD43/EQcE/QaE94aaraCSt10gjFzxnYIPbJ3baPbx/610aiv3iX111QfjlVRdGRXcdKaMUqLWZ3rqCts6cohpJIo1EA3qhsawaEY47qdCZ/WAFnjyIC3HqCHLcoSOBKzqCUSBxK2IhPC5cB046DherOAe/dJyD32KUc/C2wOMqGg0FlDIY1G0EdY3UQXuQG6BawMG2b3UNFfjNcRXN+11ewzBX3zszHHXNpeH0GdfTlBV8XU9TN0VHpH7x3WO4OgneqoYsjbixtW2J4gnUL8sM+SWr9buEHrwH7n7y0fDJk34b7nrisTiSBtNBrvHn4MvXHddcL/zg9e8My8EXvKPZTrz52vDvF50G8/vz9Xpx14oyQgmBER1DKZS3r9FJpJF4HwPiFMhZgqF3yipJ7HEt8FvxMkm8LRsbtKjhOxoQ2KGTcFQu/IhACK+jYmctYiFK7+WJiDryJeuHPhvGqsD76JCUywtR3QiqJydKnTdAdDCq6ZqFUeAxaVzudjN8DP/FJWeHi++MUzf4JdpS2Zdb2C9l1ySJAQwJ3g1nSIyrLFDKICQbivFL5mWmDLeKRhwuIUbUA5fCipnPnXoUXSO4HJK3zmsclHA6cfXllg+HQIHfYKVV2WxEx1Nvuz786/mnBJyP18jgosGIWAgM55jFdCSf8kypZgV+G1oHjyrNravIS/v7i7yo2kAiFEK7VEVg4RjlnNgx1ZOBn/5oHfwYF3hsUoyecvCp2Bb3j2DQl7kZnDEy5Hvk0zVxigZG8PuN3Qg+z+2822Dq5i9XhrNuvp6WkU6aAMvUbFsg97JrksQAhuQG1wwH7nNaBz/EMsm8nUv4wXrgjNtugAJ/dFi28vyBuy4yd/PgRl1+ytLhx294V9hs1TUzdDB2+n0zw5fOPC48P3euHxC5i0sZpcB/m6nWFWcAts6c0jWSRBqJBvRCY1k1Ihx3Un1BzRX4CW/eJkzAdfCYUsW5ehAXInIE2XboJBxtijBOoIxQQpTWBHXgZGHwOIKHdfBjUeCfg1U02TJJDQWUMpiG2wiyhc+hkem6AUgD7EcyXTMeBZ6bgdNYv7/6knAGFnr4rgLHULjqJubtDsnEdFadBD1vnwxZGnFjyzjO6GKBOefvvjrqdfDsa8lxZD1w1u1/oQK/NDxwVDk1/o+/cT0Pvi9afsq08OM3QoF/8egK/EV33xq+Cmvh8cEnrkwuhwYjYiEwMcdQpnw5a9pGJ5FG4n0MiLNv9QOUMgzTMYqhpfgl63/iMkmYosECD5NUyaZtHD1wNzm/ylCEDp2Eo0FMRk1VoIhSuYEiQglRercnQqdoPjfkFM2PwuPPpQedXGzbNgAyzLQ4QjY5Cya6s8iT774irwnMh4+qO667QTjq/Z+qRBp7kUzdXPo/4eK06kambqpdk3LVlLPuawJGr3TMX7Keu6TAj/1J7vF4LTzM9NlTfh+enP08PAVbH47UrvE5sC5+vRVXDj/a591h7RVe1BOlDp8CK2j+7cJTwhyaotFrRymwazAiFgJjOGYxHclDlrAOvijwkn5PwcFW+WaiZdoEaOiMAK+4ZBEcxRHJhBMCxY6RkzEeBV6jpxx8KpQz72oXN2N87NQh34MVeSzwqy+/QjjsPR8LG7549GuMOa+RHGnVzQ1Xpamb5+MaelheWXZN2Wdep8Q5j4iU+JICzz00/senobDjl6zX3H93mOKefva55Nf4s/Al6+s32Cz8n732TyvVvP4g3PE3XhkOvviMMFde2OGukOgiXS450xCDmkOkrvh8jA6QhktqRpJII9EYXki2UVQ1khTwQaeb8xE8o+Kg4px1Oos8KpFt7eZNHhIuqklMBxdXGaGEKK0J6sBjmLhM8ugPDTeCf8+hPwpP4BRNxzJJTQUoZWxrtck9f1jzG6B00lfk0WICfOE0L3xgh93CP+3z9sLFeAiuhqmbo2Dq5nRcXvncM2E+tJsemHLBTWfVSWoLmRgceWWBSsySAk89tch2h199ETzBeja9d6brOmZsPsy/Lwdfiv/ja94aXr3eRqPO+8eXnR0Ov/ZSKFd6LURn8cJIl4cVpViKCCUEqjiGbMrb1+gk0ki8jwFxCuQswdA7jbnAFM2t/3mMn6JhYzxGm7qx6EGLKr4FjmCHDhlLJLVDShwLoSKHe0a0hfA4crimIn7JuhAKPLp3sS0LQIahOm8ElVcJw3TkG8AJmYkOeubkscDPDyvCcwA/O/Cg8IqXjP7m4bCjOcrUzSUwdYOrbp7BB6aWgkJvP8KnzjJ9ZkgIazhDYj7KAgX/LynwozlLY2czC77k/NJpx4Tz77w5TJ6E74bRM1SLgtfoe7baOXzhFXvH4lxTGkD2WVi9c/6dt+iL8SSsED4TFYN3ZYQSAoM7ZrEayeMcfGeBl/R7Ck7nSF7a3zidI8AxH9yMSRR4qedEGcXK4BTNCrgOfgxG8I/DCD4+6GRiaCjKR5EEVHBW7CzgSalTh3z3jeQnhNlww+0Ec/Ff3/stYft1XsrhF8nx3NtuDCf+5apwJj0w9Tw8MAXXi1x3ZZ/57itxbkRE4h6fD8B18Evm4Ll3xv94HzzF+v+dd1K4GL74xOWzeI7T2aNk8AFEHLnjUsp9XrZV+Npu+4SlJ+ObIEe3PQHvifrkKb8NNz38gKy/J08SNBLCIthgGuLcYLEp8r7AvwmXSdbXwUsXuBZSN+kuO1EKJIps/cl0OglHWRHGCZQRSojSmqAKznPwx3x4yBH8b+BLVnoXjX3QyeThYtu2AZBhaMUbQVLgWOqPWgC9XDiwt2NhkQPBrzXAtyOusdwK4f07vjK8F6ZsVl5mOas27vQ19/GqG5i6eR6mbqCT4qob01l1EnJNgMGxAczyOvglBX7cT6sL+CS8ffXYG6aH42+8OjwM03NzF8ALxuDjFV7P+OX76suuCCP3HcNbN9kWBk7DvTr46gfuCl+A1yM8PXt2+YpjvjAou8hURCl3RYQSAlUcEz0WIiMA0nBFDAa9juEM6aMDkDBT4HdeMIEKPH6IrW/RRo2rWuNS5FP2kIBSbUZ0hMDM4alGXF+LryoYwwIfPeMeNxPQkB4BIMPINO0IGqbIRwe9RR7n46E7wmarrUFFfq+NtghrjnLFgs1/tDSunLjlofvDz2HVzaV33R4ee/Zpml6RzjJ9ZkgIZzhDYh7IximaqeHcj41+meQMeJDr0rtuK4sFBuEti81iOlIiUaGqJkIhJHfnJ2NU2wJGakirkdNezXM4ZbLD2uuHTV68em42Kv5hOK+XwEh+xiMPhtlwzpedNCVstcY6YTt4VfAK8CrvsdiOuPYSeop12cnxKVjfIoggAiFUhAmo2DEiFqJQXuQj+bLAz8M/o5hofSOop+Bgq5ouEtDUEMOGhsE5w4oIIJGSmnBCwM0OTR2zAp+tg9cwiVIBp50ybOOs2DtKx9Z2nRMK0T+Sx3j4KPdceBp1h3XWD+/ZfpeAhX6VZZfnVBbJ8c83XhW+ecox9L7w+Ebvss9895a4TXwZuNGHKfCHXnF++Nppx8F78DumDSCFxhVsLs2GhjRGCH81i1gIap5wQqAYGRXULxPFWdVIyDf7wD+8r1p/o/CjN7ybnghO4GJ7wOmZL59xXLj8/plpemawPnftbzANsetv7JjOPk9OnC/qTSOp6lSFxjLiE6bIHPzOCwKM4OODTpQWn1Mysrtk2sRjlEZHsiNy0qGTcFSP8dgwFygqlBClNUEJjyP4aUON4K++Z2Z4169/GJ6EXziij5ImtiE1aS80bQMgw0yLI1S/UkSts8hTV/QVeVKi0T6+/wPXKm8KTw7ut9UO4YBtXx5WWURTN7+/6pLw7dOPoz9i2kVK2X4zUmhM4owQR/D4oNO5H/vaqB90OvKqi8K3zzwhTOsq8Km/TWiU6CZA4x4wOBuJCAXCCEFqxHmRVY46PTj79mqRwz0+JHfIm94ddhtiVQslMg47fHr2q2edoN+PUTO0LS6FKE6iik4FR2URC+GkyR/oOTzTAayArSSBXsdwhrSecR38rQfTKppY4PVBJ1ArM9JkiQKvmWNRQALsm7AAfTpRUdQ5gAiE8LFUjImwlVIg0imaz4/6Qadb4Yubzxz7m3AVFHosHljkbbdVItt0KC+no4zkzARB1jkD5thZ5KOD3ukadjcBPuLgx2b0iYX+vTu8kkb04zl1g8tP337YIWHmE4/Sl66cWzymzjJ9ZkhQMVwi8Rzhl6znDVvgzzgh/pJV1zWOSVLcRXeNYwq6aX/ULyPFyQZYL4kcPlm6C/ziEhb51gNLGnPRUfiq4U/guvsH7/HTadSM2BbfPshVBEKoCJuiYseIWIhC2dUFRONmDIA0XBVHoddJnBeSLYqqBV6dgErFkKzRmBQ7FBLe1EhA8/IXw4aGwV1OFJclBSNNktcFf3j0BR693wbzh3+A9dx/vuGaMOPB+6ggYlHkm0jS5MgqkCSjKAEVnBU7C3hS6tQh330j+ZiA/XIWnwDEeXqautlu/KZufgHLJ//znJPhYov9WXZNkhjAkNAjHh/zAo8R+ETzScqPkELjCpb0mhrSGCG4RTGKiIUguXBCoNgxcn1GR7w3Ook0EvKBAyN8UOlf4Ic49n7Z5my42B1PuvkaWK1zCnxJz79jllKUBjXOisHRQtgOZhAdMneKmcOEFSo2g6pOVYjOw0R8VcHBx+I6eB3BEwI7DQSUMgzTMYrbeFRqdCR7IicdOglH9RiPDXOBokIJUbGGC3V5WCZ5zJAFnrO5G34a7OQbrg6HX35BmPnYw/BY9Dx4+AnblbctJeVys20DIMM4hrSip6j0F52+Ii+R3Iifpm5glcMmq60Z9t8Spm62hqmbZRfOqpsHn34yfOB3/y/MgE9J+EPMtFW7znRWnQTTCPAyyTEbwceswH1+jhlIRwrfoZNw1DZNiMZOoIxS1shJoy8vssrkv7yUMgNgvQSW18LoeBN4AhpH8Wsst2LMczHa3/3kYwHXvtMnP3oAsZIcNSq2zLcPdJ2golPBMYKIhXBSZGjr7HOwdebRIlnCIYFex3CWxHXwrQKPHkW3zEgCRh3Yi7JASnTdAGI37A0gjnwqKrYtom9Z6UvWvx1uBK+NjNQj8GPCR15+YTj+2svDTfCrRziCwKkbHRGbhAyJ1soCpUweIkId54R8deHku6/IawKae5zamg3L2vCPCE3dbP/KsCd8GbvWGK+6Oerqi8NXTj4ainv2cqpq16RcNeWs+yJAI3h4MnLMC3zs8CxmdtoohfG9xqU7hOCcVFC/TBQnC2C9ZEJ4du7s8Lfb7xY+v8tr+z/FcNhxOOInze9ffGY48rpL4ZNGdu3k8alRsWW+faAoAiFUhH5U7BgRC1EoD/TpyZmjCxswgV6nFNIqGinwb6yvg49msPfeKCTvCKpfKawC9n0XN4ZoBBFxQ8PgHLAiAkikNAePP9l3zBgXeI5/O0zdHANfEJ584zXhJpi6wQc38F/MIOWh6bBZL86KvaN0bG3XOaHYgxV5W+A5Ph7nwHwsTd3A0rn3bLdrWnUz/Ij+Yfgj+fHjfh2m33NHmEq/25l1FLCZBFsbUzOAIQlfqAUeI3T1N2YHCfEVgKzbJNmGhsHZTkQoEEYIUhNOCKccdRxGItgZYSKNhFah4bn5xu5vDG/cBGrHYrL98aYr4TdfT6frks6H3HOVBKVBg/W5qKOrBtMQ5waVIm8sE2kkKXkjqep4YVbgt4Z1cnALGB/JqxEBWMFRL4rbOPnq6mxx0uhsgwtJTtPO5aWMUEJEa5xLXA4KPL4ueOu1X2I9jSl9V5q6OeLy8+kj41x4epSnbrjX8j7VVIFSpsiLoJ6i0l90+op87C/cF4U+5RanbibGVTdbbD/0qpvfXH5u+MfTj8+WImYdkVgvNVyFpAIPyyTP+/iQq2j4S9bijIBgUV7jmI+0WwjKkjgvsspRpwdH31YF39W+ArzK92tQ5F+/4RbkY1Hu/njT1eF7l5wZ8Efh7Y+KDHpOMHfbPmqLE0SmIkrNVkQoIUrv9VvXGABpuCIGg15HOVomqSP4VODLPMixmNWzMjqgKcopJ3vougHEbtgiL458Kiqmr14mw9TJf+z77vAO+OJwYW+PPPN0OHL6+TB1cwV8GXuvTN1IS01umIuyQClTpElQxzkhX114dFAW7xSJn3jlwK0iPx+qJ37vgDfWJvDe7vfusGvYE276tVYc2Sten4Cngvf/zQ/DzMdh5Qx8h+G3jAc2k4B6khiAyXEp8Jhw1zVOeNxxXsi5jYCIFjoiEIJbHF2oGHhlhBKCI6qgfpkoThbAWsnz8NzEeiusHP5pj7eEnRbh6y5Ov/UG+NWmk8NT8NZKvK+LbcBzgna2feRHBEJ4HRU7axELUXrv7XOwdeY+IQG9TuRoBP9d/pL1jVjg0w9+lHkYt9WIhItZPWvV6cJTplL4xCoR0pKGhsHZtCIiCEfxn3jV68LXX78fqy70I666OfbqS8Mp8IXsTQ/dCwUxvY+j0icx75S9NKJMsXeUDiadOuS7byQfEygKPKaTcuP1CvjE4zwo9tvj1M32rwh7QaEf9IEp/Lm/7/zPyfAqhZhP2S1ZRwCbSTQhAyAZCzzMwX/868Otg8dPFz3vR+ns79RnjSvYNKihIe0SwveBiIXAiKrjxI7Bv02VzQgTaSTwM3zw+ml43cVXXrVP2BNe7TueG97DZ9z2l/CdC08Pj8KrLfSdUJUsoHE2b6chQEPH4GgnbAcziA6ZO8XMYcIKFZtBVQfaAS90uxUL/ItxFQ0UeH3QKQUpvRq3AFZwTa+No874jHI0G0elvHE1wE6wpvf3ME2D0zXjucVVN1eFI2DVzV1PPBJmzZ0fp26yO0y7uLs/SS+zzdvTX3T6irz2YlHoNVH6dIS4rLpZdY2wH6662ab7gSlcOfP+3/1XmPHQg7pyJjXCN80E05Syy9HoGJLWwQ9Z4L91+h/Sg07g2PhOqeqhq6BI3o2CYnAh1XMWV5NQCpSFEYI8EOdFVjnq9ODo26rgH/Vpk6aGg+DT8Pvg3zR47cDC3vCdNr++6sJw9PVX0Je++B6bxl8oTWXAc4IGtn3kwAkiUxGlWIoIJUTp3V/fyYXNAGydeZ5QAq3OBFjO6gq8e9CJ3VmLPPV6ViY0GFfsOf3OIi92w94A4sinAmJ8ax0+rPHDAz4Q9ttmZ0lrPIlHnn0q/BaK/PHXTocvY++nnCbBskDbta4FyhRpEmQNCw28/nsdDD1dwyN5DG8fmNoECv17cdXNhpvD1M1KRXZHXXVx+PLJR0FxnwTnyudZpu1xVM8kGD3GSAccweOTrMOO4LHAy0/PlYn5dgFe5mVUCOzQSThaFH5EIITXUbGzFrEQnI8K6s1SnCyAtRKck8ePSbu9ZMPw0R13D1uutlb39cZhR3jEUfuV998VfgGvjbgEfswbc7UPXXVe4xhrwHNCqnlu0mAhXB+0GNEWovTe2+dg68wpNyNJJEviCB6eAucRfJyisU4yC9PYiMCevRmMSYLqWbNK9wWQfDcvf4nd0DA4B8xF+E7yTeAlWwfv//6w03ovY7VxP97+yAPhmKsvo6mbGfCirQm4ht5ciDHvlL00okyz9+IGk04d8t03ko8JFKN4TCflxkXe6tADU7DEkqZutsOpmy1lHT2unPnYMb8K0++dmVbOGGdIwlZeSllHAJtJ0Ips8cBTNOePwQie30VDV14ZNMZM+87+Rh2wb1zBkn5TQ2ILwS2O0UUsBMmFEyIlEq2ijsMYMMJEGgkp4bz8asssH94Fb4R8w8Zbh3VXKP+Ys7eRHm959MFw0oxrwvHwhepjMIKfUptvB6f9fd7s8RH3uWt/g6mLnZS6ovMaT+oVK+1Go+ML/BtgDh4+ZvHmnQDnBTEZVo5XqHCWiGZ1e9EzhUxkliAnfSdEIlnLLO+ogwpCATEL3r3ykpVWDf/nre8Ke2+yVf/F4SOMKccPTB0x/YJwJzyij+9s51U3knNHf0vbyivF5TnIDWCLszWOX7xKpHLEr4nSdA1qWl/PzYN33eADU/BlbJy62TmcCB+z/xFGxlOLd7wYZykJ37QMT6yXRo4KPKyDH8sCr70AMXzQlK0m3QVH24V0jWuSQPksiPOiUqcHLy/H+IMy82EZ7VpQ3HdYa73wNlhKuQWM6JeGqZv462epX3oOuAz3uTlzwnUP3h3+eNM1Yfp9d4Z74Z3yS8OnPPJT5KYOB7nGO8xTV0WNQs8JKjoVHDMTsRBOSsn765tE1pKcOPNoxYoSZCmag+cRfFbgUVudJEoF4kxE9axIL+rAXpTFXAmwb8IC9OlERVFn7yIQwscC8RyYj18eXlH6bnjnygEwutxqzXXCUq2n4NjvQjziA1O/nX5hOOG66eFGWEePD0zh6gDXAmWKTAjqOCdo0HkDRAeuMNsgg66u4ZE82toij6+KwHfd4JfMG8FTkU/Cm/8ehukqamHRLi8om+Vx7KRMgq2NI/iFUOCxbRSvTAwh3bqucdSKTiq5JxcJF9UkpoM0WAjvR8WgroxQQrBTFdSbpTjH95LY3/h2UpinoymtDVdePWy35rowdbM2/ZD2VJgjXm5K/O5ruSlT4Z3ts8gVDrieAvpO+G7q2gfuDZfdNzPc/vhDYR58mYu50Iv9uBX15LgR3dc4ag14TkhVvCZCGiyE6Vn0bQ2UEUoI1HMMtdNaR9roAGm4pGokiEOBv+27tsDjKhqjg1bKJkoFySnrAFDBWImgYU5G8t0s8RK7oWFwlxMyCcMR3vPwwwBrv2iV8HaYkz8QVoBsvsbarL5IjrfB1M2xOHUDD0zNgCdj6YEpSlg6pJlXZwFPVp06FGLhTNdwn2Ma+AXdBCj0E+3NJueLm+cF5aXkcfSfSejTBH7Jev4nhlhFc+VF4VtnxDl4zoyPdOXlQRlMx87+Rh3Ku+FExKO4xpPvmIY4IlY4IZxy1HFY9OJ6OOFeTTm8t3BEj9N0uLhhdXjFxYpLLxvWXA6X0S4Iqy23fHgABjW4Pfn88zBKfwz+4D9N03VY0CdOtMMDUqPd2PR5oz8xgjShoWNwp97BZCaoCZtII4uSQmQEiTSSZKcSXAd/28FS4LeKDzqxe9XLQgNgsFK9jqNeNGvj5Mve5OzcHslJo7NRL+FCFrYsiNk4vSTCgoO/H7nuiquEvTbZPHzwFXuELddax32Rw17G63gPrAs/9PLzwuGXnZ9eT8wXPCStTSnSIai8Upxef9HpK/LoLibBWUkAkxuP5p2OwdmHeHOYSMU1SZyOY8QdS+Mc/NQhC/yF4Vunw9sk4VWstS3Ggj0HrSp1XL/UqLhruiAgooWOEyijFPgWRgjKkjgvsspRpwdH317FcInEAy5wwII/F7+YBYv5cM8tlYo4forD6Rf8JS9E4wZWxhVL8RjFbZx0eu6BsRnJu2yQiZvLWxmhhEB1x1SKfKYD6t5CcRrBf2+AAq8mhiq9aqCOziSzDhwjdHa2xO24SWKQ6Ir2ZmfsWSoiFBgG1/fihbjStGXDO2E0f8B2L4epm3UX2dQN5nICvOPmmycdA0X+ORrxxjZA0iZvbhcfCerp884iHx24KRb2jcdhp2t87tqQFNaGAlpxBMpmeRzVWRILPI7gvzH6dfBXYoFPT9my41qGZWJeC/CGedQjsEMn4ahc+BGBEF5Hxc5axELEVGyEerMyA2C9xHBVsiqk4IokSgWcnOrVkxO9zmsctQY8J6QqXhMheQnh+0DFGIiMKqLcWdRziknFege8VIFrB6dofIE3Dzqhn8xK2USpgKNq6hWMleiy7cApdNfJkvANJyJu3CAG15wSJRhlQUKcL35u9pyw7otWDm/fdmcq9JvDT4stig2L/I/POzV85+yTqLjFX4JNSbvcfXa9Fzeod+qQ776RfEzAjdA5jZTbiEfxaF+0ywvKS8XjaI+SsSjwR0CB/zYtk0zrvLNQ2twUlAWVY2d/oz65aAZIHkdxjSff0YH3L5wQTplMyv7OdJKtc2FPogGUrBrFeLQ3MdRIkIgC0MBYsb/PG/1pwmOQahgRRkJYZ+sZ0RHC48jhVva5MUikkUQb+I5DCvyCN8DqEZyDl82o10nQBMBgbKqiOo56UaeNky9olfpi7+ZIYIdOwtGi8OMEygglRLRGFh/Fx1UtOHWz56ZbhA++HNb6rrXuuE/dPDNrVnj3oYeEy+C3QXHViaYKlDKYuNsIKq8Ur9OD45VWLeDgZdjVNT53bUjM26UJjOKM+NQzPLFxDn70I3gs8PqgE0YGx1koyYeINh7hjusXFch3h07CRZWcpp3LSxml2H9pbdwaj86yu+gkl5mF+jKAIQFPnBeyNNkDmOHsOIrbOOoNVeTJgezKNFxekg0axK2CIyBiIZyUbP31TSJrSU6seRzB/yGugx+0wPuwyZ31muKKqJ4VaZFOBx6V+i7umJHES/HlEINEVyJMhBgJoR2NKip2DK4MoKmbZZaJUzfbviJsOc5TNwefdWL4wXmn0ZeuPlVI2uWNqG4E9fR55w0QHfQUeU2g+GOQIB7JY2ZOR00BUYYoZVODvKBslsfnA7scfck6fIGXB504Rx8q5ZdaUCYmOBGAN8yjHoEdOglH5cKPCITwOip21iIWIqZiI9SblRkA6yWGq5JVIQVXJFEq4ORUr56c6HVe46g14DkhVfGaCMlLCN8HIhaigZfe681SP+iIOV/g94EvWXE1g0vWcIb0YROQ4aoDQAXjMHTZduDkp96q6CLZNi9/8d3QMLjmlCjBKAuG6YgQTd3AGl2cutkfpm4OhEK/2Titurn4jpvDR3//y4Av5+KLNaabkna5u9RF30s9xz69NHHku28kHxNwxZudpdy4yDsdl7cyQgmROePUOnCaooFlkhcMMQfPI3h90AkDp6BF7JjU0Nd4CtG4giU8EtUURCiE1xOxEJS4cEKkRGKzoo7DGDDCRBoJKBmuSlaNYjwOwT6MvUAUAYAGxnqd1zgqdRV58T1Yn4s6+eUMPCM6QnicrcpyaAwSiYeywJtlksYEVdl3i4w6Ro0NVASUMgzTMYrbeFRqdCR7IicdOglH9RiPDXOBokIJUVrjCw9x6gZX3axDq262CAfh1M1CHtHfBr909A74we8HYWmZfTWqpgqUMqaxkSSovFKc3iA3gCvOxnpxnK7hOfgLPjk2I3hurnZzu8+jThsnX10FBRXIyUK6xsW/I5DhsETrLraI+fJS8jg68RLD1UmOnBuWfow954PHKIZ9AyedMnHrAmw7+luCSKTM1rIVHZeXMkIJIYHEYT1tYwAkPuh02/d4igZH8DwHD6BRBaeGM6QPm4AMdzr1rChpMuvAo1JHZ0vcPp2oKOrkGHYiEEJFqKNix4gYCJ66eVFadfP2bRfeqhv8we93/PcPw0NY4LPX6kpOmLQy2Aq3EdTT551FPjrwUywmwuK2umZMCvwVMAdfWQcfuzl1djqYriAydlcDZGU4H50a0UlbJ+HorvAjAiG8joqdtYiFkGSZwDpY2TIhsF5iuCpZFVIcRRKlApcHievJiV7nNY5aA54TUhWviZC8hNA+UBEGEUulnDhnevsc18Hf/t1agcdQEMUFspwHDJKADE/uak4Rko0u7YqtKADReTIkfMOJiBs3kcE5ZkWEWTBMR+ESEVfdwJexK8HUzTY7LZSpm1sfvh8K/CHVAo9JxVRSQpKgSzvm3nPxk68uHfL9wpiuwSkh/JJ1qBE8FnhcRVN5XfAgfT70NU4nBM9v46SKuKFhcL4aRJR8R7mTajQndkxvwWEnmRWnwRct8aqTKBWIvoraOqg8Nn3e6M8YIOXU0JFEIyGss/WM6Ajh8RSw0udqgO+Dv11H8Fv6B52MPzUxwjYJCFh4I9RWUUfBiGZ1e3JCjhodyQrkpEMn4eSKbfgYE0icMkIJUVoTJDi8jwO+jJ0FT+2ts+LK8MDU2E7dxAKfRvDwFChtEjtnAciwqGH0Os4JanX+YY0KPSN5UsJdqWdyG/G8vLEl55WGctPiCH7qkAX+Al0HjwGz+MoCpUxMLe2juI2TGiTdMI9eCOzQSTgqF36cQBmlrJGTRl9eZJUxXGfRiQp5TsZhnUSvZMqHyIg0saBj7FkHj1HcxkmHLxRraOkBzwn5snaFQLJRLZe3MkIJUTir9HfUwTn4278vI3gs8Nk6+OTL+bY96AGDJCDDNTUAKhjiuBE0TGeL72FvAHHk01UxZ6t5SwNIRLhO3fCqm5fD8sr13Nw5aw96rBZ4NHa5WRaADLOxCOrp884iHx2UxTsFWRyma3SK5pujftDpiCuwwOOrCtrr4GM3p85OB9vXSMfuaoCsPGBBaXqJQchboSMCIfzloWLO1vtxOEIqqF9GirMjLzFclawK2RUdJQejmgDVqycnap3XOGoNeE5IVbwmQvKKhLCFsiJKgVKbqRZ5fB98pcAX0cix820jecAgCchw9Q5ABUMcNyrNHTjpdJ2sZNss8eK7oWFwSohySpRglAXDdBRICNXBAvMcvOuGp24+uuteYY0VRvaTdhzMF3gMlgK6uFE7ito4++y9uDFKb58vvtM1Y1vgJw/d50Nf43ji4LQ2rmC5JJoacq0IwVcRenb2URD3oi2EUyal+mViDBJpJGBnuCpZNYrxaI+7tk5EATe+xcwQndc4OWn2uPHd0JHYkRA2JmezEFp0hCiUSTfvc1fg5++zZftBJ+PPxbA9ZQBDgiVwXhCToT3CFTBhEanbs/mgf1GbUQiQSOKWCGekjFBCoLZjIudEyuCI/pHnng7HHPTZ8FZ4Z/ZoNizwB6YvWfElXbol2ooAVBYoZdQsUQQ5f4VKd5FHdbBfXFfXLIPLJD85+hH84WkEP01ea2w605DUDdJ1AGQYQ1HcxkkP+rNhHt0Q2KGTcFQu/DiBMkpZIyeNvrzIKmO4yu2dGQDrJYarkxrD4BQLd7IBmOEMRXEbR72hijw5kF2ZhuQlhNdRMWaCjmgTSggUO8b1t07RbLnzAirwsA7eb94YfXmJ4QzpwyYgw1UHgArGeRDUU3CwVU0XAvTpREVRdwlotp4CzhkoI5QQ3vIpeD3ub9738fC2MSjwuExSwyhlhBjcsKBj1Ag0O4J6+rzzBogOeoq8JlD8MUgQz8djak5HTQFRhihlU4tUgFf3ckMW+EPhh9O/duqx9PrbFEDjaCiBVASUMiXe29/YBxUHyRM+xIUb/rIRv5XTnSPCo1LhRQRC+EgqhgjKCCUEpeB1Cgx1MiGwXmK4KlkVUnBFEqUCwnlH4t4+bxiLE3vfsdAcYxASFJ5EEAlhUbvBNMS5gRT5osCXDzoV0Si4C2Sz8YBBEpDh6h2ACoY4btSNHTjpdJ2sZNs8HeK7oWFwSohySpRglAXDdBRICNXBAn8oFPixGMHzOngNkygVSF5R1MZZ0RUHFmbHTh0K0TeSj3m44s0xUopc5J1OwqKqMkIJ4Z1hgcef7LvwU6MfwZ8249rwy0vPC5PhCywfxnCGxAyUVYoz4yMhbZjU8JXKXRveAvge9XuffCzg9UXnB4Te9yiucQwquQlBqQgnhFOOOg4jEeyMMJFGUsXRUnWqRqgykE7UAx/qkGzzXec1Tk4a/RkDJHcNHYkdCWGdrWdERwiPp4BU5MsCP8g6eOPPxbA9ZQBDgiVwXkD5iKijSEeduj03qnMkL3k3OtvgQopjICRJj4pYCI8Ll+FjVuCf9uvgXRhO2gtZGhuVYZgvbwR1nBPUG+QGaJWl8X4YaiwKPD7Q9tyc2dxFpi9FlF0rRt5H4pcEHeejByTv+GMZT0Bxv+aBu8LhV14cbn30AXrLmpyneFJJtwjlBMooZfNz0pi2F1nlGK8HRydexXB1UmMYHIN5FjgvoHxUr42TTs89MGjd0XgS3uSlCSoFeg1GxEKU3pfCZZK0iiZN0ciDTujXGZbGGNirGM6Q3jIBGa46AFQwxHEjqEwsgrwHvOlCgD6dqCjq4rsgfCxnoIxQQsBIC37UYExG8FjgsU+MbyWVsji2QhGglOEGypGgnj6X4iFWhogO/BSLgcdzdQ2+iGPYEbxJfbEnH4UfzPj5ZeeGI6+5OCyYD5+F+Dymc4INKE69CITwOip21iIWgrtHBRyekXhUnHhgvcRwVbIqZFcpVNIxqglQvXpyoiZ9J5KMAPuG+6hIYNQo9ERQwQVDN8oo5cSOwRH8HT/AZZJU4Lfw6+DBg3OC/nNJoWMsDOktCyPyrDptPOp046TTdbJSXs3TkXBsq5CSIRAiFKImsopkLdqJiCP4Tww5RfOD8NDTT+tySwli0uTsDMbNiaIEVHDR6+rPpNR5A5DvRT9dE1fRTB1qiob75IVyxF9POvj8U8Nvr74ERvKpyMu5HsU1jg039rYf6mKRkmr9UjI6iTQSG9DEtmTVKMaTBNs6qEI94YOKJROd1zg5afQnYeJFu49FGe7YDkbSFcIrVwo8foh12sR6iedY3UsNVyWT0GCYGm4iql8JRgc0RZnEfgf2XXAEO3TIOHoo/DiBMkIJgSk5hsPSHOmh7xuLAo8jeDMJYsIZUvPwQpMdABlmO5SgjnNCLe3B8WOhydS6H5dXDfMyyQs/9a1Rr4N3Sb9AGPzhaizyR151Mb0Flb+zkYsR2lGceidQRilr5KTWremhTMez1lm0AdyrGK5Oqg+DozPPAucFMZ7otXHyNcA13nAf4xAYNQo9EQjhU1WxZEs5Rc9Zu6C2lSN4LPC4OU9LpmuKHrEC7SulLA606U/WeQp+kWmYAn8LvaoAR/BpisbEqJMc2aWDyRl10DFqBJodQT0XeOcoJzroKfKaQPHHIEH8xSum5nTUFBBliILdX2uBx37C11t/94JTw2HwqoUFPJJHgDuHSZTxJl0ohOlVUFKxY0QsROGwUlNQJzMA1ksMVyWrQgquSKJUwMmp3jDXOHoB+4b7GIvAho4YRkJY8hvNjRMiWzq4Dj6bouECn3kDD85J6ZYUvI7hDOk9A5Bh5Bp2UdzGo59unHS6TlaK3ehqToKySaroUjcRCqHNURHoO4a4sS/wmJaJUyWT0GDcmChq46LX1Z9JaayKvCvekkAkuMg7HdcuZZjC+X58F81f2wieu46ma+DXwH53zSVa5Llz4NoRkg3wKEIhVNTA22L1QTqeRRFsRphII6ni3qpqhCrGc1sn6gHug5K93XVe4+Sk0Z8xQHLV0JHYkRDW2XpGdISAJtgCP+/1W4QJw6yDN/FMDJAarkomocHQFW4i6igqUQf2ohxt3X6Yv6iSiERyrn1cTUIoIcQR2eMc/GE4RbP16B50whH8gf8dR/DVB518OJ8mcy4324UAZJhtNEEd54RC9+CLYroG88IHnf5aCzy2f8l0DfYCb+3rPF7+bRw9DFXkyYHsytstJoBRUIk2pYBtMCIGIk7RHB+/ZKUCj8skRSN5zQTlfZsZoGM2zdPygNFLQIajeRTBvoJxGILKxBiOR8CbLgTo04mKos4RRCCEj6VisIgMf8n6tmEK/K+gwKf3wbsQNroBlFTKqmJzFAFKGW6pHAnq6fPOGyA68FMs4h2mUxLOIjdSR2HKjUfyKHI6CUe5KANFI/hP/3XNwVMXmB1N18Cc/GHw84NLpmvc5WF6KV01w1zj6G2YuiPXcCSEJb82VUWUgtCwTPKOH5gCj8skScFqkR8jANJwKUomKXQMbkifZ2EkLYgmbTz66cZJp+tkxSDQtkRI9ESIuKFhcDatiACK0jEr8GYdvMSjBAxXJZPQYD7vNi56Xf2ZlMaqyLviLQlEgou803HtigxOQOJP9l34V17gsdd4dc3vYHWNFHnps1Fc4+jU2CPLW10sUlKrX0pGJ5FGAnaGq5JVoxiPk2Mfxl4gigBAA2O9zmsclRZRka8WeE2aKT5mrSzaXeJo6aWJ80KjU8edn/qVQElGa9hn/gnkXVdnS6DGBW5wIdlvIdAkhBKC18F/Igw9gucvWZNvEwIyMlydVB2D+6YAkGGI80ZQxzlBvUFuAFec2Tkcx/JhKF4Hf9GSAk89PBemZA8+75Rw5NVLVtfQRd64zqMY9g0cO3OQa7zDPPmWSHR+ZCeGQvhUVIyZiBn+otMdP6QR/E4LcIomzMN1BnEjNdW1UlbBP0zZlgmA9RLDGRKdKJsoFUiMKIJ9BWMlgsrEGI7HriIvvoct8uLIp5vEcQT/ySEL/Per6+A1MjbXcFWyKqR+UgQoZWIfmj1BPX3eeQNEB36Kxfgfq+kaHMEvO3lqWFLgtXPnL5gPq2tOW7K6hi/wxnU+9DWOXT5M3ZG8IiEs+dXzaW/USoHHW8CZRs6JHEPqmcT7SKDXMVydjD4Mxk1QEVDKMEzHKG7jUamjgKMCOenQkdgNHYNTPHaZfOsUzU4Mj+hIX7L+Cgv8CNfBp/gcTNLkzlQBqyQkARVcXA5T5JOT1gu1ekfykgQuh4xJuk8FIIoFfgoU+G//Va2DlxPZIObBSP5X088NP7n4bPgSdn7lwblRXOPmfOQ3Kp2d4jrygvJS8nj9cjU6VTIJDcZdoiKglGGYjlHcxqnJZeLOR68OBZFI3jaKk6yik+H4JetMP4LHWwA3pzncSN24U69KZaEMm3SMKqVms+vozGgG+4o9++n8iyp5Ny5ugwspjoFwcZVhipdJvm3rsSjw6JU9K2kkKgSqoopS2JKFN2RpxDOMzNKOoI5zgmqdI/mo0DOSJyXclXomt1qRxzcu4qsKlhR46j63w9U134MvXo+Ah6HmwTr5JQ9Due4RJl5isDfXmoCJGOQa7zBPviWSdy+GQvhUVEzLJLXAvw6maNwySdUkSlluhgtc3teZAbBeYjhDolNlE6UCiRlFsK9grERQmRjD8Qh404UAfTpRUdQ5ggiEkFhjX+AxqMZh0kiquLcy2oYsdDIMcd4I6unzzhsgOiiLdwowzHQNjeBhmeSSAs9nyx8XwHQNPvF62JUX6RevqJLOiZDJjCZ0+VpAJunhgcVKeOs6numIEsp5y4TAeonhqmRVSM4VSZQKOLjqDXONo5dh6o7kFQlhyS+lSDtcB+8LfLFM0pny+VMPWdci6y3yiNHU6xiuToIRAAbjBFRUxzV6GydfXZ0tTvqKfFTUnMhz3IlQiPA0vi74/fgl6xAj+F/CFE1aJqnRNIbtMyMFVcNVySQ0GPuPojaOeoQOfQO0338+2ukamaL5zHBTNFTYYJS7OGydfyxHkSBN11wO0zWX1Kdr6JNRajueZ4qfLocYbgI9MUwTZdBFVPfx/hIdIUidOC9Cr9FV2qstiz3O6l5quCqZhAYrvQNYwVEvits46ZSJc4h4xH7xEs8RKJEqGIsqOiCKUzQn4Dp4+JIVR/DmdcFsyk1hvsw5OmccM/YSz3XipWpym4AMR1BEZWI2pagpygIpMWBnN10QENFCxwki8yQU+MPHoMA/CHPwE5dyAWJbuWUJ8hqGq5Pqw+DoUlmglOFociSo45yQrx4cq4KbRxfvo1tdg+Y0RTNEgT//9pvCUVdfGiZPnGiyychq15jOMmRmWWVV3TvGYrz5amuFg3Z6Nf3QR9V4FML4MNRp8O6ai+gVB1jE58LofgIU9mWmTA3T4PdoV5q2TNh01TXCWsu/CK6/ifDD8i8Kz86ZEx5+9ilYgjk/3P7YQ2Hm448E/KT67Ow54bm5s8NScJ3ie5Pyskbt00amjL2gvFQ8jteilxiuTkKcBBgcg3sWOC9I+bG4jZOvMnGxJwLwhvuoR2DUKPREIITzhcskZ/4wFfi5UOAncIGnzGwemQNlk5IXlG3yOGbhJYYzpE8jARmuOgBUMG4FQWViDMdjV2eL744TEoOQL1HnCCKIxMIt8BhUAgppJFXcWxltQxY6GYY4bwT19HnnCDQ66CnymkDxxyBBPB+PeQ1b4A+9/Lzw1VOOib/opKFTk40ASMN53ABI4r/4eSABBk+GyZfHcf36ZCiYn9p17/DRl+8RJi1V9ACbj/jI0zWHwsNQs+EnJl+60qpU0F+x7gZhp7VfGtZ50cpQ2JdKBdu7XwCtmQevJ8Y/FLc9+mC4/J47wqV33x5ugqev73nqcfpjNAn+KPAmzRWiQMwnAMbwmBkA6yWGq5JVIQVQJFEqsAnEeMNc49SMvppCSlnbUhqSVySEBbgo8PKgU7L1Hq1p6kgncgwpZBIMyZ6FNJIqjgaFjheQTxUBpQxhvIviNh4ddXQ2KpCTDh2J3dBJ+JPwPvixGsHzF2LldSbJuD4xUm4QNd32m+okSgVRVyzbOCoSWiYmPkinB0cnY7G6htfBXzzECP7w6ReEb5if7POpZ51U7RqjUye519w5o36SXgPDZIvFFP9/z3a7hL9/9RvClImTRGtYAj8hHHvdZVTgd33JRmGDlVcdtUv8A/aXB+8NV957Rzj2+ivCzY89SIXe3iXUpNQuDeQFvr9Ry+PMeqnhqmQSGozjqwgoZRimYxS3cVTqHMhEhZZ7ihFBiRRlvHd5qY6bosERPE/RVPSTK4dU/qp6HJPyEs914qWqzyHDERRReRUkW9YBTVEWSAmw74Ij2KFDxtFD4ScJ4gge18EPNwePUzRc4LEBZdNNBok0ErQw7a6SqmNUUVNZoJRRJ4kiqEzM6Q1yA7TGp71z8im3OAc/NSy8Ao9NyjoC2EyiOgYwpOJ1dyiFTR3jqwdwNP+hHV8VvgRFvrcvo4NFtr8HflLwcHi46sQbrw6Pw1QlfhLg9tORGcnQC8pLyeOma5IHg9dJ0EuAwdHYs8B5QfLP4jZOvsrExZ4IwBvuox6BUaPQE4EQAdfBmymazcsHnTi82oBEGaKUTdpeULbJ4+jOSwxnSHSubKJUkGKzDgAVjJUIKhNjOB67Olt8d5yQGIR8iTpHAMH4FXgMajJIpJFUcW9ltA1Z6GQY4rwR1NPnnYUpOhhqumZsCvz5MII/zv3odtmsrCOAzSTQLUliAENWcdeXmT0+sIRTUZ/eZa8xn67huGN5xE8el8O0zY8vPTtMv/dO+oSGAxXpAyE4qgrK/kYdxckCWC8xXJWsCtkVHcWjUU2A6tWTE7XOaxy1bB+IVSIkruknq2NwFFcKPN4ComUoJ86ZqKdmBY4KDs44Zps6BjBkjOMFILOxAKzgqtPGo6NGRxLIgTp0JHapQwX+A8OO4L8X4gi+HNuW15kk4/rESLlBsXUGUDJRKuCeSN3cxlGR0DIx8UE6PTg60fGeM+19rQEVeFgmefFn/nHUDzodPh0L/LFQ4Kf44MD51LNOqnaN0amT6DXGMTgKlAUqMTxd8zcwXYMj+bGcrolJjP0ev4T9ETxgdcz1l7uHrKhJ2sgU2At8f6OKx5n1UsNVySQ0GLdaRUApwzAdo7iNo9JQRZ4cyK5Mw+QVl0nyl6yvhRG8rINXLaUwM3TMm2Oyixt1PI6sl3iuEy9VUxIJyHAXvbwKki3nA8YVe1Uqi7NgEqhDh3zHADbM0AX+IXhd8K+4wKNn6z1mWDbd6CTSSLwPAxhSdbzQRAcgw2I2KSc8lIlZlYFugPJPWnTRNV0ztgV+MjYky9uxBY7q3gL1k8QAhlTcqCKJm+oBlRiZroGVNV989T7NP4bRw+Kxfx5+KBx/beqnl/5PmDV/rqwIoiZpI1OyXlBeSh7HfvESw9VJ7VmDY3DPAucFKT8Wt3HyVSYu9kQA3nAf9QiMGoVeEnQUeEpBAjoHDYbEDvM+iOvBsUVexXCG9J4TkOGqA0AFQxw3gobpbPHdcUJiEI0H1JgU+F9CgXfr4CWZGMuzJHOdkXCvZrgqWRW6tlEMo5YCy4Ggnj7vHOVEByOerolTNDCC/+xYjOCxwOPmG1o2y+OonknUhwEMWcUxMm5RL2mnwzyYrkHk07vsCdM1e47p6hoKuhB2+IfpcFiW+f0Lz6AlmfgbB9IHQl7jM9cAAEAASURBVHBgFZT9jTqKkwWwXmK4KlkVsis6ikejmgDVqycnap3XOGrZPhCrREhc009WB/D4Jesf4zr4uTiC52WSxphtRISCNhOhDhwVHJxxzDZ1DGDImJQXUOoqAkoZwngXxW08Omp0pHPSoSOxo85YFPgDoMDTu2jcOngJxJlVBsxGp06CbR1QaaJUoPGIauMIEzr0DTCy6ZqFU+ClNdRq3vmmZZ1U7RqjUye519yp8dHBMNnSsksomi+k6Ros8j+/7JzwM3jQaj7MJnABpCaZPol97AW+v32vkH5Sz6yiq0xddapG1h3QoKMG6i8inTgqcxuRrm5dRR4NKHZMIE8jLpOsFXgxdIRvh/PmmO6Cgjl5dc4Sg8UNcK9iOEOisrKJUkFyZnTKwJkOGFfsVamjgKMS2XboJBxV8WVjhw8zBw9TNFjg6UEnbJfL2zEYrrvPk7q3MlydRK/kmw+REWnEjS3jfCSo45yg3iA3wKDTNegP18EPM4I/DObgv3kKzMFP5hE8esXNN7RslsdRPZOoDwMYUvEynPGljmW6BlbXfHH3N7wgpmtmwXTNl087Jpx+61/ClHytvO8M3x/I9eBlnxuDOqkxDF52P4AZjjq4RXEbJ50ycbKVHeAN91GFQImkZriK5hAo8KvAk6w4gh/4QSd24aIqY+KxJhwVR9JwSSeTFDoGNyQaK5soFSTfrANABWMlgobpbPHdcUJiEJqiOWIsC7zvCNcrBElu3NrMIOFezXBVsiqkAIoApYwNrno9fd5Z5Ml33xOvmgD+4MdFQ0zRYIH/BhT4aZOgwKvb1C4vKJvlcbTPJOAnSQxgyCqegidLb/9CnK65Dx6G+sQfDwszHn1Iirz0gRC+1ciV/U1SVoxHsPcuDFclq0LypUiiVOBikrienOh1XuOoBfYN96ZBXoemaGyBLx50Isecg7pXCgMz7pRJSFAHjrYOzjhmmzoGMGRMygs0H6YqOEJRDPsGHs19R5LM7si2QwfwOEXzqbDvaNfBmxE8r4NPYU0mZSPK68zo1EnwVwdUmigVSA5R1MZRkdAyMfFBOj04OulbXYPLCLnA40/3jWbjAr80FPiYd+4ltdWIfeoZnlgvNVydBO9VQ5ZGPKngdA2uk3/vC2h1zTm33xi+dMpR9NoDvr6xS6lJpk9QJn0RmUqhzwwS66WGq5JVoyw66BjblI7RaeOoNFSRJweyozSyAr+ZrIMvchSBEL4dKsY0MYps/uJG8chwVM8sxHcGGDZZeEOyE1GZmPiNOrAXZYGUAPsuOIJtnSdhedjhHxjbAo/JUU4uMcdQ/mXTjU4ijYS9kq1tdFXHC406ABkWHRq3ZWJWZaAboGu6BgvdcviDHzCCH4sCj8lRk4p2eUHZLI+jk0zCnh3gdQxnSMkJCeNYpmtgdc3nXvm67nfpkO2i3eHrEb508u/DWbf9BXL1T+dSc7M2u47ClvfgpmtSQ41BnUSvUdfgKPAscF4QbUSvjZOvMnGxJwLwhvuoR2DUoHXwOoLXAk+BrFvnURmlQLnBkNhhmXfACjiXFDrGwpDecwIyXHUAqGCI40bQMJ0tvusnhEbwHxy2wH+3WAdvwsaGaGuErzdLLKVfjIR7JPowgJJK5f2qCFDKSD5MEFRPjlW6i3x00Fxdg++DXygFHrMr2uUFZbM8jvaZRJ0awJBVHFPBLeol7XTA97zjA1Fffc2bwge23627L6ObRbo/f+bN4Qsn/45elWDvIukDIThNFZT9jTqKkwWwXmK4KlkVsis6ikejmgDVqycnakON5CUuTFu6Ofi9ocBn6+BFl0OLQAjfQSoGC8dEzokcQ+pe4jl256WGq5MxD4MVTUHHFRz1oriNky84WQ3zGIrAUkemaLYZ5asKaIqGCzwG8VmksDGHmKihI1leZ8ZHnQTDOqDSRKlA4kZRG0dFQsvExAfp9ODopDZdg6tolsP3wX/2n4YcwaeXjZm+iHm7NIFJbTVin3qGJ9ZLDVcnNY7BMaSyQCVmNrwA7J/23je8c+uXu1dcmBQXGxLfhfPZPx8Zzr1jBr3OQBqRMqQmaSOtVNrg+xvFmUFivdRwVbJqRDFVHShlJB/NoI2TTpm484EfURruox66h/fB3ykjeCzwuExSrCIhLLsXgRBqQpmxYsH0fmwq26QxyCuwXmI4Q/rICchwp1MGpnCqA8YVe1Xq72x0YF2MSYH/BRT4rnXw2oCUqs0gisqmG51EGgkYGQ5InNvFj/+4rG0yXFARTTpG1acCQIalBOlAUJmYVekffYJ9Pl1DBR6/ZP3cWBX4olWVdvmGls3yOPZLJoEgSWIAQyru00GOLYnC4r7+i1YJvzrww/B635UJH3aHb4x8etYs+mSAvibBdMoKU5ce1q3Ynw1TNJ/9829TgUdxpeVeVOr04OjSqxiuTmoMg1ezy3DUwY3E5cUQwbQfaiSPMeB1wXce8qe0ioYLPDqP0VOYrPEuYWWUYns2V4QoZZOCEQBpuBJHSaFjLAyZVL2PDFedwmmyiwcy6zkZnX9RJa4W+TEr8PiyscY6eBPWtEekJKs3y+gk0kigqOMLDOF1sDBPihfh+qusGjZZfS0YFU8OJ1w7HR6sMXOm1hAiKguUMia/SBJUT050O2+A6MAV+TEp8Jfjqwp4BI+paCOEEoJT9YKyWR4vr3ETx6gaUvPwQkogiiYEfGL0TZttHX7wlvdyYqM+4uj6wjtvCRffeWu4At4l88zs58nX6suvGF7z0k3Cq+HfumPwR+SBp58IHzzmV/Ca4ceqRV6aKwQ3SQVlf6OO4mQBrJcYrkpWheyKjuLRqCYg6QHQwFiv8xpHJWhcy0W7wJOhhCCicCICIXwgFWMW7Cz68myBo7pX8RyDXmq4OhnjGIyTUhFQyjBMxyhu41Gp3dnqJOqMRYF/O4zg449u53n5RhDnRI7h1OmoO6MDJD84QzcLMC9edvmwx8ZbhN022DhstvraYVP4NxOWtb35/30nPAFr/OPKh+TDuGL/UdTGUY/Q+t3JbgYYyet0zZgV+Or74LWRMW9JMRGKM+KbluGJ9VLD1UlwXTXEj1r0ZeXX93xLOHDrnTmFUR3xV8T+87yTw8k3XRuemTObvrCdmOLOgytl1ry5YdNV1gjv3ubl4b3b7poNQEYWEj8hfOe8U8Ovr7wgLOOWppoO4FZ7EUsloO9vFGcG1a4zOlWyakQxVR0oZSQfzaCNk06ZuPPRKvK4iubOH9VG8GwuSUVC2AZOyTDWwZCftjPyULYpMwDWSwxnSJ9GAjLc6ZSBKR/VAeOKvSoNVuTjg07wJeso5+BvfvC+sO/PDw6PPPtMmMQ5u7wcE1N2IsdQ+uyG24IjdZx+mQc32XJLLx2Wh4/eW6/1kvAGGAXuvP6GYY0VVnJz2c/Onh2+dMIR4Tj4xSN9ECjFycIpC5QyHFqOBOWJCRqJQUY5OF0z5gUew7vclYl5x/x0rziZejZ3Rr4LFQ5oAEN6HwbA84i/wnTEu/4uvHTl1TSlEVKPPfds+MyfjggX3XUrvcxsMpwb+uNv/OD5eA4+LSwN0zVf2f2N4T3b7mLQkZMn3ngVfNl6FD2kRtbSLiFU7EUg94LyUvI4qnuJ4eqkxjA4JuRZ4LwAVWgjcZkYw1GnB68V+f4Cj65jdAnmcmwwDTE7I1+Z2+TfWAJpuBJHSaFjLAyZVL2PDFedwmmyiwcyG0Vni5MUF3/w40hYJvm2URb4+598PPzd734eLrr9ZpgSmahfmLl2KSOUENpilxsUAvxvDky/4BeVL11ltbAR/DTbrhtsEvbeZAvgV9dYYqjEkZdfED53/GH0tsYYygQ0pI8OQIapR74EOxRAubPIk2m0p3Xww8zBwxTN12EETw86+UZgFpK2UEIw5AXlpeTx8ho3QY2qITUPI8QC/1L4wY6TDvoCJzLi42wYmX/jtOPCcddPp9cl2/XphTOIDT/qRO/B+fFb3xteCT8YMtrtintnhk/+8Qj4ScBZ8doz7Rppn5f9jVk5h8R6ieGqZFVIzVUkUSpw3UHDwgbGip3XOCpB46wLV+Dn7L0pPMma/y1OrsUqEsJK5IJwgToYzCnbMgGwXuI5Br3UcHUSYgJgME5CRXUc9aJOGydfWWezfz4+AevgscDvu83oPy7f9djD4UgoOD+/6Gz4Ee9Z+lIpbYRky3EJynA86/hlKXfJi5ddDor5luGV68P0yxrrhE3XWJvNe483PnBveN9hPwn3wtOI+BNyGipRKhBfUdTGUZHQ8mIRH6TTg+ObJnGZ5CVQ4KeN9kGnVOCnwnSB+xI3pR8TUibm7dIERnFGfOoZnlgvNVyd1DiAz4U587dtvl34jze+k0OO+Hge/B7tJ/94OHyim58KrS8oNYdzYbCw1Wprh18f8OFR9/mt8LN/n4C498IPhdif+tNuNB3ArfYilkqKvr9RnBkk1ksNVyWrRhRT1YFSRvLRDNo46ZSJOx+2yGuB32KnBXP23oQ+wzZim6SiRqEnAiF8O1QMCSlDlLIpWS8o2+RxdOclhjMkdZB0RwIy3OmUgTNrMK7Yq1L7BsB56iNxHfwQBR7j4M124nXTww/POTX85f57aPQ9EX6n0+flk0QOR+k4qsMbH6deaPpl7fVp+uXlMP2y5oorjeqGxHzec+iPwjnwLhEsgmVkCO6FhgUgw7CNvBHUcU5Qr2uUg3/IloMfjb54qBH8eTCCP5bahvHGqsiXzco6oto1SceoGhJ7A1OkDX80+2Ov2DN8frfXsWhER3zlwcEwF/5fl5ytUyXoARLXKKVL/BmSZacsHb7/pneFXdbbsFQYQPLUrOfDR0/4TbjqvrvCVJj2cfGEEYI8EudFIPeCkfe5sa+TGsPgmJBngfMCVKGNxGViDEedHpzPiRZ4eBfNnL02hQKPs5QdJyxGl2AuxwZTFztpbKsXUR42UAHnPQQKXsdwhkSfyiZKBTZk1KxgrETQgJ3NNnwcqwLP/u574rHwvbP/HI696lJatjZpInzt5XKHudI0/RJXv4SwAUy/bLjammG3l24c9tpkq7DBi7unXzhW3/F7/3NS+N45J0M/xwQ0DaXMSSB3igClTBGKIN+wUqeBxwIPLxv73D+77w4KBx2Cw2gEfzQU+Piqg4ELPPos2uUFZdoeR/tMok4NYEjBscB/ete94Ae6X4uZjHjDT5wfO+7XUGTv9KNo9ASJ+5jqPn46hD8uO+8JsfdSYATUs7NnhY8cf2i44r6ZHQUeHWoWQgnBAVVQ9rf3QRagrhYZbgAllcoMDZt0jCpnFyMA0MBYr2sgQzrQOHzQSb5kpQJvXhfcPGUSOBLCSuSC8Lk6A8dkBQn9eBxZL/Ecg15quDoZ4xis2oIKrhkC2MDJV+UGwFU0R3zw06P+kpVztEcckZ8FKxu+e9afw1X3zIT+jCN5LOx0QcDdhtMve8L0y24wp745TL3gFMxYb7c9/EB428+/G56Y9WyMmwJoFyVKBZJCFLVxVCS0fneqnwpOBR6mZi7+/PAFHt9Fgxu+3wa3gQt9ahoZ0a4QZPdBhifWSw1XJ8McmBD/jzccGPbdcgcNPQLqseeeCR846ufhlkfgx7Jh6q3YKtc46zwLK23eCSt3/vV1b2fRiI6xwP8mFfjY7+jANNUwTpqulTxcpuPZ3LP49mqGq5JJaDDOQkVAKcMwHaO4jaNSX5GfMHlSuItX0bgCH61bsU1SkgYlJTtJWgjvS8WYpjdTNsm9oLxvPY7uvMRwhkTnyiZKBT4nUq6ASSsisG+rAOb/ZOLHzh8e8MHwoV33kFhjRdz92CPhp+edFo6+8mK4seeFFZZeJmy9Nq5+2Sa8YoONwhrLw+oXeKJzYW34B+WA//5+uOSOW8PEiVoMfPckzgtNFwKQYTZfgsqLwaoUN8CYFfiTj5ZVQlzgMbC2FBiXuzIxb5dmrpwVeNRVe7IENpOojgEMSVN53957v/Du7V5BLka6iwX+F1DgH6gXeHSYXeMcA1fUvHfbV4Rv77Uvi0Z09AUen7HQlillxU4atb3IKlMu5aWUGQDrJYarkxrD4BhM2USpgHLhHYnLxBimY1eRxymau36clkmWBR7tfVHyniPOMpdjgxGxEN6HcA4XaQwFWAHnkkLHWBjSe05AhqsOABUsJpWgnpNhbwC8aL+w15vDt97w9qIQsc9hj8fCz6A99NRTYa9Ntwwve/Eanatfho2V2x966bnhH/74O5jKgBvS9JuSSlkc/SgClDJ5iAj19Lm9Aca0wJs12VzkBy7wvpGpXb6hZbM8jo3PJNpzBmASvxv5BPzC02d2e33Rj4MInoHr9XN/iq8NmALTf80NEueYqIPf9eB3Ql+EuO/b/pVNsy7gOfgE8JE//DpMvy9O0diW21gusGFERwiOpoKyv1FHcbIA1ksMVyWrQnZFR/FoVBOQ9ABoYKxnr3GW4bG7wLMm+W9EEHEkhDW2kVREKcyAFfHomFGMYrw9u/NSw9XJmIfBOEMVAaUMw3SM4jYeleINgDfcJjD/fezffSmsttwKzs//Bubmh+4L+8GDWE/AclBZTmf6TclEqUCaH0VtHBUJrd+d6ifhY17gJYEYasSFvmhzIcjugwxPrJcazpD4KokPw5sk/x5eNDba7YgrLwrfhGWSy8IX1a17gHybIo8vN8OH4n6+/wfDRvDw02g2fD/8x2AO/mZYTUM/AiLtEsKnI2IhYlq496JCUF5KmUFivdRwVbJqlKUCOsaWEk67KG7jqFYr8oMV+Gjdim2SkjRSWukgSQvhfakY0xRbopTNnRE/yMnwLgxnSHSmbKJUkGIbnTJwpgPGFXtVikUe15r/17v/Nhwwyo/N4m8xJPATyt8ff0Q4hh56StNBpk8MCdknzgtZGvEMs00mqOOcoC7eAAulwJPzmA0XeOQGHs0X7fKCslkex07KJBA9SQyAq2D2fNlm4af7fRDTG9V21+OPho8c96tw26MP05edHKbqDBLH8DhFuN8W24d/e90BVbVBhDfCYOHjJxweHnrmybgU2LRL2gqO6mInjTpelFtmf1Qxw8wAWC8xXJ1UHwb3nhOQ4aiDG4nLiyGCaZ8X+REU+BiiEZujSzCnV2EqIk5RfMSIsHfKIo16gBVwLil0jIUhvecEZLjqAFDBYlLcHR0K5CiuallvpVXCEQd9Omy82lps/r/miGv0P/cHfOgJRny8mW5RUqm8XxUBShn2JkeCem4AvHPxQadhv2T9GszBy4NOnEHKjYv8wAUe7Yt2eUHZLI+jfSZRpwnAVwW/BF40dtKHvhiLJOc9wuMRV14Y/v2cP8Oc/gJ4BYFrZeFpFgxgtoB3FP3kbe8Lay7/ogIfVHABvDb4U/CgE34akCImDRbC94GKIYwyQgnBWaig7G/UUZwsgPUSw1XJqpBd0VE8GtUEJD0AGhjrSf+AQAs8rIOfvdfGYQKukuzayH8jgogjISz7E4EQPlcVg4VjhvuLivGTu8wrZya4UU0YWHgjkquojqufNh4dTYAbBW6CNdYNh7zjg2Er+CL0f9N204P40NOPwz1PxIeeXGdqJ5ouTkKDcX9EURtHPULrdye5oRE8TC9cMuQqGizwxYNOkgCFWuxW1+Bc+ApLTwu/hAeOthxi5RSu1PrtVReG78KX+PjyMrw5ZQoOmo59jF+yo95mMGj5t9e/PWy66pqxU0a5/yX8CPf/PfckWH9vBgrsS64VIcz1BEoiFoIsifMiqxx1enD27dUMVyWT0GAYzLPAeQHlo3ptnHTSPVAUeHy22H9FIn6VAONGbJNU1Cj0RCCE96ViiKcMUcqmXLygvK89ju68xHCGROfKJkoFKbbRKQNnOmBcsbdKs+bMDVusuU745hv2pyWM+S/YiO4LkDjwV98L5912U3owyHREnYQWJsDg2GxlgVKm6BGCGueEp2gu+cK/DLEO/rzwtZOPSe3JpmJMojySR5Eb57rclYl5581RnFx7FkSZANhMIjrY9onw1tF/gHfDvH+H3dDdqDcs4OffPiMcctEZ4U6YtsEXjs2aOxf8B1pdtMKUaWHXl7wsfBLW3K8D7ysaZsMvd//hlKPDmfDa4OIhJ3TsGqyMUlbHSaOpF1ll9D7c4NL4NqTG8ELTlARkOCXE1o1rXHQALws8vqoAnHaU8NShHRqUlGamFGeGKahUKSfOmWjhlL2fmDfK7JYZAOslhjMkelA2USqQAFEE+wrGSgT1nAy8ivBLV1xf/NFd4YGQ1+wTVoPXrr5QN7wpb4EfJLn+/rvDf114ZsB18fR0LTXIdFaVrAozS9Axank/EVTp8zEp8JdBgYeCU33QiRNJuXGRH7jAo33RLi8om+VxtM8k4vS5eXPC6zfaMhwCUyaTu1bCcDt6jjiCn3737WH6PXeE+556At4FPzFssNKqYdf1NwqbwKqtsdhuhmWZ7z/6F/Q6YnquA5wW7ROBEF5Hxc5axEJwxioo+xt1FCcLYL3EcFUyCQ1WiRxFFR0EqAI3MPa1FK6Dp2WSaYommHfR2LkcNnBHcN4s8xI4EsKyAxEI4TtIxWDhmOH+omL85C7zypkJblQTBhbeiOQqquPqp41HR+gJXrUKI6Et11w3fH7PN4b9t305QYv7Dgsn/oG68q7bw7nwioIL4QVoN8HbLu+FF6JNg3fE84Mx2lfYIsNVySQ0GPdDFLVx8Z7dnThtsCwsb7zsS/86+hE8FnicooF2xS3m4Yq4JBA1RlzoizYXguw+yPDEeukE+MJzPqzYWj784oAP0fRJasBiffjJxWfBJ4Uz4c2VsDRTGtSoPAbnRokIBcIIQWrEeZFVjjo9OPv2aoarkkloMAzmWeC8gPJRvQ4c1sHf/ZMT4Qc/KgUenTa6UQLgVdaIbZKKGk6vwTTErsmk4xS1qZxYdl87e9IBe+/CcIb0nhOQ4U6nDEzhVAeMK/aqFPsT1/2+CB5OeucOrwif2/PN9F4Y0VmMCHwa9wEYuZ0947pw8g1Xh1sevh9eX/w0/ZHCOWp5MVS160xH1EloadWQpRE3tq2uwXeKo68XTZsW1oYpg+M//AWYShjdg16HpQKPT7Liy8skR6BaRZ4LPGo7HZe7MplbNINNceI8W+CoXqiA5Nk5c8K3X/vWcNCOr0Y3i/WGr/P4m9//LMx8/BGd56dGxZYV7XMCZZSC5gojBPUBcV5klaNOD172uTGoklWh5mMpo0ritCNxo+7gFE27wKMDsO4o4amzOjRidMnH5SiMENr3KbYYeiRyapbUjABIw5V48u91DGfIpOp9ZLjqAFDBknHKu0OBHMX+xNEmfgTeGeYyv/rat4XXwOsF7JdZ7HO8j7j88WaYfrkWXoVw8o3X0GgdZZgb/9NPf6atiTQSSN1wVbIqpCYrApQyhPGXfHPg9bb4crFN8AdJ4JmDV71sk7AXTFEsN8RPytkCj8FskXfFmzKBXcqNi7zTcXkrI5QQmbPElvd1ZgBsJqFPWuvBNMph7/oIPNE8+pUtnNHCPP735eeF7114OoVw7SAmSpwcNUUghIoc7hnRFgJx3FRQ9rfHWV0tMtwASiZKBeTGW7Z1oh7gNfveAp9C6Q0rsT1B/isRYnT2QsdCSwRC+FxVDPaOyT6mumAxJqhnFlHO+wQ2dQxgSLAGzgvIo4rqOCpFnTYeHcUij7r4Dm6cDth3653CN/fZP6wBb3kczw3/0OD0y9V33xHOvuV6ev/8jDT9giP0KTCSjW2KWZU3gUHrJBjWAZUmSgXSBVGEa9zhP8gVl+5h7222+prhNRtuFnZcdwN45846AX9Kbiy2vMCjz1jkkYrZuCKuYqQgy4qOa5cyRClL9hwjMXTwfZ4ZJNZKcfnih3Z6Vfj6nm+1bhYr+j6Y3vvIH34TboGHm6bWvi+QBjUGmAbnhokIBcIIQWrEeZFVjjo9OPv2aoZLpJFoDC9kVxSXks7wBCQ9AA3eP4I31o1uZA1w3KEhQSMhLFo3mIbYGZCOUywcDvdHIPOtbKJUgIFpE5G/6xg2OqApyg6OjOlPnGLAh6J2WPel4R9e+xZYabP1mHxJVolaiGbA+93/8ZTjwmUzbwlPwvtz5sB3BPj6AfxCLSVa2JRNNw1NpJGAveHqpOoYHP/4zE/TLytNWzasDC9S2w3etbPXxlvS0lN8Qrh3cFJk3y2oFXi0sCN55FtFngt8oWPaZfuDxA5DSy/o7O+kbi3wD+Gy8CnmZ/sfFHZYZ33UWOy2H8HI/Qcw947v7be5u0QJiGih4wTKKAWehBGC3BPnRVY56vTg6NurGK5KVoWaj6WMKonTjsTmYvAFfs+N40+wWAtLg3VHCU+t6dCI0cljkZ8IhPCdo2Kwd0zkvMjrAFbAuaTQMRaGxOSVTZQKEKYtimBfwZyOORksd0fA2QV+kYmFfjKMUD/ySnjt6+7js9JmPiydPRreafNf550erodij/FpqogTo4QdU/mjikpGJ5FGUsW9VdSm6RcYB+P0yzIw/bIpPEizOYzWX7XBplTYl5s6Dc0W2tYq8BjQFvmiwKNCajAXeafjOkMZoYRAR7h5QXkpeRzVrQS/zN9pnZeFX7zjIJjGWjq6XEz2Z956Q/j6qceGp3Hqj35QXu+DIkVqVGyZbR/piUAI1wctRrSF4KgqKPsbdRTn+F5iuCqZhAarRI6iig4C1FPsxk7RzNpzI/hFJ9KIDhr73hEROG+eDkkqEsJyLBEI4btMxUWiZYc7Zep7L/EcB/JSw9XJmIfBiqag4wqOelHcxsmXKfLI41QErpvfcq11wxdgpc1+2+IvQjUCkIOx2d0Fb6g88rLzwy8uhl+PmpV+PcqFdQwF7TwnRt2Qvi0JwKIO8y+wGgffcT+B5tP32HjzMZ9+GaSnDr3sXFoHXzzJmoxfKNM1OGCYDZ8K37f9LuHLr3nzqH7cZZD+GqkOrr769IlHhnuefNQsrQUv2X3g/MoF1Kg8Bmc7EaFAGCFIjTgvsspRpwdn314tcUZoSI3hheyK4lLSGZ6ApAd9Mdl8yYoFHpdJ2r8AbOCO4LTRjarWezI0M6XAvME0xM6AdJwipuMFnQUnqWcWKI2bB4znBGQ4GomoDJycsg5oirJASlT6M660mRYO3GEXKPTjs9IG5+L/fN0V4RD49agbHki/HgUjet3KRpRNNzqJNBJwFTma+1+AI44Aq1+WpffY4w+T7L3pVgtt+oWC9exwBP/Vk46C70WmlNMwydaO5FFke4hUUoN5JF/ouA5RhihlyRX3V2Iqn54yA2BZgn2M29/v/qbwQZiTn1ieLHY7LscHn34yfBbeWDn93pnwm6/4WmCzUdIdlSfhaMHtE2snUEYpa+Sk0ZcXWWUKUXZbZgCslxiuSlaFMRbtcZd0jKpACcX3wcsqGi7w0RSsGobkhOAOBYKGPRnqX6mUOSURMxWSIaec6QBWwLmk0DEWhvSeE5DhqgNABUMcN4LKqySCvAc8d4E3KK+0+crr3hb2gLnn8Vhpg78e9X341aZjr7wUHkCZFSbCR0HNTSlqm2dTa4zQkDhKxzbh9w04/bIZTL9sCtMvr4aXZO0Fq4iWX8jTL9zVXcefXXBG+JczTkjr4GHlUEPZFvmqTmo3F3mnY/uk1rMOxwS8oLyUPI7qLMH+xidcv/jqN8LSyVfRJ6RGkxaq+IGnnwj/ed4p4YQbrqQf9K4Go6TL+0B0E448t89jHnE6DUbEQrBHFZT97eOQBairRYYbQMlEqYADGz9tHVReCv5IVgt8DA/GFecSBYgl0zV5F9X7TLuxjsf+TntVtl0d6UqRR/VZMB+9NKy02X+bncLX93l7WGOFhb/8DQvDWTddFw4+68Rw7b130fyz/nEpG1HeBFGH59Rx9QuOIHE54x4bbQ7LQzekX5xafTFayoefYD7zh0PDiVCEdI1/X5FP5xUOroirGKlFuroGf85vEryz/UM77x4+Dr/bSq8DpqzGZ3cjTMt864w/hCvvu5OKe3n1ZHlU7gPREOPGHwKDs42IUCCMEKRGnBdZ5ajTg7NvVVOKMXRkpMp5YamT4eQHBl73/OTP8UEnO4JHEDfqoophREkh6oigQvSeDA2gVPSt3hRRqkfHKaInL2gVHIkJ6pmFQBlg2GThDclORGVg8Rt1YC/KAinR6E/8Ahb/bQcrbb6891thpc1W47LS5m54COVn8AXs7+HXo56E3+2cJD+KXDaCm45/HPAla9hQXP2yCq5+gTXqr4Oct1hz3fBiWP2ifyy06Yuawra+8effgU8tszUVamZfkde+aBV5HsmjY6ejpoAok8JqHkQpjiz3typ5HN2xBP944fY6+BT4lT3eEtYep+W4Z8GTz/9+zkn0U4DL8NPBjWtc2kFJNwo4KiVcSDFkjAXceu0HQkQshIq9KHc4oj6PWRiHVbIq1HwsZVRRjKtoOgs8KdmrgJxlO3Da0dXS2VlsdUJARAsdEQghFyQ5UDGwjomcF3kdwAo4lxQ6xsKQmIuyiVIBwrRFEewrmNMp70yGk6N2j+P7t/E9Ix/Bd9qM00obTOq4qy4JP6GVNndDcU4rbUxDeaSOP/i9LMxfb7oGTr+sFXbfcHNa/bI8vOlwcd4w/38+9bjwa3j4BtvnNjqfgxX5zDK6SdcDF3mn464VZYQSgjPygvJS8jieIpZgG5+HT4ObrroWTNnsE3aH3+1dWC++wx/xOPraS8PhV1wcnqKBAS+7Te0YlyLPLdc+oOgqBlYZoYQo+7zsb9TJDID1EsNVySQ0WCVyFBkdX+D3gC9ZYUlcbesdyYPRkumaykkznc39qiKglGGYjlHcxqNSu8jjjTp7Pr6hct3wRfgCdl+YuhmPDVfa/PzCM8Jhl10AryuYQ9cEpELvosELf1N4fexesPpl55dsFKdfxmEqaazafTgU9n8+9fgwB6Yzmp8uoJGuOJvgL5TVNZgyrq6ZOnFyeBV8qb3vltuHveCP8FgVenyVxfHXTw9/uG56+Au82gJf+dDVn41bRHu26w+BGDfuFYOzQxGhQBghSI04L7LKUacHR99exXB1UmMYHIN5Frgk8AX+NVDg8W5sbL1Fnvz6UIWr3pOh9kqBlwbTEDsD0nGKmJUXYPHxWyYA1ksMZ0j0oWyiVCAhRFQGznRAU5QFUqKrP0HrubnxnTbvgJU2n9/jTePyTpvZsL76D/ArTj885+Tw6LPPwPTL8uGVMBJ8/WZb00vUFtfpF+1UTz0H72459upLwr+cdjx9oa0PeHk94uhc9RV5PaHFH4ME8UgefTodNQVEGaKUpVQsjoLyUssMgLUSnEbDJ17xVQ+7wPch+225Q9h2rfXCytOWowfdUpCBDk/Pfj7cD+8sOvPmG8Kfbrwq3PrYQ/TAXFxqmgXOPfZc4zHpRgFHX9So2DLbPgrjBMooxfbiiMyEc4oiVZ0eHHPzKoarklUhxVMkUXAwBX7HBbP2gAed0uuCJcOMGLrIU+xhT0bRlJilioF3jD3HpkVGB0jDJZ1MUugY3JBorGyiVCDxowj2FYyVCCrvTIbjsesGAAd0o0LR3Xm9lwVcafOajbdoj5i856E4fEXwdfCl2Ws23DKsAC/5eqFt+BK1K+H1DPiF6gkw2sQ1+DzS7Py0Gk+aL8ym8S+U1TWcMl4/c2HcB+ub4BehVg67v3TTsA0UenxpG/6AyIvh+5Mp8L0LDw3xRRGPP/9swBfRPfTMUwG/QMUvT6+4547w2HPP0qskJuE1m67roa9xTDT1OR04cXtMuKgWmEecnwYjYiHYqQrqt67ifO8bCTgxXJVMQoNVIpMI18GnOfgdFzwPUzQT6HXBbQdo1VvkUafeMgpKOzzBynlKgEgIy1oiEML7UjFYOGbEo5jcnt1lXjkzp17oeAHZqAgoZdSftKCNR0cd/YkK0N/4Tptpk6bAdM2O4Rv4TpsX0PQItXEh73Ba6yn4gfCzbr4uXHDHTeGa++4Of3ngvoCfSJaZUr55cpBr3I2+Tf4vpOmamHa8OHG1Da7Ywp/OWxU+meEPe6y0zLL0Kl/+1IG3/lPwSgv89zD8hip+IY1/APD1Fq0+i96HvMYx0QHrSoxnTgjZMq+oUui7xMVMsIZOD46+vYrh6qQmZHDJJ6UxAfr8np/SKhpb4JNaZphs6NBb5MG2s+SQ7w6NhHNMl0qDaYjBhSJEKZvcewFeoH7LBMB6ieEMiT6UTZQKJISIysCZDmiKskBKdF3cqAW2c2GlxDz42B1X2rwl7DFOK200ycWLwpUjj8E0Ev4wyZkzrg3n3jYj3PfkY+EJ+NIPR6L4ymNcutn6JctWwaJW0rn63zFdE89auvjSAa8lHN3PhyM+XW0vTny9AH4RPSktfdWzDsbJXmXWexsnrQGucQzQCJFiR7TQcQJllIIMhBEipoV7LyoE5e2dGQDrJYarklWh5oMZ5AU+PslKOjFB44OlfBzPIl+kIQIhfOeoOLaDk2bO4QgaAZCGS5aZpNAxuCG95wRkuOoAUMFSAhEqrxKG47HrBjC+586bn1ba7BE+OY4rbXyyi467H1Zw3Hj/PeGSmbfCGzJvCNfhU7lQrHj1z0BTMSn9sSry1dF+Omc8OnY65nzaC0fEQnA/e0F5KXkcL7hMAo6SxACGrOI+emnPOB4JLROzKqDUUcDVCWfqbQ0upNWQxgjh/agYrJQRSgh2qoJ6sxRnd0biYjCOnlUnUSrgwKRDc/A/PQnXwccRvPtFJ1JtO4iBAK84lyhAdN4A5KTjhInvSAjLAUQghE9HxZgJW9Gx7HCPo7qXeI5BLzVcnYx5GIyTUhFQyjAcc+Z9A49wR3+iArmH1+tCQcOP21vCb8F+Yc83pZU2XY7J+wtyR9MvMGVwwe03hTPgx0muvffOMOOhB8Iz8E4dHKVPhvXCrY16pLxYnPog17grzsb6hTpdQ00wl4shAUqcF7I04hnGXRLFsG/gMW7PNY5KXX8IxHfDj8F9Xomr4BRSdmxVCspLSZxFI2C9xHB1EuwSYHB0thSug+8u8KgGVpkhSnmjLurAo3mHAkGNjsYgCdd4TDHGvMZQqkfHKaIfLxirk+E9pxg+FKpo9DIw4aoDxhV7VeroT3ESdfjXo96x/csX61+PkrYNSPD0yy3wZe9J118Rzrn1Jvj1qcfDY7OeDRNgRgHfY6/vXunuT+rqjnNCXdqFRwcDffGKvoo/Bulc80i+0Ek4yu2FkcJGseydMtbBbMsEwGYS0E8SAxhScfTsAcMCkGGojlsUt/GoNPg1Tvr5joJIJI9GcZIpoxRAwghB+sR5kVWOOj04+vYqhquSVWFcRdMq8JiJmgGlDCVpd9TVHXhMuEOBoI4TlnCfU8pA3ArhU1UxGDgmcl7kdQAr4FxS6BgLQ/rcE5DhqgNABUMcN4LKOzOCvAe86UKAqEMrbWA54E7w61H/f3vf1nPbllX1VVk+qA/GSrxHrCrxQU00BBXkboKXByUp47sP+g9M1Bh/CHLRP0GiAho04KOJkECVVGGCWncJVVQBUQn2e29tjD7G/M7Zm2NM9lLmbL211i9zzPmNvWqdtb/9QX7TJkd9m+cvfO2rL7/4lc+//PQvffrlp+RreT8vH8X8ln133b8F479+tjv6UsSC1Lq0nujxXboYrx6r/brP5LcNXoeI2XKTJw/N3UGhAnU1Cey8P0pLgoQL0wOBAHDUs6n7ws1JaXnzZ1wrWe2nnwOapvr3BfeAjbJ22lspVGDwbJp6gAwIzKhz1p7EH9F87/l78J66F9AG+bJl5IlSqvP1B0Bdr9yUzFpVA1TvArhktH5L8D7exXQP6x4hsxDNUFJFAC0vqalZV597zrrVuq1nFfEfAK1nv9NG3tn+nb/wl1/+6d/85P8X37TJj1/+o2zoPyEfv/zs//jll8/KvwL0VflKnn78Yv9Ysy1GXXAu3spKfF9PW/N9N6w61uFB14eNNmfIfvdxDSyGQFvvh3ty3TOy3O3nwJtYt4KZp+ciCzR10IvuFKXkxcT+qLC+XzroM+weovMGr3/R6fA9+K6lWTbpeHjc5C39WsAGPDpMaLVRX5cP1kqjBw8ZtQoTb+tmcOXowa3U0t33xqa3R5KH/DZd3sFUkfbU77T54x97+cd//QfkN1R+ML/TpuZ9BdCPX37lN77x8ln5t2F/TH598X/47KdeviD/xNuv2scvH5LP1D9if3s2S/HyRMQkLKEIi5Z19GzS5Z6Y56Z7gYdNvgfY/jAIKd/Jaz/ydGpOq5aY2yAcyPw+3uhUZVqzpWr3YwGWWYRFyySnz7r5ZL0P6V7GxIsndDVvdYjooBEmEeu1mELzsN7DBJLPJSAaYZP2Pfj6iOb7vlk2eG0gr/Z4TJSIg55GW8aLrrmXpY7aF4fV9gZbmyIK8KhN0xXp7CaRXqwCM2wyVx88kAEwylnZ6FynIO3kKXJccjfPbUNR8+0HoGrzmuuv7NXfafMPvuOvfqC/0wavbcX28cuXPmf/sfTf/uIvyNcb/5t9Ve93xe++8W+/1AXRujUbqIlq49RZT+Pj/xIV49VjLZ7eyfsctHnXAA5ykydPjO+ODgoVWIpFuD9KS4KECyOZwYAAcNS5+56fup5N3QdDiy54TsF8Rl7k7Ald7TFNZgLRSqM1oZVCBbJkE/NltZ7DAMMNQWjoqDb4j8q3aH5DNvgP21900iHE0O6cys6R6tzRc87PIg+3Q/pfHNWXpuk5F12Fou6Btl1eCyEhMxylyCxEM/QJQcshmhLUQcp2dvqsu+mynmqwIuzRjz/0L/r8OfmmzT/8/r/18gN//i+K7TCENXm7B/1vA/rX3H9a3qH/5Kd/zj9++Z/68ctv+Ldf9N+FhXEA5gX5QCA0DNSEeTsU1MF2YSbtDwv5rpu8OiWfNmfIfvdxDSyGLpWF93ty3TOy3Cv3lfHWF1mAH5GiC+TUeQE5hZwXD4ebrna2QDRD/x78D8rXJPcNXufYKioJTWbdTOa7614eJsvEPJt02U5CJ/tDQN0OwVI2KpL5zf4Q4FK8ntpt0Ym6bCieJschPy5CtMt6VqPdY9+0+T2/9+Xvfsu32Vcq/+jv/2iVfNvAPn6RX0j1Wfn2y4/Jrwj4qc986uWL8vHLV+XjF/37NPbxi/02R7jQgMDIWBCNcCTtcloR1MF2qSZd7okmXDd5L/CwyfcA2x8GIeU7ee1Hnk7VSVS2l6EOkQ2scxccdS23WZIBAaDUgQigNuhQUAfR209On3Vzvc9nvBpZk+pUtNfG0D3KNMKAWPcwheZhvbfK1ohLQDRA+wz+B/9Vb/D6qwraF6gJ7WivpgR1kHKdbau46Jq7byeVHrUvDqvtDbY2RRTgUZuWhhR4xBR7RNvkldk8kAFQr7bDQE2obC+n5Dho5Nl/MlOOQk/rqbbdY9+0kd8Q+Zc+9s0v/+T7/7b8Tpu3+69H6Sau/x7nz/zSp+TXBchfPpJfFaA96y8fyd+O3C8dmIDA2HX4RZ/gmGQprpz1rHvdwMN09ViLp3fyPgdt3jWAg/zJJU+M744OChVYikW4P0pLgoQLI5nBgABw1Ln7np+6nk3dB0OLmKZnBSxeJCcFIWDoGsU07SmiAHuapuyiC+zV58uChIDAUA8cRD3jBq9t9dVFBHXgYhydDvHoEeGgWRmTbwYd5nLDKtVBhTlpEQV4nKa1UWbZeV9w1tXODEcpMgvRDH0O0HKopgR1kLLPnMeD7vJlPdVgubtH6fzXoz4p37T5Z3/jky9/+H3+Thv7+EX/8pF8/PLjn/7Zl//833/55b/Kxy/6i6rsLx/J7y+ZXtd7AtcMMC/Iy4Uw6kzCEouwaDibSftgaJFH+FJAnaLT5gzZ7z6ugcXQpbJQjrcllfW8yV7i4qnkgwf0nK4oJSoo4C1JMwrN7uGUTdfabIEIoP1FJ3sH/2f9M/gPwe+DB583YMIHsaMeRBz0lG2JLrqnXwwmHRY62uMAVOkQHGi/lhg82uZlIFvc/nNLlYelAR2gFuwwUBPdL9HeOJWoI8lDfpsu66kmy5099k0b+W75t8g3bf7RX5N/PUrezet/kH166ffRf+UbX3/5THz75d9/5hfsd7/8qvzmQf3LR/rxi/7TcTz3fhH7pYMnIDB5MT4eCA0bcW8cRTxgW6/VpH0wsl03eS/wsMn3ANsfBiHlO3ltTJ5OFaUDQx3GvEzsl8W6lluY7gECwNa1IwsQirBoateX02fdTfPza1oVuXisSXWqNK+NoXuqZEpFF+hUpoRvYl/vrbLZO2PRQ9B38J/Lj2h+83vkWzTyP4nx1QUyA1XH5OlgM9oyXnS9vstSx/VfHFbbG2xtiigAyymjNr0GLpGulwaEQIhUlNfCbB7QAXJmCIveHhEGTXV9mTQ/KW4w09N6eqVTG/vXo2RT/vvf9n0vf+/bv/flm//gH+nagL4of/no0/L7Xn5Gvqv+7/7Lz7/83Ofl2y/y/+rjF/tM3ROqVwGfAcrpm93hBWRAYMQP0QjHJOvjylnPYa4beJiuHmvx9E7e56DNuwZwkJs8eWJ8d3RQqMBSLMJ9zZcECRdGMoMBAeCoc/c9P3U9m7oPhhYxXZ7xLpKTci7oBdFRF1OA6zQtWR0UKrBXny8LEgICQz203b7B5zt4zuLRFi2v1+kQjx4RDprVMflm0Gu43LBKdVAhD6lFkgFE9BoMm0rXsGISMsNRisxCNEOfAzTrRdOJOOjqc/qsW63belaR85rrbxL8Tfls/mMf/UMv3/nxP/3yrd/0iZc/Jr83XH9r5Ze//rWX/yS/U/1nP/fLL7/0Ffn4xf7y0Ufs18fuM/NFWEQUBTm6nfsAnhmKNYT3oGv9tgvqoFsHMmn+6SzvdZNXl+TT5lyZ8h6sejvYfKXrf5MePKDjhRhNmg0CnR3ypS0JETIL0Qyl8JiYrOuQi0M5LceDbt6nZ1xNN0/VPvwcgJ6zFWW1R9ZHJiOZLYnXe9e1CJfoSL8mCe/g/5T86xA5iJzbh9AF0DKjKUEdpFxnW6KLrrmHZfQalntxhJ4NqdUhONBSohVDHUZ5Jt7kZkArq92VAzWRl9Ype+PFI8lDfpsu66kmy714RP9f/+e37D+K/j753en6+7/1fw3qO/xv/G/9B6p/O7790h/j1DgFqpECe0XbDOVMZvdsFBABgeEaIDRstLZrRVAHMJ9Dky73RF3XTd4LPGzyPcBpk88NXvuRp1N1EpXtFW0zRLa4/bI6P4ssjNDBgACwdS3AAoQiLJra9eX0WXfT5fmtIhePNalOVrIOTkfYQSORKigwUXuNtlc7KOaceNjmkb2D/+fxLZrf/B7d4PUjmrByRrJHXTt1iqAOVKLX9eFWp6XfCrjp6DDB1c1TRAEetWkfRFvFyyTSVQBCIESYFdjt7IEIoCZ0GKiJqueUHActTSbtP5kp+1n0Y4kSnjz+WyqzsKbZvYZ81BJz4zI33ZRWrDQF82WBJyAwXAOEhmOS9XXlrJvJ5upqya3n68+BpT+9k/cetHlnk2ifmzx5aLQOChVYikW4r/mSIOHCSGYwIAAcde6+56euZ1P3wdBiDwv3ZDmK5KSLWE2M3+oUUYDrNJ2FuM5BV9N8WZAQEBjrQRv8r8sG/+H8iAZbcxYMLcKiWZqVVhTi0XPOtzomH5LNoC2eNhw1eo2tUhEFcmKv3nTVcMHaJowzma0lMxxlI2YhmqHPAVoO0ZSgDlK2s9Nn3U2X9VSDFbl4qvfBA7r1y5JVe2ONiLYpyrkKFbf/EIBnhCO5VA4PWLVhh4I6qFkSmLQPlrKdr5u8OiSfNmfIfvdxDSyGLpWF93ty3TOy3Cv3lfHWF1mAH5GiC+TUeQE5hZwXD4ebrna0+Ab/r/178McNXttBFkAXmFA32EUcdDOZ765r7mGr8BJW++IIvfslsuZjYCmpHIKlbLjJPPypy7pfWzbSM+gAWQlh0clz2VA8TY5Dvtaw1+3hVoPlvm7NtzZEdFCoQDWykSq66OYhvbK8RmhsgWiEI2n1WhHUgfeCo0mXe6LW6ybvBR42+R5g+8MgpHwnr/3I06k6icr2MtQhsoF17oKjruU2SzIgAJQ6EAHUBh0K6iB6+8nps26u/5fPuA5QsxeYKL+gVob1pmLuh0vf3sHr1yS7JSQzCZ4QFh0yBYo46D6NSPtTkpKfLf1WQG1vuuF0/UZW1mewIyl+SUxxgmibvDKbBzIAavsOAzVh07VHhEFLk0mPa/60nt7t2MabWMvNU0QBHrdpye+gUAGfwZrEYb4sSAgIDPWAdgDHJOvoylnP2R6fcZ1iHt5LWIund/I+B23eNYCD/OkmT4wPjQwWXWApFuE+9pIg4cJIZjAgABx17r7np65nU/fB0KILnlMwn5EXOXtCV3tMk5lAtNIIE4jtOkRT8LzJh11PvcHL9+D1HfyH4GuSS1kfnskeSNGi5dU6HeLRI8JBszom3wx6NZcbVqkOKuQhtUgygIheg2HBu4YVk5AZjlJkFqIZ+hygWS+aTsRBV5/TZ91q3dazirxuzccxiizQ4zZV09pMGV10G410YzI9L757mQIJMxRXCKBzZREWrZuG9LDpXDd5a/a0yfdEtIk3bSO9541+u66NWH4OFj1CZiGaocw6JibrOuTaxcXBaTkedLM9PeNqunmq9uHnAPQYi8cZdGtZh8zaif1RqmKeJKH+RafP2X9kzQ1eP4MPH9shmqEUFQG0HK2pWW/fXffyXS3z6mzSYaHVFHr6qdIhONBZzEotZaM8ZS4Pv1pY92uLVDuBDpAzQ1h08uxPQTXxNDkO+W26rGc1unisdnWqsgaobweFClSjyjfpolsG6UuN0NgC0QhH0mZqRVAHNW8Cky73xKa86V6AP2LJ4nL2z+R7gNMmnxu8ppKnU0XpINqqHV6tK7mPzfr+jFuW1wMrQK3qOliTaEVQBynb2emz7qbL86sGK3LxhF5WKxoHH2ALii7A2UUXyKJN7OvNNSySr0l+ftvgwdfljiSsbbg5SRPZM+hmUt88dcpW6LLUb+lm9ICN6CLWIJ+BntMQZAuEKHwLs3lAB6jJHQZqImqnR4RBS5NJj2t+WfGq/eRxY9lpAA1aaUQ0BeUpwDUsIk0ZfQEZEJhR56wxSS1R+aybSX1P6/3ksRZP7+R9Dtq8awAHucmTJ8Z3RweFCizFItwvbUmQcGEkMxgQAI46d9/zU9ezqftgaNGbklMwn5EXOXtCV3tMk5lAtNIIE4jtOkRTMPyhyhPo9+Bhg//Ey4de+z14rmMX060FdWBaHpw+6172rmvth9shhovDh5BWDirkIUv3mVIkeg2GBV+qS8gMRykyC9EMfQ7QctqmBHWQsp2dPutuuqynGqzIxVO9Dx7QrV+WrNoba0S0TVHOVai4/WcbPAGB4RogAGwPk9BdhEWrgTJ7Hwwt8ixdCqhTdNqcIfvdt2tgMXSpLLzfk+uekeVkzY93pYSDB/Qql0DPg150aZnAxP6ouK6fwX/+h/R78PYRjW7w8D34qg69rT4Un6G4RABtH2vW23fXvfzQoAvYDEeHCa02srSsQsGrPWTUUkycbkY1FfuSUdIiQBgZnGh5Re2Nq6575FjmkhrcHm51We7h4Qa9oIJ8Ud8OChXQBAqybVbadMvgFPaExhaIRjiSNkMrgjowDQ8mXe6Jeq+bvBd42OR7gO0Pg5Dynbz2I0+n6iQq28tQh8gG1rkLjrqW2yzJgABQ6kAEUBt0KKiD6O0np8+6uT7gZ5xGPQRFF8jLamJfb/XIz+K8wbuYZXLBuhzoTKbVilv+ondmCINueVphnjplu5GX7SRu9MVhvX2AbYwiCsC16XA9xhK4RLp6gRAIURRamM0DOkCuHMKit0eEQYsBYu6LwQo9rad3O1YxwdXNU0QBHrdpadJBoQI+gx7zNT9KkBAQGEmFaIRjkrV05az3XFA4yeV8/Tmw9Kd38t6DNu/sEe1zkycPjdZBoQJLsQj3NV9AQQOVAAAn8klEQVQSJFwYyQwGBICjzt33/NT1bOo+GFrEdHnGu0hOyrmgF0RHXUwBrlN0AcuuqMBefbqsD8nviRrewedEUG2GYgwBdG4twqK9Ru8J5vzUtfbD7bjfsJrNQYXZoIgCfDlNSwYF7+NdDOdnOWYhmqHPAdp2KVp40NXn9Fm3Wm/lB8C7jWMUWaDHbaqmtZkyuujWkXRjMj0vvnuZAgkzFFcIoHNlERatm4Y0/XSC6brJW7OnTb4nok28aev2njf67bo2Yvk5WPQImYVohjLrmJis65BrFxcHp+V40M329Iyr6eap2ofdCfQYi8cZdGtZh8zaCXyU/B28/kUn+YjmG9/zieVvsi7J0bR6Ww+IZiguEUCzNGcDznr77rqXHxp0Aet2dJjQaiNLyyoUvNpDRi3FBN4Mb8T6vnSgA+TKISw6efbG3l6OnibHIb9Nhwc3DZZ78YSu9q0NER0UKrBnm3TRLYP0pUZobIFohCOpheHaxAM2E+Fg0uWeWK2b7gX4Ixao/+7bNbAYAv1WyNEBixnJet9kFy8eS/YKW50iCnCvpmtaHavoAjVsAvoDlTb4X/9u+QwevgdfGV22OnD9iJiErFnX+q6c9Zzh+R2M1loGyORqdHFYKk3T2VW2AHdqWnIo8Igp9oi2ySuzeSADYF2mTR7CordHhEGzVDmYdNtQrNDTenq3YxtvYi03TxEFeNymc1quc9BtItIsjWpkI7ZBNMIgQePKZ718T+utU9481uLpnbzPsb2L1yFixPf8Lh5yFforimXEobALIeHCtAcEgKMe7aJWuDkpLe65rac6RT+kex0TL57QrZRn9LEKF+BeRRew3IoK7NXzsrYN3n/ZmF1XD8Jl6U5QjxyPyWSligiLxqPNeg5iyzjkp+7lbwYd4elm9ERbpSIK8OU0rY1qLKvI4ab77JiyJETILEQz9D6gZYemBHWQsp2dPutuuqynGqzIxVO9Dx7QrV+WrNoba0S0TVHOVai4/CEoAj1h5yyIZth9QNf6HQrqoFsHMmkfjHzXTV6dkj9u4CK9+3YNLWXcivs9ue4ZWe6V+8p264nooJHez2qSwM5Gl5YSEx/Wr0n+UHxEo+/gc4NX+/6cQXJAYDQju5yge8CWCU0J6iDlOts2cNE197BVeA3LvThCz4bU6hAcaCnRiqEOozwT1/XWDLEvGVHHtQ7QFxmcaNai9sZVyj1yLHNJDW4Pt7os93VrvrUhooNCBapRzWXSTSct04AMCExejJtBaNhoXbNWBHWQjets0uWeqPG6yXuBh02+B9j+MAgp38lrP/J0qk6isr0MdYhsYJ274Khruc2SDAgApQ5EALVBh4I6iN5+cvqsm+sDecZ7wEZ0ERSUp4BfD17oe9zgtQBUCwhM60xC1phkk7ly1s2kHfanJCU/S4nLdhKXcHHYCDRN14/xcB2KUtc5cIn0JUG0TV6ZzQMZALlyCIveHhEGTXV9mfS45k/r6ZWObbxJ9zMUh0oqwOM2LQkdFCqg9SgYNpzFE/YlS03+AqHhmGR+V856lX1abzFefw6sxdM7eZ+DNu8awEFu8uSJ8d3RQaECS7EI90tbEiRcGMkMBgSAo87d9/zU9WzqPhhadMFzCuYz8iJnT+hqj2kyE4hWGmECsV2H6A70I5ov9Dv4j/M/+BHt9+vuAt0BZrS88IBV6Q4FdRCdkJr1NNpSD/mpa+2H2yGGi6NqO6gwGxRRgC+nacmgYNhUWPfZs5Ged31nwTNDrwOa1tBXU4I6cDGOTp91s93WUw1W5HVrPo5RZIEet6lsZCNB24qni3zNM04tujOVGz1MQqYIiwZDurQPhpb7Jm8X/7TJm8lq0ibetGnveaPfrmsjlp+DRY+QWYhmKLOOicm6Drl2cXFwWo4H3WxPz7iabp6qPfwclGZFrB0jrZ10ASMsYsrMwwa//EWnqLc/Z1AtIDBWPFJhKIRjkqV0HUEdVLkEtkQXXXOHZcz0qH1xWO1u0EhKHIIDTQnmIaOOxMR1vcO+ZCjrLxagcgiLrklF7Y2jaHrEWeaSGtwebnVZ7uvWfGtDRAeFClSjmsukm05apgEZEJi8GDeD0LDRumatCOogG9fZpMs9UePbeievtU6bfG7wm4dm78DnVje+Wld2vyzWdV0WRrO8IAgAW1cXCxCKsGheNOmzbr4P5BnvARut19RKoQJ+Rfo9+OUdvG7w+mLnfjMWT9iXLKu0lIJwTLIcV866F5Yp58FStsu4bCdxmReHjUDTUG0PYk4JGl0D95FZKwEhECIV5bUwmwd0gJwZwqK3R4RBU11fJj2u+dN6eqVjG2/S/QzFoZIK8LhNS0IHhQpoPQqGDWfxhH3JUpO/QGg4JpnflbNeZZ/WW4zXnwNr8fRO3ufYNngdIkbMTZ48ofmsHRQq4I4qFuF+aUuChAvTA4EAcNS5e7g5KS3ebx+sdAOiH9LdZ+LFc9OrcAHuVXQBHyknBNrfwf+b+FUF3/1x+o+s49JCMlzJDYoWSZAL0HUmrF5TgjrwXnC0ZbzomntZaq90u2FV20GFOUMRBXjcpiWDgmFTYd1nz0Z63vWdBc8MvQ5oWkNfTQnqwMU4On3WzXZbTzVYkctdqd4HD+gxVo9bWjVKS7ateLrI/WcbCgYERmpBNMP2gK5DdCioA5XoZdI+GHsedH3YaHOG7HffroHFEOi34n5PdD0vt8wL3jx+U8231SGig0Y1JIKuFUba4L/xXR8fvgdPJb3ARgGRhc2Zh11XpdkxyZLJ00EWrrMt9UXXZtfbYbkXR+jZkFodggMtJVox1GGUZ2L/uWXdry0n0zPoAFkJYdHJszdW2V6eJschPz2PPwCW+7o139oQ0UGhAjoNBR4RRcHwh+5SI+xLVl02tmtPI9S5snjA1gUdmXS5J1brpnuBh02+B9j+MAgp38lrP/J0qigdGOpQ0+TFxD4262pfmK4BAsDW93ZQayysGeE56266PL9V5OKxgX1qP1pVPxRRAOYWS9MUFC1g3+Dh98F3q0oxar8ZSoMnIDCtMwlZY5L3gyMkGIuH6/9MVaO0uCx1XMLFYSP6nDFtty+iAI/atA/Sme4jXUUgBEIUmQuzeUAHyJVDWPT2iDBoMUDMfTFYoaf19G7HKia4unmKKMDjNi1NOihUwGfQY77e6BnXIlC7YaAmsl3Yz3oaH59xbT0P7yWsxdM7eZ+DNu8awEFu8uSh6+qgUIGlWIT72EuChAsjmcGAAHDUufuen7qeTd0HQ4sueE7BfEZeZPbUsIcaoFO5LSijKRnprwv+wg/FRzT6Dj6/B2+GdFFKVrbr6mD1QC5AcUUEJEDXmVgqizjoZrLsu665h6XMEnZhxxYlOKgws4sowOM2bdNmmp7354jMdt3McJSNmIVohj4HaDlTU4I6SNnOTp91Nz2suBW5eKr3wQN6DjdQIhXbsxNFQY6eJeMMnoDAiAeiGbYHdC3eoaAOVKKXSfvDwp4HXR822pwh+93HNbAYAv1W3O/J4yavJWXNj7fVb6o13jxEdNCohkRgtfRfdPrCDw8bvKr7M0IlrcDVE3bOGkm48Fm3eaxjIC5aiqsiXnTVLksduReH1e4GjaT7ITjQlGAeMvrV6DFf1/VWk+RzCYgAhjXKhrDo5NkbR272k+Qhv02X9axGF4/V9gZbGyI6KFSgGtlYRRdg3SLSLE0OQAYEZtStVqYP+Sl1HUEdpFxnky73RI1v65281tr+MIjZ8p385qHZO/C51Y2v1pXdL4t1XZeF0SwvCALA1tXFAoQiLJoXTfqsm08GP6R7GRMvntDVvNUpogB7mqZs2OC/9be/8V2fqHfw1YQSi1Vgr/1mKA1JAYFpnUnIGpO8HxwhwVg8XB9uNUqLy1LHJVwcNqLPGdN2+yIK8KhN+yCd6T7SVQRCIESRuTCbB3SAXDmERW+PCIMWA8TcF4MVelpP73asYoKrm6eIAjxu09Kkg0IFfAY95uuNnnEtArUbBmoi24X9rKfx8RnX1vPwXsJaPL2T9zm2DV4rxIi5yZMnNGhksOgC7qhiEe5jLwkSLoxkBgMCwFHn7nt+6no2dR8MLWK6PONdJCddcjM81KiLKcB1ii5gn8F/0d/B6wb/8djg2wAzZXc5s26ejQJihCO5VBYP2HKApma9fXddax+WMkvcb1gN4qDCzC6iAF9O05JBwft4F8P5WY5ZiGboc4C2XYoWHnT1OX3Wrdab/AB0E+s2jlFkgR63qZrWZsrooqtv/9mGhIDAZFVNzcVZYQuc2DMrWjQrEgeT9sHQct/k1Sn5tDlD9ruPa2AxdKksvN8TXc/LLfOCN4/f1Ozk/jxS4Q4aibECmUM+ohk2eK1WLiu9P0OsW8ZGAREQmO7BJHQek3weO1rXddRSXJUaS/3FIPLFYNLFEXrWpEqH4EBLiVYMdRjlmXi8J2JfMnLMVQBfZHCi5RW1N6667pFjmUtqcHu41WW5r1vzrQ0RHRQqUI1srqILsG4RaZYmByADAjPqVivTh/yUuo6gDlKus0mXe6LGt/VOXmttfxjEbPlOfvPQ7B343OrGV+vK7pfFuq7LwmiWFwQBYOvqYgFCERbNiyZ91s33gTzjPWAjvib9i06HDV7H7DRDHdo1oG7uTecaWY5tETGZ1p5h0bvynK96vq4Pt5qkxGU7icu8OGwEnyOmydawRK008t6D2SjzkVlpIARCFGUWZvOADpArh7Do7RFh0GIAl/afzJT9fPsBqNq/02tejWymigooTcGw4SyesC9ZVt8OIDQck8B+1rPw4zMuxqvHWjy9k/c5tg1eh4gRc5MnT2g+aweFCrijikW4P0pLgoQL0wOBAHDUuXu4OSktb/6MayWpfXzCq+/BAXoOVVTUtpO9g/9x/YtO8hHNd37cP6KZnFHFpItuRUmHbgDZAtEMJVME0LSUvpqadXfFQrY56T5b+s2gzQ6LrVUq1UGF2aGIAp1C+VswbCpdw8pLyAxHKTIL0QyltAigWS9nA866ip521q3AbT2ryOvWfBgzh6hpqiSBLfDZqSAFmnC/J2HnLIhmqFWtdp48KNZ1yE09zybtu2HKdr5u8uqQfNqcIfvdxzWwGLpUFsrxck+ue4bm+007lwi9rNYzDtS3g0ZSXr4m+cUfjg3+67LB+z+6nY2zGqZIEoer2ZKunsjnMiMJFz7r2qzrCOrA5sCDbRUXXXMv20nUvjisdjdoRENS8GoPGfWqmLiud9iXDGX9xQJUDmHRNamovXEUTY84y1xSA8m/yS5ePJbsFbY6RHRQqICO00GhAqxbRJoy+gIyIDCjzlngBrh5Fk31fJl0uSfqu27yXuBhk+8Btj8MQsp38tqPPJ2qk6hsL0MdIhtY5y446lpusyQDAkCpAxFAbdChoA6it5+cPuvm+kCe8R6wkYx93OB1MnRCYDRpm3m4GYsn8rnMSK6dl7m0blJzvjv8eH24o9BlO4lGF4eN4HPENN2+iAJwbWJreg1cIj2GzeqibfLKbB7IAMiVQ1j09ogwaDCW6BeDFXpaT+92rGKCq5uniAI9blPSgIKOiKbgcFngCQgM9wGh4ZikCxAznXUzqe9pvZ881uLpnbzPQZt3DeAgN3nyxPju6KBQgaVYhPulLQkSLoxkBgMCwFHn7nt+6no2dR8MLXpTcgrmM5IiR0cNe3CADuUM2n9k/RF4B09/0UktlbwFcWFWJw5kNm6/bvAEBEZyIJqhe0CL5pAp4qC3765r7mEps4QYLo7q7aDCzC6iAI/btGRQMGwqrPvs2UjPu76z4Jmh1wFNa+irKUEduBhHp8+62W7rqQYr8ro1H8coskCP21Q2spGgbcXTRf6OPeM1QLfvUQV10IZAJu2Dke/xDwLJp80Zst99XAOLIdBvxf2eXPcMLec37XxbQy+rgnz5ABF1oN+D/+K0wauzbAWItWL7M0TmZ0/YOWske55EnOS97KgHEQc9ZdsqLrqnXwwmPW04nd/IR8s5cMhXe8iolZh4vCdiXzKmcYxrX6AmKqeovfHiEWeZS2og+TfZxYvHkr3CVoeIwTPoOljRBYi12efLhoSAwGBlaIIQ3AC5uwiLZgPFwaR5uLJdN3kv8LDJ9wDbHwYh5Tt5bUqeThWlA0MdxqxM7JfFupZbmO4BAsDWtSMLEIqwaGrXl9Nn3U2X57eKXDzWpDpZyTo4LWGBl2WD/5j8R9ayg41yKIB+nciZw7tOtfYQCYFpncm0HvWuHIlLvur5uj7capLcy1LHJVwc1tsH2MYoogBcm/fOOWmtUuq0sAEhEKJdV2bzQAbAsHKNRW/PVjTy/GRp+08mea7vcqrv78CaV+2+mhyspAKDh7Qts24I2yAaYZCgceWzXr6n9Rbj9efAWjy9k/c5aPOuARzkJk8euq4OChVYikW4X9qSIOHCSGYwIAAcde6+56euZ1P3wdCiC55TMJ+RFDk6atiDA3Qtt3xE8zH4m6zl7GGa0lTNr5dFRFFgvv26wRMQGMmBaIbuAS0HakpQBynX2ZbpomvuYSmrxvWGVW0HFWZ2EQV43KYlgwJtu7wWQkJmOEqRWYhm6HOAlkM0JaiDlO3s9Fl308OKW5GLp3ofPKDncAMlUrE9O1EU5OhZMs7gCQiMeCCaYXtA1+IdCupAJXqZtD8s7HnQ9WGjzRmy331cA4sh0G/F/Z5c9wwt5zftfFtDL6uCfPkAFtn34Osjmu/4mPyz6/kPfqjezkIFWLeItF1/9EQ+lxnJfTJO0lbsGXQzmU/Ei67aYavwEpZ7cYTe/RJZ8zGgcQ7BUjbqkPnN/hDgUrBEISy6DlDUZcNwjxzLDEuQUPJvsosXjyV7ha1OEQW4V9N4Re056Dr6fNmQEBAY6tFNcHnADdD66cFeIixaKno2aR6ubG/rnbwW3P4wiNnynfzmodk78LlrxACtK7FfFut68QujWV4LBICtq4sFCEVYNC+a9Fk33wfwjPs7+J/w78F/XTd4+nXBPX2j9YJbMdRhXCsT+81QG3gCAtM6k5A1Jll/V866mbTDPFjKNuJlO4lLuDhsBJqGansQc+o8rd4C95FZE4EQCFFUXZjNAzpArhzCordHhEGLAWLui8EKPa2ndztWMcHVzVNEgR63KWlAQUdEUzBsOD6nHu0V9iUrVWrZnjEJyp31LPz4jIvx6rEWT+/kfY5tg9chYsTc5MkTms/aQaEC7qhiEe4/vkuChAvTA4EAcNS5e7g5KS3ebx+sdAXX9TaDzn1r4KbRIeS8wWuOviqrwEShsdM6ZdPVtF83JAQEhmuAANA9TGirnlnRoJvJfHfd0y8FrNnxdkBvr7FVKqIAj9s0XVW01RO8yGy9meEoGzEL0Qylnwig5QBNzbr63HPWrZY8KF0rq8PZxIunkgdPaVqvg0IFWK/oopuH9MpSUO3YAtEMT4k8PeRaLziYtP/wgUNGe9D1h5c2Z8h+93ENLIZAvxVyvNwTXc+b7OLFY8leYa1j34P/kfUdfM5I7g4KFdAECu4buLrZHh2BDAhM92ASOo9JVrtTBHUQfftky3jRNfey1FH74rDa3aBRX55P00qjBw8ZtQoT+5qz7tfm3f0IOkCuHMKik2dvXE08TY5Dfpsu61mNLh6rXZ2qrIHqW4BHaVrsHRQqUINU/fmyISEgMNQD2gEEN0DuLsKi1VDZYR6ubNdN3mo/bfI9wPaHQUj5Tl6bkqdTc1qbK9oa7gOZh32FdV2XhekeIABsXZuyAKEIi6Z2fTl91t10eX6ryMVjTaqTlbQ0/Zrkj8oG/wfkVxXoRzT1N1nT4jkSFQBENAXQLyuRruT8jHWfbARM12AyrUfd+ukhnUu+SXG4PtxR4rLU0eLisN4+wDZGEQVyYp+uaYkp8Igp9oi2ySuzeSADYCyDz5Q1Fr09W9HI85OlzQ9D+0QfykMBhU8er7DVKaJA92rK6ntDP5ZUQHkK3uwZX8p15UBN+EDV/ayn8fEZ11q3e2ItXrfJ0+ZdAzjITZ48dF0dFCqwFItwH3tJkHBhJDMYEACOOnff81PXs6n7YGi5r3cUOT7hNSw77CMa3OD1M/jyYvsiC7SvqbyUyjTpotvcpBtT+dmELRDNUPJFAC0LNjXr7bvrXr6rZR6dX7kpac5WqYgC7Gl6y96fIzIPS7Pr+0zgmaHPAZrW0FdTgjpwMY5On3Wz3dZTDVaEH/Ao76fqPXhKq0KWU3QB1iu66OYhvbIU1JqwBaIZnhJhiSURcq0XHEzaHxZwSPqDrn+C0eYM2e8+roHFEOi34n5PdD0vtyyKXDx+U62xwmWD/5P1PfitCREdFCqgtSnQmZcXE7u+1Aj7kuU1mYTOY5LldIqgDpYZVbrrLl8LSM3X3QxtTpUOwYGmbPOQcav+eE/2S4eCALlyCItOnvlmqyWuX5KHfDOY6bKeVeTisdreYGtTRAEepematloS2IJhvRdP1KYW2B2Eho3QypXFAzbV8GXS5Z6o97rJe4GHTb4H2P4wCAnfVpKnU3WSGt1Qh8EzsV8W61puYboHCABb144sQCjCoqldX06fdTddnt8qcvFYE+9kf9Gp38HrBq9fk6wxrF8dnC5d+aIugXnIuJnf7Adgqd1hoCa0sb2cOuvl25+SlKrQZaljgS4OG4Gm6foxHq5yUeo6By6RviSItskrs3kgAyBXDmHR2yPCoKmuL5Me1/xpPb3SsY03mceopALtayon1Ub2KqmA0hS82TO+lOvKgZqwedp+1tN43cDDdPVYi6d38j4Hbd41gIPc5MlD19VBoQJLsZo7+TwvCRIujBiDAQHgqHP1PT91PZv68Ixf1zuKHH8Kali5J/UZ/J/Rz+Blg1++B1/ebcIa1ZTyFWC9ootuHtIrS8G07k2CvkD3bHWr3FHXOvqyhRzyXTWDe4oYgNzQY4kSHFSYZYoowLWa9mEyTyPSVFgICZnhKEVmIZqh9wFNO+urKUEduBhHp8+62W7rqQYr8rTm1Sk6x8npLSi6gFooyLaRu+vGcArXCI0tEM2wa4DO3UVYNNXzZdL+sKRs5+dN52mT1zI+BG3iTVuf97zRb9e1EcvPwaJHyCxEM6xrWde17YI6sGvLg9Nn3Xxv4RnXj2i+9KM/Kf+RNTf44Xvw24xEdFCogI5JwbLQr9EXT5RbqqppbQWdx6QlRTxc1PQ8vPEmb7Vft+FoTxrlEBxoyo62eRlxpszHe6LDLBldjwXwhbDomljUZUNxjxzL3C0LvYUfgGywtSmiAI/SNF5Rew66zj5fNiQEBIZ6dJOc3qrqwV+cCHYRFi1T9GzSPFzZrpu8F3j3cU2upa3aec1fs976sJiv7sACYs1PHv2a5L7Ba43KcFBh1i+iQKdQPgfm7pSoxsT8jIEnIDBSZySTPeo93ZwfA9rp+nBHoevtsBYXR+g9E3SP8eo6RSpqSyDFfUxxtmibvDKbBzIA8ighLHp7RBg01fVl0vwwuMFMT+vplcY2RR5qgJ4NB0qkYs1WUQGfIWtYRFoqQAYERkwQjXBMsuKunPWa4Gm9dYqbx1o8vZP3ObZ38TpEjPie38VDrkJ/RbGMOBR2ISRcmPaAAHDUo13UCjcnpUU8Ihy0NF3XW01WYi5y3uAjMZtolbFEkQXa15RP0cWGdzFkNuf+HIEnIDDcAwSA7mHCe9lRDyIOesqPN8TSLwWsxWEto7338hpbpSIK8LhNSxkKntdc7EuGj5LHEI8eEAD6HExYxaYEdZDdwHPW3XRZTzVY7Ysn9LJa0TjQXB0UKrBnm3TRLYP0pUZobIFohlJkTEzWdcjVrvgyaf/hQ8t9k1en5I8buEjvvl1DSxn3RVb9ck90PW+yi7vHPqL5F+tHNNi/qjqoMD1EdFCogCZ0YKjDqMbE/IyBJyAw3YPJtTOOEr2RkuQlv0zW4a5r7r7UUMFqXxyhZ4aFD8GrPWTUokzsa866X1sOs+Tv1jCGsOiUvTeuJp4mxyG/TZf1rEYXj9WuTlXWQPUtwKM0LfYOChWoQar+fNmQEBAY6gHtAIIbIHcXYdFqqOwwD1e26ztLq/20yfcA2x8GIeU7eW1Knk7NaW2uaGu4D2R+H290tFLUgFIAWwerQn21T1AHLsbR6If1fj+bPG3wvyb/kXX7i040oU+3zVhEAb6OptfLHS6YzMPNoIEqf8nyZWMSZgph0bvyWffC0vbxZuhoQ4Mq4N2ODhNc3TxFFOBOTUsTCjxiij2ibfLKbB7IAOhXqEd9hbDorYgwaJaa2Y9rflnxqn3wvAedZuoLCLoKWVxRgS3hzZ7xpVy3CdREzJfLfNbT+PiMi/HqsRav2+Rp864BHOQmTx66rg4KFViKRbg/SkuChAsjmcGAAHDUufuen7qe7cnkgigbvq63F/E6kblt8M9/0cmrjHMUWSCXpNbG+7Zu1TgUaiOGHwLwBASGa4AA0D1M6DjQXcRBN5P57rrmHraTLCGGi6N6O6gws4sowOM2bdNmmp7f+wNOxWpdmIVohj4HaDlTU4I6SNnOTp91N13WUw1W5OIJvaxWNA4+wBYUXWDPhrJbfhD3exK1qQUuFAgApfSYmKzrnJDj2Nmk/WFhz4OuF0abM2S/+7gGFkOg3wo5Xu7Jdc/Qcn7T7LRs8N90/otOldhgm4GIDgoV6BqFSCtWgb3mZwiSAgIjeSOZ7FHXhl1HUAcq0cu2iouuuZftJGpfHFa7GzSSMQ7BgaYE85BRL4uJfc1Z92vTvHyBDlDVDgM1kcnt2RsvHkke8tt0WU81We7FE3pZq3DmskKjHIKiC3ANi0hTRl9ABgRm1DkL3AA3z6Kpni+TLvdEfdd3ll7gYZPvAbY/DELKd/LajzydqpOobC9DHSIbWOcuOOpabrMkAwJAqQMRQG3QoaAOorefjN4HI89rN3n9HvyX8jP4X/srssHb9+C989i/yINn0XWqoigg1j1MrZnDzaCC1YjLRMQkzDTrXfmsq0df14fbDDraMoBlxsGkiyP0KIWZdc0AuBO1pcB9TEltIARChMP2DJsHMgBqQoeBmqh6Tslx0NJk0pv8AETt44pX74MDdJpJg9K2oKWbh7StetVnG0QjDBI0rnzWy/e03mK8/hxYi6d38j4Hbd41gIPc5MlD19VBoQJLsQj3S1sSJFwYyQwGBICjzt33/NT1bE8eF0TZ8HW9vYj8qoKPvHyZNnj7m6zWwQ5jDyLf8g8B1Y4p9QSv6w2JfC4D0QylugigZbumZr19d93Ld7XMo7Nc2NFRgoMKs0ARBbhW05JBwfAHJ+s+ezbS867vLHhm6HVA0xr6akpQBy7G0emzbrbbeqrBijyteXWKznFyeguKLqAWCrJt5O66MZzCNUJjC0Qz7Bqgc3cRFk31fJm0//ClbOfnTedpk9cyPgRt4k1bn/e80W/XtRHLz8GiR8gsRDOsa1nXte2COrBry4PTZ918D8+4fkTz5X8Z36Kxd/C5wWt23Myxf5E1Rs7l59KtUGlFFxh00li3aNMXT+hsG0lY21nnyuLhoirX6/FPXUu/FpBar9twtClVOgQHmrLNQ8atej4KKsRrSZCQGYgAanKHgZrI4u25bCieJschvws9radPdCxhgqubp4gCPErT01Uvc5N5WG+fs6/L0ZJVMg7Snkaoc2XxgK0LQr/LPbFaN91qP23yPcBpk88NXvuRp1NF6SDaqh1erSu5j826llsYzfJ6IABsXV0sRLjne0E/mroPhhYbfCldum3w4zt4tXh1M48FinRQYZYvokBfY1PZKLOwbXHr6szXDEUDAtN9mOyZEi26DuFUCIOegz6/g9FatwLe7egwwdXNU0QB7tR0XVHN7W0zjDMkCIRo1yOfPRABDCvXWPT2iDBokezS/DCkRfIvKx61j47qfXCAng0HSqRizVZRAaUpGDacxRP2Jcvq2wGEhmMS2M96Fn58xsV49ViL123ytHnXAA5ykydPX6hOkRmNmgqNif1RYl0LLUz3AQHgqOdg7gs3J6VF+olw0NJ0Wu/7Bl/ZCp4e8Nd4espCBTxfj/l6XGwxXj1Rm1rgSoEAUKuOC9qeWa+5D/mpu9zVikfwik0ph9wqFVEArzrTolt7lLiupxmWdK5c4lI1emmDEboAWrqaEtRBynZ2+qy76fD8ZiUrcvGErnbvl4kr0WqhAnu2SRfdMkhfaoTGFohm2EODzpVFWDTV82XS/rCkbOfTplMmyafNuYR3fxkKlsLXMo+Xe6I/vKv8ug1ei8fNXAtkXztH+c1DhAcD5SVgRPOQUS1MzM8YeAIC0zWYhMpjks3XKYI6MA0PttQXXXP32wEVLPfiCD0zqNUhONBSohVDHUZ5JvY1Z92vLSfTM+gAWQlh0cmzN1bZXp4mxyE/PdMPQGuJXrfmW5siCvAoTUujDgoV0DkoyB+9HDDO4AkIDNcAoWGjpR2E4gHbMoBLl3ui/usmb7WfNvkeYPvDIKR8J6/9yNOpOonK9jLUIbKBde6Co67lNksyIACUOhAB1AYeBrloMYB79sFS9rPomE4b/NfkWzTjX3TSVMvyVCxQ1Ys8eBa9ShLYAmxbrXI5kpivuRqWHRhJjYjJZI+69vSUOV/1fF0fbjVJCb4dmRlna3FxhB6lODnGy2k3T+mb4tdH+uIRbZNXZvNABkCuHMKit0eEQVNdXybND4MbzPS0nlrn0KTogwP0bDhQOWlauluZbdDSLSItJSADAiMmiEY4JllxV856TfC03jrFzWMtXrfJ0+ZdAzjITZ48Mb47OihUYCkW4T72kiDhwkhmMCAAHHXuvuenrmd78rggyoZxvXmD//Y/If/bqEbcEj1bj08P+Gs8PWWhAp6vx3w9LrYYr56oTS3yZmgTEAC6wIS6wS7ioJvJfHddcw+rmSXEcHFUbwcVZnYRBXjcpm3aTNPzdT3NsF46FSuRWYhmqJ0rV9vkq+2zrj73nHWrdVvPKvK05tXJStbB6Qg7KFSgGnHqRbcM0pcaobEFohlKkTExWdchV7viy6T9YUHLfZNXp+TT5gzZ7/4yFCyGLpWFcrzck9wzhg3e/8EPu18K15cWVXH6gyAb6jnuSlJVRgnQlS9PaekuxVoa2xRm+jyZn+mZ4JdkkY7FD5IQqUPtgpqQQZ6jfoeBmugJdJ10vSatXe6BuGDNdtlw1Gw3zLO2VkUU4HGa1kJeBFFTyJoP2kYemQfPokPYsBGM47Wii80JtqIFOC3Hg+5eWc+bbtplzUPXWmMZ0DcPJXTQCIsS672YQrO2GpZmSYiwWUX6f/qwaoF+eXjW02krZQuqD+z0irVc6rdTBPv/ajjUsPqu88+wV/EtR/XBo5S9PiTVdRbvYXRpasggz8I09BJRpwLRR4uyIDTU3hqxnvV8trOu69PrnVl4jvpS4sP6PXj7F53k98F/Td/Bw9ck8a0+phuOq9YxxpcJro4e0DN/oETq7EIFNJMCj5hiT2ibJeuAANBrMKHNM6vR4HGfCAdNdX3d19sccwm9n/XEe5OtVRFPuvfRo76WNCebdU+ZQna2A9F3CzAjDBK0LOjUWTefrMnjH6zyDA/ls00MffHUCIcqRTuoUDscgqILbGZOrWkhISAw3FCFm4cTrYNTYxJPMO+G7XnQda4P53CV5SDeM0pwfrffKct9o2vqoJCCCrQKBR4xxZ7QNkvWAQFg12Ays1xfNCHt5fRBTM/v/sjLV+R78P8Xy5a8JwJwywgAAAAASUVORK5CYII=" vertex="1" parent="1">
                    <mxGeometry x="787" y="780" width="80" height="80" as="geometry"/>
                </mxCell>
                <mxCell id="24" value="ECR" style="text;html=1;align=center;verticalAlign=middle;resizable=0;points=[];autosize=1;strokeColor=none;fillColor=none;fontSize=15;" vertex="1" parent="1">
                    <mxGeometry x="949" y="238" width="60" height="30" as="geometry"/>
                </mxCell>
                <mxCell id="26" value="Cloud Watch" style="text;html=1;align=center;verticalAlign=middle;resizable=0;points=[];autosize=1;strokeColor=none;fillColor=none;fontSize=15;" vertex="1" parent="1">
                    <mxGeometry x="1186.25" y="250" width="110" height="30" as="geometry"/>
                </mxCell>
                <mxCell id="27" value="IAM" style="text;html=1;align=center;verticalAlign=middle;resizable=0;points=[];autosize=1;strokeColor=none;fillColor=none;fontSize=15;" vertex="1" parent="1">
                    <mxGeometry x="1216.25" y="421" width="50" height="30" as="geometry"/>
                </mxCell>
                <mxCell id="28" value="API Gateway" style="text;html=1;align=center;verticalAlign=middle;resizable=0;points=[];autosize=1;strokeColor=none;fillColor=none;fontSize=15;" vertex="1" parent="1">
                    <mxGeometry x="445" y="718" width="110" height="30" as="geometry"/>
                </mxCell>
                <mxCell id="42" style="edgeStyle=none;html=1;fontSize=15;" edge="1" parent="1" source="29" target="21">
                    <mxGeometry relative="1" as="geometry"/>
                </mxCell>
                <mxCell id="29" value="lambda" style="text;html=1;align=center;verticalAlign=middle;resizable=0;points=[];autosize=1;strokeColor=none;fillColor=none;fontSize=15;" vertex="1" parent="1">
                    <mxGeometry x="792" y="718" width="70" height="30" as="geometry"/>
                </mxCell>
                <mxCell id="30" value="S3" style="text;html=1;align=center;verticalAlign=middle;resizable=0;points=[];autosize=1;strokeColor=none;fillColor=none;fontSize=15;" vertex="1" parent="1">
                    <mxGeometry x="959" y="860" width="40" height="30" as="geometry"/>
                </mxCell>
                <mxCell id="31" value="bedrock" style="text;html=1;align=center;verticalAlign=middle;resizable=0;points=[];autosize=1;strokeColor=none;fillColor=none;fontSize=15;" vertex="1" parent="1">
                    <mxGeometry x="786" y="860" width="80" height="30" as="geometry"/>
                </mxCell>
                <mxCell id="44" style="edgeStyle=none;html=1;entryX=0.5;entryY=0;entryDx=0;entryDy=0;entryPerimeter=0;fontSize=15;" edge="1" parent="1" source="32" target="20">
                    <mxGeometry relative="1" as="geometry"/>
                </mxCell>
                <mxCell id="32" value="kendra" style="text;html=1;align=center;verticalAlign=middle;resizable=0;points=[];autosize=1;strokeColor=none;fillColor=none;fontSize=15;" vertex="1" parent="1">
                    <mxGeometry x="944" y="718" width="70" height="30" as="geometry"/>
                </mxCell>
                <mxCell id="33" style="edgeStyle=none;html=1;entryX=0;entryY=0.5;entryDx=0;entryDy=0;entryPerimeter=0;fontSize=15;" edge="1" parent="1" source="2" target="12">
                    <mxGeometry relative="1" as="geometry"/>
                </mxCell>
                <mxCell id="34" style="edgeStyle=none;html=1;entryX=0;entryY=0.5;entryDx=0;entryDy=0;entryPerimeter=0;fontSize=15;" edge="1" parent="1" source="12" target="11">
                    <mxGeometry relative="1" as="geometry"/>
                </mxCell>
                <mxCell id="37" style="edgeStyle=none;html=1;entryX=0.5;entryY=0;entryDx=0;entryDy=0;entryPerimeter=0;fontSize=15;" edge="1" parent="1" source="23" target="16">
                    <mxGeometry relative="1" as="geometry">
                        <Array as="points">
                            <mxPoint x="979" y="610"/>
                            <mxPoint x="500" y="610"/>
                        </Array>
                    </mxGeometry>
                </mxCell>
            </root>
        </mxGraphModel>
    </diagram>
</mxfile>
